<!-- Generated by IcoMoon.io -->
<svg version="1.1" xmlns="http://www.w3.org/2000/svg" width="901" height="1024" viewBox="0 0 901 1024">
<title></title>
<g id="icomoon-ignore">
</g>
<path fill="#ce4e4e" d="M899.144 219.636l-1.264-4.676c-0.545-1.784-1.103-3.25-1.743-4.671l0.1 0.248c0-1.39-1.39-2.78-2.022-4.297l-1.264-2.022c-0.758-1.39-1.769-2.654-2.654-3.791-2.452-3.196-5.194-5.978-8.242-8.392l-0.098-0.075c-1.187-0.98-2.509-1.9-3.904-2.706l-0.14-0.074-2.022-1.264c-1.108-0.731-2.392-1.448-3.73-2.070l-0.188-0.078c-1.227-0.57-2.776-1.17-4.364-1.682l-0.312-0.087-197.521-66.725-6.824-54.088c-3.665-23.986-24.149-42.147-48.875-42.147-2.643 0-5.237 0.207-7.767 0.607l0.28-0.036-155.691 21.231-117.4-40.187c-4.379-1.49-9.435-2.445-14.683-2.651l-0.103-0.003h-7.203c-10.893 1.28-20.533 5.851-28.1 12.677l0.045-0.040c-6.069 5.346-10.724 12.159-13.421 19.889l-0.1 0.331-12.637 35.511-211.169 28.813c-24.628 3.122-43.481 23.942-43.481 49.166 0 2.18 0.141 4.328 0.414 6.434l-0.026-0.249 61.417 453.173-61.67 171.994c-0.768 2.032-1.466 4.49-1.97 7.018l-0.052 0.312c-0.486 2.682-0.764 5.77-0.764 8.922 0 0.284 0.002 0.568 0.007 0.852l-0.001-0.043c-0.1 1.060-0.157 2.293-0.157 3.538s0.057 2.478 0.168 3.695l-0.012-0.156c0.278 1.826 0.63 3.405 1.078 4.944l-0.067-0.268c0 0.758 0 1.643 0 2.275 1.084 3.353 2.369 6.237 3.914 8.954l-0.123-0.234 1.264 2.022c1.776 2.803 3.65 5.24 5.721 7.493l-0.034-0.037c1.011 1.264 2.275 2.275 3.412 3.412 1.73 1.561 3.629 3.018 5.638 4.317l0.175 0.106 2.022 1.264c1.253 0.795 2.707 1.557 4.223 2.2l0.2 0.075c1.227 0.57 2.776 1.17 4.364 1.682l0.312 0.087 65.84 22.242 9.478 70.516c3.564 24.095 24.101 42.376 48.908 42.376 2.586 0 5.125-0.199 7.604-0.582l-0.276 0.035 189.559-25.275 212.18 72.412c2.105 0.725 4.619 1.342 7.206 1.738l0.25 0.031c2.401 0 4.802 0 7.456 0.758 0.726 0.038 1.576 0.060 2.431 0.060 3.615 0 7.138-0.39 10.531-1.131l-0.325 0.059c2.608-0.519 4.894-1.218 7.077-2.114l-0.253 0.092c2.626-0.964 4.834-1.985 6.946-3.16l-0.248 0.127c10.921-5.761 19.267-15.172 23.52-26.576l0.112-0.341 29.698-83.027 65.082-8.846c24.632-3.187 43.466-24.032 43.466-49.276 0-2.141-0.136-4.251-0.398-6.321l0.025 0.246-22.368-173.005 3.665-10.11 147.983-414.882c1.098-2.819 1.941-6.105 2.379-9.518l0.022-0.212c0.047-0.718 0.073-1.556 0.073-2.401s-0.027-1.683-0.079-2.515l0.006 0.114c0.194-1.423 0.305-3.068 0.305-4.739s-0.111-3.316-0.325-4.928l0.021 0.189c-0.246-0.738-0.426-1.597-0.503-2.485l-0.003-0.043zM612.403 65.461c0.201-0.032 0.434-0.051 0.67-0.051 2.238 0 4.088 1.662 4.382 3.819l0.003 0.023 4.17 31.846-75.824-25.275zM48.148 146.593c-0.022-0.169-0.035-0.365-0.035-0.563 0-2.257 1.644-4.13 3.8-4.488l0.026-0.004 188.169-25.527-44.231 123.087-68.747 9.352 6.066 44.231 45.621-6.319-81.005 226.334zM159.104 930.99c-0.201 0.032-0.434 0.051-0.67 0.051-2.238 0-4.088-1.662-4.382-3.819l-0.003-0.023-6.445-48.148 112.472 38.165zM723.612 849.732c0.022 0.169 0.035 0.365 0.035 0.563 0 2.257-1.644 4.13-3.8 4.488l-0.026 0.004-42.209 5.687 27.297-76.961 6.824-19.461zM854.534 231.389l-155.818 435.228-72.033 200.68-39.049 108.933c-0.69 1.653-2.208 2.834-4.022 3.031l-0.022 0.002c-0.266 0.045-0.572 0.071-0.885 0.071s-0.619-0.026-0.917-0.075l0.032 0.004-126.878-44.104-407.806-137.241c-0.435-0.372-0.779-0.837-1.002-1.366l-0.009-0.024c-0.238-0.5-0.377-1.087-0.377-1.706s0.139-1.206 0.388-1.731l-0.010 0.025 31.972-88.461 33.11-94.653 201.438-562.739s0 0 0-0.758c0.834-1.215 2.134-2.058 3.637-2.271l0.028-0.003c0.266-0.045 0.572-0.071 0.885-0.071s0.619 0.026 0.917 0.075l-0.032-0.004 32.478 11.121 501.574 169.719c0.73 0.444 1.325 1.040 1.756 1.746l0.013 0.023c0.474 0.943 0.751 2.055 0.751 3.232 0 0.466-0.043 0.921-0.126 1.363l0.007-0.045z"></path>
<path fill="#ce4e4e" d="M320.482 216.098l411.723 139.642 15.165-42.335-411.597-139.642-15.291 42.335z"></path>
<path fill="#ce4e4e" d="M275.24 342.597l411.723 139.642 15.165-42.209-411.723-139.642-15.165 42.209z"></path>
<path fill="#ce4e4e" d="M230.631 467.074l411.723 139.642 15.165-42.209-411.723-139.642-15.165 42.209z"></path>
<path fill="#ce4e4e" d="M184.505 595.848l411.723 139.642 15.165-42.209-411.723-139.768-15.165 42.335z"></path>
<path fill="#ce4e4e" d="M146.719 701.37l411.723 139.642 15.165-42.335-411.723-139.642-15.165 42.335z"></path>
</svg>
