<!-- Generated by IcoMoon.io -->
<svg version="1.1" xmlns="http://www.w3.org/2000/svg" width="1024" height="1024" viewBox="0 0 1024 1024">
<title></title>
<g id="icomoon-ignore">
</g>
<path fill="#ce4e4e" d="M1016.281 230.636c4.549-4.559 7.361-10.852 7.361-17.802s-2.813-13.243-7.362-17.802v0l-187.628-187.628c-4.559-4.549-10.852-7.361-17.802-7.361s-13.243 2.813-17.802 7.362v0l-216.615 216.615c-4.048 4.455-6.527 10.401-6.527 16.925 0 13.921 11.285 25.206 25.206 25.206 6.524 0 12.469-2.479 16.945-6.546l-0.021 0.019 198.971-198.814 152.025 152.025-70.42 70.735-55.296-55.454c-4.63-5.095-11.282-8.281-18.679-8.281-13.921 0-25.206 11.285-25.206 25.206 0 7.397 3.186 14.049 8.261 18.66l0.021 0.019 55.296 55.454-60.022 58.919-55.296-55.454c-4.63-5.095-11.282-8.281-18.679-8.281-13.921 0-25.206 11.285-25.206 25.206 0 7.397 3.186 14.049 8.261 18.66l0.021 0.019 55.296 55.454-51.358 51.358-400.62-399.99c-25.587-25.247-60.755-40.84-99.564-40.84s-73.977 15.593-99.58 40.855l-45.199 45.199c-25.48 25.628-41.23 60.954-41.23 99.958s15.75 74.33 41.237 99.965l212.985 212.985-270.651 270.178c-4.549 4.559-7.361 10.852-7.361 17.802s2.813 13.243 7.362 17.802v0l187.471 187.628c4.559 4.549 10.852 7.361 17.802 7.361s13.243-2.813 17.802-7.362v0l228.588-228.903c5.095-4.63 8.281-11.282 8.281-18.679 0-13.921-11.285-25.206-25.206-25.206-7.397 0-14.049 3.186-18.66 8.261l-0.019 0.021-9.137 9.137-55.296-55.454c-4.455-4.048-10.401-6.527-16.925-6.527-13.921 0-25.206 11.285-25.206 25.206 0 6.524 2.479 12.469 6.546 16.945l-0.019-0.021 54.666 55.769-60.022 60.18-54.823-55.454c-4.63-5.095-11.282-8.281-18.679-8.281-13.921 0-25.206 11.285-25.206 25.206 0 7.397 3.186 14.049 8.261 18.66l0.021 0.019 55.926 55.454-70.892 70.262-151.867-152.025 252.849-253.007 324.057 324.057h0.788l1.103 0.788h5.829l312.399 106.969c2.219 0.708 4.77 1.116 7.418 1.116 13.921 0 25.206-11.285 25.206-25.206 0-2.647-0.408-5.199-1.165-7.596l0.049 0.179-102.4-312.556v-5.671l-4.726-1.26-1.103-1.26-135.168-135.326zM701.204 852.283l151.079-151.079 74.358 225.438zM653.942 827.865l-553.275-553.905c-16.421-16.492-26.572-39.238-26.572-64.354s10.152-47.862 26.576-64.358l44.58-44.58c16.457-16.497 39.214-26.703 64.354-26.703s47.897 10.206 64.353 26.701l60.024 60.024-84.756 84.756c-4.048 4.455-6.527 10.401-6.527 16.925 0 13.921 11.285 25.206 25.206 25.206 6.524 0 12.469-2.479 16.945-6.546l-0.021 0.019 84.756-84.756 457.964 458.122z"></path>
</svg>
