<!-- Generated by IcoMoon.io -->
<svg version="1.1" xmlns="http://www.w3.org/2000/svg" width="3006" height="1024" viewBox="0 0 3006 1024">
<title></title>
<g id="icomoon-ignore">
</g>
<path fill="#ce4e4e" d="M1555.978 0c-42.356 7.384-74.147 43.874-74.147 87.789 0 22.899 8.644 43.78 22.847 59.556l-0.071-0.080 293.387 275.122h-1126.742c-45.407-139.529-174.305-238.6-326.342-238.6-0.856 0-1.711 0.003-2.565 0.009l0.131-0.001c-3.090-0.103-6.721-0.162-10.367-0.162-180.717 0-327.73 144.302-332.101 323.966l-0.008 0.405c4.429 181.922 152.956 327.706 335.532 327.706 2.441 0 4.876-0.026 7.305-0.078l-0.362 0.006c0.405 0.002 0.885 0.003 1.366 0.003 153.296 0 283.069-100.719 326.752-239.592l0.658-2.426h1127.884l-294.528 275.122c-19.935 16.453-32.544 41.165-32.544 68.823 0 23.232 8.897 44.386 23.47 60.24l-0.058-0.064c17.307 17.084 41.098 27.636 67.353 27.636s50.047-10.552 67.364-27.646l-0.010 0.010 442.934-415.536 9.133-11.416 9.133-9.133s0 0 0-5.708c3.469-3.256 5.915-7.565 6.827-12.416l0.022-0.142v-7.991c3.485-5.188 5.912-11.373 6.824-18.040l0.025-0.225v-18.265c-2.399-11.666-6.761-22.001-12.766-31.161l0.208 0.338-3.425-11.416-6.849-5.708c-5.571-5.777-11.96-10.712-18.994-14.63l-0.413-0.211-433.802-410.97c-16.405-15.854-38.778-25.624-63.433-25.624-3.392 0-6.74 0.185-10.036 0.545l0.407-0.036zM2667.88 183.795c-2.096-0.047-4.565-0.074-7.041-0.074-181.372 0-329.142 143.867-335.418 323.71l-0.016 0.574c8.168 182.649 158.229 327.634 342.153 327.634 0.113 0 0.226 0 0.339 0h-0.017c3.070 0.102 6.68 0.16 10.303 0.16 181.92 0 329.686-146.23 332.169-327.56l0.003-0.234c-3.075-179.842-149.586-324.45-329.872-324.45-4.432 0-8.844 0.087-13.233 0.261l0.631-0.020zM342.475 355.032c1.38-0.043 3.002-0.068 4.631-0.068 85.424 0 154.968 67.991 157.469 152.81l0.005 0.231c-1.266 86.665-71.817 156.434-158.664 156.434-1.21 0-2.417-0.014-3.62-0.040l0.179 0.003c-85.43 0-154.685-69.255-154.685-154.685s69.255-154.685 154.685-154.685v0zM2667.88 355.032c85.43 0 154.685 69.255 154.685 154.685s-69.255 154.685-154.685 154.685v0c-85.43 0-154.685-69.255-154.685-154.685s69.255-154.685 154.685-154.685v0z"></path>
</svg>
