<!-- Generated by IcoMoon.io -->
<svg version="1.1" xmlns="http://www.w3.org/2000/svg" width="992" height="1024" viewBox="0 0 992 1024">
<title></title>
<g id="icomoon-ignore">
</g>
<path fill="#ce4e4e" d="M139.947 1024h711.68c77.014-0.199 139.369-62.677 139.369-139.719 0-42.148-18.662-79.936-48.174-105.554l-0.172-0.146-128.114-111.388c56.688-69.705 91.022-159.568 91.022-257.45 0-226.216-183.384-409.6-409.6-409.6s-409.6 183.384-409.6 409.6c0 97.882 34.334 187.746 91.616 258.203l-0.593-0.754-128.91 111.388c-29.684 25.764-48.346 63.552-48.346 105.7 0 77.165 62.554 139.719 139.719 139.719 0.037 0 0.073 0 0.11 0h-0.006zM152.007 409.6c0.13-189.798 154.021-343.609 343.836-343.609 189.896 0 343.836 153.941 343.836 343.836s-153.941 343.836-343.836 343.836v0c-189.897-0.194-343.772-154.149-343.836-344.058v-0.006zM91.705 828.302l130.958-113.778c72.072 64.863 167.936 104.536 273.067 104.536s200.995-39.673 273.438-104.865l-0.371 0.329 130.958 113.778c15.802 13.602 25.747 33.629 25.747 55.979 0 40.719-33.009 73.728-73.728 73.728-0.052 0-0.103 0-0.155 0h-711.672c-40.717-0.002-73.724-33.010-73.724-73.728 0-22.227 9.836-42.157 25.392-55.674l0.090-0.077z"></path>
<path fill="#ce4e4e" d="M495.844 659.911c138.243 0 250.311-112.068 250.311-250.311s-112.068-250.311-250.311-250.311c-138.243 0-250.311 112.068-250.311 250.311v0c0 138.243 112.068 250.311 250.311 250.311v0zM495.844 226.304c101.434 0.065 183.637 82.308 183.637 183.751 0 101.483-82.268 183.751-183.751 183.751s-183.751-82.268-183.751-183.751c0-0.16 0-0.32 0.001-0.48v0.025c0.259-101.373 82.465-183.459 183.859-183.524h0.006z"></path>
<path fill="#ce4e4e" d="M432.356 358.741c3.731-4.604 7.798-8.671 12.249-12.282l0.153-0.12c13.819-11.266 31.646-18.091 51.067-18.091 0.007 0 0.013 0 0.020 0h-0.001v-66.56c-81.689 0-147.911 66.222-147.911 147.911v0h65.991c0.155-19.388 7.088-37.128 18.542-50.996l-0.11 0.137z"></path>
</svg>
