<!-- Generated by IcoMoon.io -->
<svg version="1.1" xmlns="http://www.w3.org/2000/svg" width="815" height="1024" viewBox="0 0 815 1024">
<title></title>
<g id="icomoon-ignore">
</g>
<path fill="#ce4e4e" d="M242.153 0c-5.394 0.485-10.185 2.743-13.861 6.18l0.013-0.012-221.091 210.618c-4.45 4.247-7.216 10.223-7.216 16.846 0 0.091 0.001 0.182 0.002 0.273v-0.014 720.291c0 12.853 10.42 23.273 23.273 23.273v0h453.818v23.273c0.079 12.793 10.468 23.133 23.272 23.133 4.285 0 8.299-1.158 11.747-3.178l-0.11 0.059 69.818-40.029 69.818 40.029c3.338 1.96 7.352 3.118 11.637 3.118 12.804 0 23.193-10.34 23.272-23.125v-23.281h104.727c12.853 0 23.273-10.42 23.273-23.273v0-930.909c0-12.853-10.42-23.273-23.273-23.273v0h-549.12zM267.636 46.545h500.364v884.364h-81.455v-139.636s0-0.698 0-1.047c21.674-24.486 34.909-56.878 34.909-92.361 0-77.119-62.517-139.636-139.636-139.636s-139.636 62.517-139.636 139.636c0 35.483 13.235 67.875 35.037 92.508l-0.128-0.148s0 1.047 0 1.047v139.636h-430.545v-663.273h197.818c12.853 0 23.273-10.42 23.273-23.273v0h337.455c0.104 0.002 0.226 0.003 0.349 0.003 12.855 0 23.275-10.421 23.275-23.275 0-12.732-10.223-23.076-22.908-23.273h-338.171v-151.273zM221.091 77.498v143.593h-151.273zM207.244 314.182c-12.383 0.606-22.194 10.794-22.194 23.273 0 12.868 10.431 23.299 23.299 23.299 0.389 0 0.775-0.010 1.16-0.028l-0.054 0.002h395.636c0.104 0.002 0.226 0.003 0.349 0.003 12.855 0 23.275-10.421 23.275-23.275 0-12.732-10.223-23.076-22.908-23.273h-398.563zM207.244 430.545c-12.383 0.606-22.194 10.794-22.194 23.273 0 12.868 10.431 23.299 23.299 23.299 0.389 0 0.775-0.010 1.16-0.028l-0.054 0.002h395.636c0.104 0.002 0.226 0.003 0.349 0.003 12.855 0 23.275-10.421 23.275-23.275 0-12.732-10.223-23.076-22.908-23.273h-398.563zM581.818 605.091c51.413 0 93.091 41.678 93.091 93.091s-41.678 93.091-93.091 93.091c-51.413 0-93.091-41.678-93.091-93.091v0c0-51.413 41.678-93.091 93.091-93.091v0zM125.789 628.364c-12.383 0.606-22.194 10.794-22.194 23.273 0 12.868 10.431 23.299 23.299 23.299 0.389 0 0.775-0.010 1.16-0.028l-0.054 0.002h232.727c12.853 0 23.273-10.42 23.273-23.273s-10.42-23.273-23.273-23.273v0h-234.938zM125.789 721.455c-12.383 0.606-22.194 10.794-22.194 23.273 0 12.868 10.431 23.299 23.299 23.299 0.389 0 0.775-0.010 1.16-0.028l-0.054 0.002h232.727c0.104 0.002 0.226 0.003 0.349 0.003 12.855 0 23.275-10.421 23.275-23.275 0-12.732-10.223-23.076-22.908-23.273h-235.654zM523.636 824.902c17.029 8.265 37.041 13.095 58.182 13.095s41.153-4.831 58.993-13.449l-0.811 0.353v135.564l-46.545-26.531c-3.338-1.96-7.352-3.118-11.636-3.118s-8.298 1.158-11.746 3.177l0.11-0.059-46.545 26.531z"></path>
</svg>
