<!-- Generated by IcoMoon.io -->
<svg version="1.1" xmlns="http://www.w3.org/2000/svg" width="938" height="1024" viewBox="0 0 938 1024">
<title></title>
<g id="icomoon-ignore">
</g>
<path fill="#ce4e4e" d="M935.544 1002.351s0-0.815 0-1.164c0.054-0.645 0.084-1.395 0.084-2.153s-0.031-1.509-0.091-2.251l0.006 0.098c0-0.815 0-1.746 0-2.561 0.022-0.4 0.034-0.868 0.034-1.338s-0.012-0.939-0.037-1.403l0.003 0.065c-6.052-30.727-18.273-89.737-31.309-151.307h6.751c0.058 0 0.127 0.001 0.196 0.001 15.042 0 27.235-12.194 27.235-27.235 0-3.168-0.541-6.209-1.535-9.037l0.058 0.191-20.019-88.107c-2.855-12.215-13.648-21.175-26.536-21.183h-16.645l-4.656-22.114c-28.865-139.668-108.476-158.64-190.181-158.64h-62.036v-34.917c0.001-0.139 0.002-0.304 0.002-0.469 0-28.529-22.964-51.696-51.416-52.023h-8.062v-344.049c-0.342-45.828-37.573-82.847-83.45-82.847-1.393 0-2.777 0.034-4.153 0.102l0.194-0.008c-0.671-0.019-1.46-0.030-2.252-0.030-46.251 0-83.918 36.754-85.386 82.648l-0.003 0.135v343.584h-12.803c-28.483 0.328-51.447 23.494-51.447 52.023 0 0.165 0.001 0.329 0.002 0.494v-0.025 34.917h-60.988c-81.473 0-161.317 19.204-190.181 158.64l-4.656 22.114h-15.713c-0.013 0-0.028 0-0.043 0-13.189 0-24.188 9.374-26.698 21.823l-0.029 0.174-17.575 91.133c-0.309 1.54-0.486 3.31-0.486 5.121 0 15.042 12.194 27.235 27.235 27.235 0.007 0 0.014 0 0.021 0h2.909c-12.919 61.454-25.257 120.464-31.891 151.307v0 0c-0.021 0.4-0.034 0.868-0.034 1.338s0.012 0.939 0.036 1.404l-0.003-0.065c0 0.815 0 1.629 0 2.444v0c-0.064 0.68-0.1 1.471-0.1 2.27s0.036 1.59 0.108 2.37l-0.007-0.1s0 0.815 0 1.164c0.33 1.35 0.689 2.476 1.114 3.57l-0.066-0.194c2.135 6.169 6.228 11.203 11.522 14.481l0.117 0.068c0.877 0.546 1.908 1.091 2.978 1.565l0.164 0.065h1.28c1.095 0.434 2.418 0.835 3.781 1.132l0.176 0.032c0.785 0.079 1.697 0.124 2.619 0.124s1.834-0.045 2.733-0.133l-0.114 0.009h882.586c0.785 0.079 1.697 0.124 2.619 0.124s1.834-0.045 2.733-0.133l-0.114 0.009c1.589-0.331 2.953-0.733 4.27-1.229l-0.196 0.065h1.164c1.282-0.586 2.351-1.168 3.376-1.815l-0.117 0.069c5.368-3.298 9.449-8.244 11.579-14.125l0.061-0.191c0.415-0.863 0.848-1.941 1.219-3.048l0.061-0.211zM61.92 785.633l6.983-36.197h799.716l8.264 36.197zM436.696 82.753c1.19-15.926 14.404-28.397 30.53-28.397 0.93 0 1.85 0.041 2.758 0.123l-0.117-0.008c26.188 0 33.171 17.808 33.171 28.283v343.584h-66.342zM372.448 480.807h190.065v33.404h-190.065zM120.231 683.908c20.252-98 60.29-115.226 136.875-115.226h421.914c76.585 0 116.39 17.226 136.875 115.226l2.328 11.639h-700.319zM848.6 840.104c10.010 47.836 19.903 94.974 27.003 129.542h-78.331l-16.178-91.483c-2.325-12.881-13.45-22.525-26.828-22.525-15.044 0-27.239 12.195-27.239 27.239 0 1.666 0.15 3.297 0.436 4.88l-0.025-0.166 14.549 81.473h-87.875l-2.328-51.328c-1.321-13.928-12.958-24.737-27.12-24.737-15.042 0-27.235 12.194-27.235 27.235 0 0.104 0.001 0.208 0.002 0.311v-0.016l2.561 49h-104.751v-86.711c0.037-0.532 0.058-1.153 0.058-1.779 0-15.042-12.194-27.235-27.235-27.235s-27.235 12.194-27.235 27.235c0 0.626 0.021 1.247 0.063 1.863l-0.005-0.083v86.711h-93.112l2.561-49c0.073-0.749 0.115-1.618 0.115-2.498 0-15.042-12.194-27.235-27.235-27.235-14.938 0-27.067 12.026-27.234 26.924v0.016l-2.677 51.91h-87.758l14.549-81.473c0.261-1.417 0.411-3.048 0.411-4.714 0-15.044-12.195-27.239-27.239-27.239-13.378 0-24.503 9.644-26.803 22.359l-0.025 0.166-16.178 91.483h-89.853c7.1-34.917 16.993-81.473 27.003-129.542z"></path>
</svg>
