<!-- Generated by IcoMoon.io -->
<svg version="1.1" xmlns="http://www.w3.org/2000/svg" width="1024" height="1024" viewBox="0 0 1024 1024">
<title></title>
<g id="icomoon-ignore">
</g>
<path fill="#ce4e4e" d="M723.464 530.692c0 9.752-7.802 17.717-17.554 17.717h-126.131c-8.369 30.293-35.683 52.168-68.107 52.168-38.728 0-70.167-31.209-70.539-69.85v-0.035c0-32.67 22.593-60.14 52.988-67.942v-178.631c0-9.74 7.896-17.636 17.636-17.636s17.636 7.896 17.636 17.636v0 178.794c24.706 6.339 43.886 25.681 50.387 50.387h126.131c9.752 0 17.554 7.802 17.554 17.392zM546.946 530.692c-0.046-19.445-15.82-35.19-35.271-35.19-19.48 0-35.271 15.791-35.271 35.271 0 0.029 0 0.057 0 0.086v-0.004c0 19.48 15.791 35.271 35.271 35.271s35.271-15.791 35.271-35.271v0zM854.796 201.224c82.553 85.097 133.445 201.314 133.445 329.417 0 0.018 0 0.035 0 0.053v-0.002c-0.129 173.852-93.52 325.863-232.843 408.72l-2.189 1.205 53.476 53.313c3.239 3.187 5.246 7.617 5.246 12.517 0 9.695-7.859 17.554-17.554 17.554-0.073 0-0.146 0-0.219-0.001h0.011c-4.551 0-9.102-1.625-12.516-5.201l-60.952-60.79c-61.003 30.596-132.923 48.508-209.026 48.508s-148.023-17.912-211.774-49.75l2.748 1.242-60.952 60.79c-3.179 3.19-7.576 5.163-12.434 5.163s-9.255-1.974-12.434-5.163v0c-3.19-3.179-5.163-7.576-5.163-12.434s1.974-9.255 5.163-12.434v0l53.313-53.313c-141.512-84.062-234.904-236.073-235.032-409.907v-0.019c0-127.756 50.875-243.972 133.445-329.468l-29.582-29.582-72.33 72.168c-3.197 3.151-7.588 5.096-12.434 5.096s-9.238-1.946-12.436-5.098l0.002 0.002c-25.908-25.888-41.934-61.663-41.934-101.181s16.026-75.293 41.933-101.18l0.001-0.001c25.976-25.849 61.794-41.828 101.343-41.828s75.368 15.979 101.349 41.834l-0.006-0.006c3.19 3.179 5.163 7.576 5.163 12.434s-1.974 9.255-5.163 12.434v0l-80.457 80.457 30.070 29.907c83.779-75.437 195.233-121.58 317.465-121.58 0.048 0 0.097 0 0.145 0h-0.007c121.905 0 233.407 46.161 317.765 121.58l29.907-29.907-80.457-80.457c-3.19-3.179-5.163-7.576-5.163-12.434s1.974-9.255 5.163-12.434v0c25.976-25.849 61.794-41.828 101.343-41.828s75.368 15.979 101.349 41.834l-0.006-0.006c25.908 25.888 41.934 61.663 41.934 101.181s-16.026 75.293-41.933 101.18l-0.001 0.001c-3.197 3.151-7.588 5.096-12.434 5.096s-9.238-1.946-12.436-5.098l0.002 0.002-72.33-72.168zM817.412 54.938l150.674 150.512c12.953-17.572 20.73-39.651 20.73-63.547 0-59.516-48.248-107.764-107.764-107.764-23.936 0-46.050 7.804-63.936 21.007l0.295-0.208zM206.1 54.938c-19.839-26.785-51.336-43.958-86.844-43.958-59.516 0-107.764 48.248-107.764 107.764 0 35.426 17.094 66.86 43.484 86.502l0.287 0.204zM952.97 530.692c0-243.721-197.575-441.295-441.295-441.295s-441.295 197.575-441.295 441.295v0c0 243.721 197.575 441.295 441.295 441.295s441.295-197.575 441.295-441.295v0zM863.411 328.168c34.382 57.987 54.7 127.819 54.7 202.397 0 74.351-20.195 143.985-55.399 203.716l1.024-1.878-0.325 0.975-0.975 1.138c-36.185 60.973-85.815 110.446-145.032 145.408l-1.904 1.040-0.813 0.65-1.463 0.65c-57.839 33.86-127.359 53.855-201.549 53.855s-143.71-19.994-203.466-54.888l1.917 1.034-1.463-0.65-0.65-0.65c-61.185-35.983-110.87-85.46-146.063-144.571l-1.035-1.878-0.813-1.138-0.325-0.975c-34.076-57.785-54.207-127.316-54.207-201.549s20.131-143.764 55.231-203.432l-1.024 1.883c0-0.488 0-0.813 0.325-1.138l0.65-0.65c36.202-61.206 85.956-110.856 145.355-145.896l1.905-1.040 0.65-0.65 0.975-0.325c57.952-34.050 127.646-54.161 202.037-54.161s144.085 20.111 203.941 55.192l-1.904-1.032c0.325 0 0.65 0 0.975 0.325 0.325 0 0.488 0.488 0.813 0.65 61.236 36.104 110.933 85.749 146.061 145.043l1.038 1.893 0.813 0.65zM823.101 730.453l-14.629-8.29c-5.279-3.129-8.762-8.797-8.762-15.279 0-9.776 7.925-17.702 17.702-17.702 3.295 0 6.38 0.9 9.021 2.468l-0.082-0.045 14.629 8.452c23.274-44.024 38-95.837 40.604-150.824l0.031-0.825h-16.904c-9.74 0-17.636-7.896-17.636-17.636s7.896-17.636 17.636-17.636v0h16.742c-2.641-55.813-17.366-107.625-41.597-153.655l0.962 2.005-14.629 8.452c-2.513 1.451-5.527 2.307-8.742 2.307-6.503 0-12.187-3.503-15.269-8.726l-0.045-0.083c-4.876-8.452-1.95-19.18 6.502-24.056l14.629-8.452c-29.261-44.784-66.449-81.868-109.899-110.136l-1.441-0.879-8.452 14.629c-3.24 4.643-8.557 7.643-14.574 7.643-9.785 0-17.717-7.932-17.717-17.717 0-2.778 0.64-5.407 1.779-7.748l-0.046 0.105 8.452-14.629c-45.999-23.731-97.524-37.872-151.975-40.472v16.742c0 9.785-7.932 17.717-17.717 17.717s-17.717-7.932-17.717-17.717v0-16.742c-55.924 2.651-107.845 17.375-153.996 41.602l2.021-0.967 8.452 14.629c1.472 2.519 2.342 5.547 2.342 8.777 0 9.731-7.889 17.62-17.62 17.62-6.501 0-12.18-3.521-15.234-8.759l-0.045-0.084-8.452-14.629c-44.823 29.164-81.955 66.245-110.303 109.59l-0.874 1.425 14.629 8.452c5.279 3.129 8.762 8.797 8.762 15.279 0 9.776-7.925 17.702-17.702 17.702-3.295 0-6.38-0.9-9.021-2.468l0.082 0.045-14.629-8.452c-23.274 44.024-38 95.837-40.604 150.824l-0.031 0.825h16.904c9.74 0 17.636 7.896 17.636 17.636s-7.896 17.636-17.636 17.636v0h-16.742c2.641 55.813 17.366 107.625 41.597 153.655l-0.962-2.005 14.629-8.452c2.235-1.094 4.864-1.733 7.643-1.733 9.785 0 17.717 7.932 17.717 17.717 0 6.017-3 11.334-7.585 14.536l-0.057 0.038-14.629 8.452c29.222 44.77 66.354 81.85 109.742 110.137l1.435 0.877 8.452-14.629c4.876-8.29 15.604-11.378 24.218-6.502 8.29 4.876 11.378 15.766 6.502 24.218l-8.615 14.629c45.999 23.568 97.524 37.872 152.137 40.472v-16.742c0-9.74 7.896-17.636 17.636-17.636s17.636 7.896 17.636 17.636v0 16.742c55.924-2.651 107.845-17.375 153.996-41.602l-2.021 0.967-8.452-14.629c-1.472-2.519-2.342-5.547-2.342-8.777 0-9.731 7.889-17.62 17.62-17.62 6.501 0 12.18 3.521 15.234 8.759l0.045 0.084 8.452 14.629c44.844-29.196 81.981-66.333 110.302-109.746l0.876-1.431z"></path>
</svg>
