<!-- Generated by IcoMoon.io -->
<svg version="1.1" xmlns="http://www.w3.org/2000/svg" width="1919" height="1024" viewBox="0 0 1919 1024">
<title></title>
<g id="icomoon-ignore">
</g>
<path fill="#ce4e4e" d="M1884.843 955.733h-91.022v-695.865c-0.006-3.077-0.421-6.055-1.193-8.885l0.055 0.238v-2.048c-0.833-2.53-1.834-4.712-3.044-6.756l0.086 0.157c-1.61-2.408-3.411-4.498-5.435-6.348l-0.026-0.024-1.593-1.365c-1.794-1.511-3.808-2.871-5.959-4.007l-0.185-0.089-488.562-227.556c-3.999-1.902-8.676-3.064-13.611-3.185l-0.042-0.001h-596.878l-5.006 1.82-485.831 227.1c-11.777 5.545-19.785 17.31-19.797 30.946v695.867h-132.665c-18.851 0-34.133 15.282-34.133 34.133s15.282 34.133 34.133 34.133v0h1850.709c18.851 0 34.133-15.282 34.133-34.133s-15.282-34.133-34.133-34.133v0zM1604.494 225.735h-425.301l-91.932-43.691h425.301zM1206.044 294.002h518.827v661.732h-518.827zM1365.333 113.778h-424.846l-99.897-45.511h425.301zM235.065 281.486l451.243-209.806 451.47 209.806v674.247h-902.713z"></path>
</svg>
