<!-- Generated by IcoMoon.io -->
<svg version="1.1" xmlns="http://www.w3.org/2000/svg" width="1182" height="1024" viewBox="0 0 1182 1024">
<title></title>
<g id="icomoon-ignore">
</g>
<path fill="#ce4e4e" d="M31.508 452.135c41.748-44.898 110.277-44.898 152.025 0l270.966 285.932 541.145-705.772c41.748-44.898 110.277-44.898 152.025 0 19.534 21.017 31.522 49.281 31.522 80.345s-11.988 59.328-31.59 80.418l0.068-0.073-594.708 776.665c-3.938 6.302-7.877 12.603-14.178 18.905-41.748 44.111-110.277 44.111-152.025 0l-354.462-375.729c-19.534-21.017-31.522-49.281-31.522-80.345s11.988-59.328 31.59-80.418l-0.068 0.073z"></path>
</svg>
