<!-- Generated by IcoMoon.io -->
<svg version="1.1" xmlns="http://www.w3.org/2000/svg" width="828" height="1024" viewBox="0 0 828 1024">
<title></title>
<g id="icomoon-ignore">
</g>
<path fill="#ce4e4e" d="M827.616 613.699c0 226.262-185.582 410.301-413.808 410.301s-413.808-184.039-413.808-410.301c0-101.278 37.313-194.139 98.893-265.819l-26.792-26.512-12.765 12.625c-6.015 6.009-14.321 9.725-23.496 9.725s-17.481-3.716-23.496-9.726v0c-5.935-5.918-9.607-14.103-9.607-23.145s3.672-17.227 9.606-23.144l0.001-0.001 72.662-71.961c6.023-5.934 14.296-9.599 23.426-9.599s17.403 3.664 23.43 9.603l-0.004-0.004c12.905 12.765 12.905 33.666 0 46.431l-12.905 12.625 26.652 26.652c44.98-38.252 99.041-67.306 158.41-83.49l2.905-0.675c-17.922-22.493-28.756-51.325-28.756-82.687 0-0.026 0-0.052 0-0.078v0.004c0-74.205 60.879-134.523 135.645-134.523s135.785 60.318 135.785 134.663c-0.025 31.406-10.91 60.264-29.102 83.028l0.206-0.266c60.318 15.851 115.025 45.028 161.315 84.024l26.652-26.652-12.905-12.625c-5.977-5.925-9.678-14.138-9.678-23.215s3.701-17.29 9.675-23.213l0.002-0.002c6.023-5.934 14.296-9.599 23.426-9.599s17.403 3.664 23.43 9.603l-0.004-0.004 72.662 71.961c12.905 12.765 12.905 33.666 0 46.29-6.008 5.967-14.286 9.656-23.426 9.656s-17.418-3.688-23.428-9.657l0.002 0.002-12.905-12.625-26.652 26.652c61.362 70.78 98.753 163.791 98.753 265.535 0 0.051 0 0.101 0 0.152v-0.008zM413.808 203.397c38.295 0 69.436-30.86 69.436-68.734 0-38.014-31.141-69.015-69.436-69.015-0.042 0-0.092 0-0.142 0-38.123 0-69.055 30.785-69.294 68.852v0.023c0 38.014 31.141 68.875 69.436 68.875zM761.267 613.699c0-189.931-155.704-344.513-347.459-344.513-191.614 0-347.459 154.582-347.459 344.513 0 190.071 155.704 344.653 347.459 344.653 191.614 0 347.459-154.582 347.459-344.653zM447.053 370.043v243.656c0 18.236-14.869 32.824-33.245 32.824-0.042 0-0.091 0-0.141 0-18.157 0-32.885-14.679-32.964-32.817v-243.664c0-18.236 14.869-32.824 33.105-32.824s33.105 14.729 33.105 32.824z"></path>
</svg>
