<!-- Generated by IcoMoon.io -->
<svg version="1.1" xmlns="http://www.w3.org/2000/svg" width="1024" height="1024" viewBox="0 0 1024 1024">
<title></title>
<g id="icomoon-ignore">
</g>
<path fill="#ed4d4d" d="M692 638c-11.044 0-20 8.954-20 20v138c0 55.14-44.86 100-100 100h-215.936c-11.042 0-19.992 8.946-20 19.986l-0.028 39.764-47.736-47.734c-3.090-7.094-10.162-12.016-18.342-12.016h-129.958c-55.14 0-100-44.86-100-100v-308c0-55.14 44.86-100 100-100h202c11.044 0 20-8.954 20-20s-8.956-20-20-20h-202c-77.196 0-140 62.804-140 140v308c0 77.196 62.804 140 140 140h119.716l82.142 82.142c3.826 3.826 8.94 5.858 14.146 5.858 2.574 0 5.172-0.498 7.642-1.52 7.474-3.092 12.348-10.38 12.354-18.466l0.048-68.014h195.952c77.196 0 140-62.804 140-140v-138c0-11.046-8.956-20-20-20z"></path>
<path fill="#ed4d4d" d="M733.31 0h-50.618c-160.288 0-290.692 130.404-290.692 290.692s130.404 290.69 290.69 290.69h50.618c25.018 0 49.78-3.178 73.78-9.458l74.774 74.732c3.826 3.822 8.938 5.854 14.142 5.854 2.578 0 5.178-0.498 7.652-1.524 7.472-3.096 12.344-10.388 12.344-18.476v-115.712c31.658-25.638 57.956-58.024 76.412-94.204 20.962-41.092 31.588-85.47 31.588-131.902 0-160.288-130.404-290.692-290.69-290.692zM883.966 491.070c-5.014 3.778-7.966 9.694-7.966 15.976v77.2l-48.942-48.916c-3.808-3.804-8.916-5.854-14.14-5.854-1.96 0-3.94 0.29-5.872 0.884-23.806 7.316-48.614 11.024-73.736 11.024h-50.618c-138.234 0-250.692-112.46-250.692-250.692s112.46-250.692 250.692-250.692h50.618c138.232 0 250.69 112.46 250.69 250.692 0 79.462-36.46 152.498-100.034 200.378z"></path>
<path fill="#ed4d4d" d="M798.066 218.842c-2.886-41.87-36.638-75.622-78.51-78.508-23.736-1.63-46.388 6.376-63.726 22.562-17.1 15.962-26.906 38.526-26.906 61.908 0 11.046 8.956 20 20 20s20-8.954 20-20c0-12.518 5.044-24.12 14.2-32.666 9.148-8.538 21.104-12.764 33.684-11.896 22.056 1.52 39.834 19.298 41.354 41.352 1.536 22.274-13.078 41.958-34.746 46.806-17.556 3.928-29.816 19.184-29.816 37.098v48.050c0 11.046 8.956 20 20 20 11.046 0 20-8.954 19.998-20v-46.452c40.3-9.736 67.338-46.612 64.468-88.254z"></path>
<path fill="#ed4d4d" d="M727.74 418.52c-3.72-3.72-8.88-5.86-14.14-5.86s-10.42 2.14-14.14 5.86c-3.72 3.72-5.86 8.88-5.86 14.14 0 5.28 2.142 10.44 5.86 14.16 3.72 3.72 8.88 5.84 14.14 5.84s10.42-2.12 14.14-5.84c3.72-3.74 5.86-8.88 5.86-14.16 0-5.26-2.142-10.42-5.86-14.14z"></path>
<path fill="#ed4d4d" d="M550 620h-422c-11.044 0-20 8.954-20 20s8.956 20 20 20h422c11.046 0 20-8.954 20-20s-8.956-20-20-20z"></path>
<path fill="#ed4d4d" d="M564.138 737.86c-3.718-3.72-8.878-5.86-14.138-5.86s-10.42 2.14-14.14 5.86c-3.722 3.72-5.86 8.88-5.86 14.14s2.14 10.42 5.86 14.14c3.72 3.72 8.88 5.86 14.14 5.86s10.42-2.14 14.138-5.86c3.722-3.72 5.862-8.86 5.862-14.14 0-5.26-2.142-10.42-5.862-14.14z"></path>
<path fill="#ed4d4d" d="M471.334 732h-343.334c-11.044 0-20 8.954-20 20s8.956 20 20 20h343.334c11.046 0 20-8.954 20-20s-8.956-20-20-20z"></path>
<path fill="#ed4d4d" d="M420 508h-292c-11.044 0-20 8.954-20 20s8.956 20 20 20h292c11.046 0 20-8.954 20-20s-8.956-20-20-20z"></path>
</svg>
