<!-- Generated by IcoMoon.io -->
<svg version="1.1" xmlns="http://www.w3.org/2000/svg" width="1024" height="1024" viewBox="0 0 1024 1024">
<title></title>
<g id="icomoon-ignore">
</g>
<path fill="#ce4e4e" d="M984.178 384.379c-33.781 54.273-73.418 100.847-118.959 140.863l-0.698 0.601c-11.757 10.050-24.083 19.342-36.409 28.065 16.111 38.233 25.473 82.678 25.473 129.31 0 188.304-152.65 340.954-340.954 340.954-46.734 0-91.272-9.403-131.826-26.419l2.247 0.836c-125.649-52.194-212.399-173.925-212.399-315.917 0-46.423 9.273-90.681 26.067-131.022l-0.833 2.258c-65.55-45.080-119.779-101.607-160.941-167.169l-1.382-2.36c-1.65-2.58-2.63-5.727-2.63-9.102s0.98-6.522 2.671-9.171l-0.041 0.069c28.444-45.511 62.578-87.23 101.262-124.397l-76.8-57.647 20.48-27.307 82.489 62.009c34.587-28.788 74.145-53.39 116.855-72.142l3.181-1.245-43.425-86.661 30.53-15.17 44.753 89.126c54.27-19.229 116.86-30.341 182.044-30.341v0-102.4h34.133v103.159c59.354 2.276 117.95 13.653 173.89 33.564l46.649-93.108 30.53 15.17-45.132 90.453c49.297 21.508 91.791 47.952 129.814 79.586l-0.866-0.701 80.593-70.353 22.376 25.6-77.179 67.508c35.646 33.725 66.848 71.559 93.016 112.895l1.419 2.4c1.65 2.58 2.63 5.727 2.63 9.102s-0.98 6.522-2.671 9.171l0.041-0.069zM273.067 874.572c19.814-4.269 46.673-8.666 73.859-12.011l5.027-0.504c-16.275-48.406-26.18-104.203-27.298-162.152l-0.008-0.55h-118.898c3.691 66.932 28.401 127.461 67.576 175.788l-0.447-0.57zM273.067 490.003c-38.795 47.739-63.57 108.266-67.283 174.42l-0.036 0.798h118.898c1.138-55.372 10.24-109.985 27.307-162.702-27.686-3.413-54.044-7.585-79.076-12.516zM364.468 469.523c12.542-29.674 28.605-55.226 48.093-77.731l-0.307 0.362c-41.719 14.412-80.024 37.736-111.881 68.267 20.48 3.603 41.908 6.637 64.095 9.102zM412.255 972.421c-19.178-22.144-35.242-47.696-47.073-75.482l-0.714-1.887c-22.187 2.465-43.615 5.499-64.284 9.102 30.981 29.652 68.316 52.943 109.732 67.603l2.15 0.663zM494.933 887.087c-32.237 0.379-63.526 1.896-94.056 4.361 24.652 51.769 57.458 87.23 94.056 95.763zM494.933 852.954v-153.6h-136.154c1.138 54.044 10.809 107.71 28.444 159.099 31.569-3.042 69.021-5.029 106.84-5.491l0.869-0.008zM494.933 511.621c-38.701-0.477-76.154-2.463-113.183-5.911l5.473 0.412c-16.859 47.243-27.175 101.762-28.434 158.515l-0.010 0.584h136.154zM494.933 377.363c-36.599 8.533-69.594 43.994-94.056 95.763 30.341 2.465 62.009 3.793 94.056 4.172zM623.123 891.449c-30.53-2.465-62.009-3.793-94.056-4.361v100.124c36.599-8.533 69.594-43.994 94.056-95.763zM529.067 377.363v99.935c32.237-0.379 63.526-1.896 94.056-4.172-24.652-51.769-57.458-87.23-94.056-95.763zM659.532 469.523c27.044-2.979 48.992-6.185 70.712-10.050l-6.428 0.948c-30.984-29.647-68.318-52.937-109.731-67.603l-2.151-0.664c19.721 23.135 36.030 49.304 47.597 77.369zM529.067 511.431v153.6h136.154c-1.291-57.276-11.605-111.726-29.57-162.564l1.125 3.654c-34.702 3.224-70.921 4.93-107.71 5.31zM529.067 699.164v153.79c36.788 0.569 73.007 2.276 107.71 5.499 17.636-51.2 27.307-105.055 28.444-159.289zM723.816 903.964c-15.361-2.878-37.321-6.020-59.486-8.48l-4.798-0.433c-12.548 29.673-28.611 55.224-48.095 77.733l0.308-0.364c43.565-15.324 80.901-38.614 111.994-68.374l-0.113 0.107zM818.252 699.164h-118.898c-1.138 55.372-10.24 110.364-27.307 162.892 27.686 3.224 54.044 7.585 79.076 12.516 38.728-47.756 63.438-108.286 67.094-174.43l0.035-0.788zM699.354 665.221h118.898c-3.691-66.932-28.401-127.461-67.576-175.788l0.447 0.57c-25.031 4.93-51.39 9.102-79.076 12.516 17.067 52.527 26.169 107.33 27.307 162.702zM949.476 375.087c-100.883-153.979-259.793-238.744-449.043-238.744-186.216 0-327.68 78.317-431.976 238.933 38.143 58.462 85.491 107.441 140.542 146.22l1.68 1.123c16.877-31.668 38.495-60.492 64.474-85.333-1.225-8.913-1.924-19.213-1.924-29.676 0-18.942 2.291-37.349 6.612-54.958l-0.327 1.576 33.185 7.775c-3.793 15.55-5.499 31.479-5.499 47.407v0.569c56.206-42.993 127.479-68.889 204.8-68.889s148.593 25.896 205.617 69.489l-0.817-0.6v-0.569c0-42.287-13.274-83.437-37.736-117.95-7.555 19.445-26.121 32.977-47.847 32.977-28.277 0-51.2-22.923-51.2-51.2 0-19.41 10.801-36.297 26.72-44.98l0.268-0.134c-27.64-14.852-60.48-23.579-95.357-23.579-84.626 0-157.253 51.376-188.392 124.64l-0.506 1.339-31.289-13.084c37.323-86.267 121.701-145.532 219.921-145.532 131.959 0 238.933 106.974 238.933 238.933 0 9.317-0.533 18.51-1.571 27.549l0.103-1.104c25.284 24.397 46.753 52.518 63.577 83.527l0.897 1.806c9.861-7.206 19.532-14.791 28.824-22.756 41.121-36.018 76.61-76.993 105.953-122.316l1.377-2.27zM631.467 255.81c-9.426 0-17.067 7.641-17.067 17.067s7.641 17.067 17.067 17.067v0c9.426 0 17.067-7.641 17.067-17.067s-7.641-17.067-17.067-17.067v0zM34.133 921.031h34.133v34.133h-34.133zM34.133 989.298h34.133v34.133h-34.133zM68.267 955.164h34.133v34.133h-34.133zM0 955.164h34.133v34.133h-34.133zM955.733 921.031h34.133v34.133h-34.133zM955.733 989.298h34.133v34.133h-34.133zM989.867 955.164h34.133v34.133h-34.133zM921.6 955.164h34.133v34.133h-34.133z"></path>
</svg>
