<!-- Generated by IcoMoon.io -->
<svg version="1.1" xmlns="http://www.w3.org/2000/svg" width="1024" height="1024" viewBox="0 0 1024 1024">
<title></title>
<g id="icomoon-ignore">
</g>
<path fill="#ce4e4e" d="M1024 34.181v256c0 0.005 0 0.012 0 0.018 0 9.399-7.619 17.019-17.019 17.019-4.74 0-9.027-1.938-12.113-5.064l-73.268-73.268-39.229 39.374c46.736 69.154 74.607 154.395 74.607 246.145 0 244.855-198.494 443.349-443.349 443.349-141.55 0-267.606-66.336-348.777-169.616l-0.723-0.955-50.479 44.71c-3.019 2.698-7.025 4.347-11.416 4.347-5.242 0-9.934-2.35-13.082-6.053l-0.020-0.024-85.093-102.4c-6.057-7.211-5.192-17.74 1.875-23.797l79.757-69.517c-11.115-36.934-17.512-79.377-17.512-123.314 0-244.616 198.3-442.916 442.916-442.916 0.326 0 0.652 0 0.977 0.001h-0.051c0.314-0.001 0.685-0.001 1.056-0.001 99.115 0 190.549 32.888 263.984 88.348l-1.108-0.802 36.201-36.345-73.266-73.266c-3.129-3.088-5.067-7.375-5.067-12.116 0-9.399 7.619-17.019 17.019-17.019 0.057 0 0.115 0 0.172 0.001h255.991c9.375 0 17.019 7.644 17.019 17.163zM168.023 290.181h113.505c4.779 0 8.654-3.874 8.654-8.654v0-51.2c0.082-23.465 19.082-42.465 42.539-42.546h17.171c0 0 0 0 0 0 23.527 0 42.608 19.031 42.69 42.539v0.008c0 4.759 3.75 8.654 8.509 8.654h68.219c4.779 0 8.654-3.874 8.654-8.654v0-34.037c0 0 0 0 0 0 0-23.527 19.031-42.608 42.539-42.69h68.227c4.779 0 8.654-3.874 8.654-8.654v0-33.316c-25.609-5.695-55.021-8.958-85.196-8.958-143.686 0-270.092 73.985-343.2 185.938l-0.963 1.571zM103.986 477.819h58.123c0 0 0.001 0 0.001 0 4.728 0 8.571-3.793 8.652-8.502v-0.008c0 0 0 0 0 0 0-23.527 19.031-42.608 42.539-42.69h17.027c0 0 0.001 0 0.001 0 4.728 0 8.571-3.793 8.652-8.502v-17.027c0-4.779-3.874-8.654-8.654-8.654v0h-110.188c-7.852 24.893-13.579 53.943-16.056 83.914l-0.098 1.467zM102.4 512c0 32.883 4.038 65.623 11.826 97.641l284.124-247.058c6.779-5.769 17.019-5.481 23.365 0.865l73.266 73.266 256.433-256.577c-34.337-25.187-74.198-45.537-117.125-58.937l-2.87-0.772v24.518c0 0.043 0 0.094 0 0.144 0 23.577-19.113 42.691-42.691 42.691 0 0 0 0 0 0h-68.219c0 0-0.001 0-0.001 0-4.728 0-8.571 3.793-8.652 8.502v34.045c0 0 0 0 0 0 0 23.527-19.031 42.608-42.539 42.69h-68.227c-23.577 0-42.691-19.113-42.691-42.691v0c-0.081-4.717-3.924-8.509-8.652-8.509 0 0-0.001 0-0.001 0h-17.019c-4.717 0.081-8.509 3.924-8.509 8.652 0 0 0 0.001 0 0.001v0 51.056c0 23.577-19.113 42.691-42.691 42.691v0h-133.408c-5.769 11.105-10.961 22.499-15.865 34.181h98.073c23.577 0 42.691 19.113 42.691 42.691v17.019c0 23.577-19.113 42.691-42.691 42.691v0h-17.019c-4.779 0-8.654 3.874-8.654 8.654v0c-0.082 23.465-19.082 42.465-42.539 42.546h-0.008zM392.581 802.181h68.219c9.375 0 17.019-7.644 17.019-17.163v-34.037c0-4.471-1.731-8.654-4.904-11.826-3.033-3.255-7.332-5.296-12.108-5.336h-0.007c-28.211-0.163-51.037-22.989-51.2-51.184v-0.016c0-9.375-7.644-17.019-17.019-17.019h-91.727l-111.054 98.794c32.883 41.825 73.555 77.016 119.851 103.41 9.23-38.508 43.412-65.623 82.93-65.623zM855.977 733.819h-250.087c-0.335-0.046-0.722-0.072-1.115-0.072-4.779 0-8.654 3.874-8.654 8.654s3.874 8.654 8.654 8.654c0.393 0 0.78-0.026 1.159-0.077l-0.044 0.005h42.691c28.277 0 51.2 22.923 51.2 51.2s-22.923 51.2-51.2 51.2v0h-51.2c-41.064 0.052-75.343 29.036-83.551 67.659l-0.1 0.56c143.002-0.755 268.576-74.674 341.283-186.204l0.964-1.577zM912.658 597.381h-195.858c-28.277 0-51.2-22.923-51.2-51.2s22.923-51.2 51.2-51.2v0h59.709c13.326-1.031 23.749-12.098 23.749-25.6s-10.423-24.569-23.661-25.595l-0.088-0.005h-69.661l-199.896 199.752c-6.634 6.634-17.307 6.634-24.086 0l-73.988-73.988-69.661 62.017h53.363c0 0 0 0 0 0 28.226 0 51.118 22.841 51.2 51.048v0.008c0 4.471 1.731 8.654 4.904 11.826 3.029 3.461 7.5 5.336 12.115 5.336 28.268 0 51.056 22.932 51.2 51.2v34.037c0 28.277-22.923 51.2-51.2 51.2v0h-68.219c-27.062 0.025-49.193 21.1-50.904 47.733l-0.008 0.15c40.228 18.967 86.994 31.821 136.24 35.955l1.495 0.101c9.309-57.503 58.566-100.891 117.969-100.958h51.207c9.439 0 17.091-7.652 17.091-17.091s-7.652-17.091-17.091-17.091v0h-42.835c-0.741 0.046-1.608 0.072-2.48 0.072-23.577 0-42.691-19.113-42.691-42.691s19.113-42.691 42.691-42.691c0.873 0 1.739 0.026 2.599 0.078l-0.118-0.006h269.99c15.686-29.507 28.367-63.712 36.28-99.705l0.497-2.695zM898.091 375.419h-123.024l-34.181 34.181h35.624c32.977 0 59.709 26.733 59.709 59.709s-26.733 59.709-59.709 59.709h-59.709c-4.327 0-8.654 1.731-11.826 4.904-3.217 3.101-5.214 7.447-5.214 12.259 0 9.399 7.619 17.019 17.019 17.019 0.008 0 0.015 0 0.023 0h201.482c2.112-15.57 3.318-33.566 3.318-51.844 0-46.693-7.869-91.549-22.352-133.313l0.862 2.856-2.019-5.481zM857.708 292.777l-48.46 48.604h74.853c-8.794-19.059-17.596-34.996-27.377-50.243l0.984 1.639zM989.819 51.2h-197.589l56.104 56.248c6.634 6.634 6.634 17.307 0 24.086l-341.381 341.381c-6.634 6.634-17.307 6.634-24.086 0l-74.132-74.132-367.775 319.892 63.315 76.007 293.931-261.336c6.779-5.913 17.019-5.769 23.509 0.721l73.266 73.266 414.504-414.648c3.088-3.128 7.375-5.066 12.115-5.066s9.027 1.938 12.113 5.064l56.25 56.25zM904.581 938.619h34.037v34.181h-34.037zM989.819 989.819h34.181v34.181h-34.181zM955.781 853.381h34.037v34.037h-34.037zM819.2 989.819h34.181v34.181h-34.181zM989.819 750.981h34.181v34.037h-34.181zM0 0h34.181v34.181h-34.181zM85.381 34.181h34.037v34.037h-34.037zM17.019 102.4h34.181v34.181h-34.181zM187.781 0h34.037v34.181h-34.037zM85.381 136.581h34.037v34.037h-34.037zM0 204.8h34.181v34.181h-34.181z"></path>
</svg>
