<!-- Generated by IcoMoon.io -->
<svg version="1.1" xmlns="http://www.w3.org/2000/svg" width="1024" height="1024" viewBox="0 0 1024 1024">
<title></title>
<g id="icomoon-ignore">
</g>
<path fill="#ce4e4e" d="M1024 150.007c0 82.639-67.368 150.007-150.007 150.007h-89.825v573.979c0 82.639-67.548 150.007-150.187 150.007h-483.975c-82.174-1.009-148.4-67.859-148.4-150.176 0-71.684 50.221-131.638 117.399-146.597l1-0.187v-78.507l-60.003 30.001v-228.693c-36.62-27.621-60.045-71.049-60.045-119.947 0-72.85 51.993-133.557 120.897-147.037l0.947-0.154c14.054-103.598 101.892-182.614 208.204-182.703h543.987c82.639 0 150.007 67.368 150.007 150.007zM150.007 420.020c1.174 0.055 2.55 0.086 3.933 0.086 49.807 0 90.184-40.377 90.184-90.184s-40.377-90.184-90.184-90.184c-1.447 0-2.885 0.034-4.315 0.101l0.202-0.008c-48.006 2.259-86.071 41.729-86.071 90.090 0 48.424 38.165 87.934 86.056 90.091l0.194 0.007zM150.007 480.022c-10.24 0-20.3-1.078-30.001-3.054v104.556l30.001-15.091 30.001 15.091v-104.556c-9.701 1.976-19.761 3.054-30.001 3.054zM484.154 873.993c0-33.774 11.138-65.033 30.001-90.184h-364.149c-48.045 2.212-86.16 41.702-86.16 90.094s38.115 87.882 85.961 90.087l0.198 0.007h364.149c-18.837-24.699-30.181-55.996-30.181-89.942 0-0.022 0-0.044 0-0.065v0.003zM754.167 59.823h-424.152c-73.512 0.164-134.623 53.055-147.529 122.852l-0.142 0.926c67.502 15.663 117.041 75.288 117.041 146.483 0 48.736-23.214 92.050-59.188 119.489l-0.366 0.268v228.693l-59.823-30.001v75.453h453.973v60.003c-0.053 0-0.116 0-0.179 0-49.807 0-90.184 40.377-90.184 90.184s40.377 90.184 90.184 90.184c49.807 0 90.184-40.377 90.184-90.184 0-0.063 0-0.126 0-0.189v0.010-723.986c0-33.774 11.138-65.033 30.181-90.184zM963.997 150.007c-3.081-47.298-42.199-84.494-90.004-84.494s-86.923 37.196-89.99 84.226l-0.014 0.268v89.825h90.004c49.604-0.102 89.8-40.235 90.004-89.805v-0.019zM360.017 239.832h243.964v60.182h-243.964zM360.017 360.017h243.964v60.003h-243.964zM360.017 480.022h243.964v60.003h-243.964zM360.017 600.028h243.964v60.003h-243.964z"></path>
</svg>
