<!-- Generated by IcoMoon.io -->
<svg version="1.1" xmlns="http://www.w3.org/2000/svg" width="1024" height="1024" viewBox="0 0 1024 1024">
<title></title>
<g id="icomoon-ignore">
</g>
<path fill="#ed4d4d" d="M682.666 563.2c-56.474 0-102.4 45.926-102.4 102.4s45.926 102.4 102.4 102.4c56.474 0 102.4-45.926 102.4-102.4s-45.926-102.4-102.4-102.4zM682.666 733.866c-37.65 0-68.266-30.618-68.266-68.266 0-37.65 30.618-68.266 68.266-68.266 37.65 0 68.266 30.618 68.266 68.266 0.002 37.65-30.616 68.266-68.266 68.266z"></path>
<path fill="#ed4d4d" d="M716.8 733.866v70.52l-24.678-16.452c-5.734-3.84-13.192-3.84-18.928 0l-24.662 16.452v-70.52h-34.132v102.4c0 6.298 3.464 12.084 9.028 15.052 5.53 2.97 12.288 2.628 17.51-0.854l41.728-27.818 41.728 27.818c2.85 1.894 6.162 2.868 9.472 2.868 2.764 0 5.53-0.666 8.056-2.014 5.546-2.97 9.012-8.756 9.012-15.052v-102.4h-34.134z"></path>
<path fill="#ed4d4d" d="M392.534 170.666h221.866v34.134h-221.866v-34.134z"></path>
<path fill="#ed4d4d" d="M238.934 273.066h546.134v34.134h-546.134v-34.134z"></path>
<path fill="#ed4d4d" d="M238.934 375.466h375.466v34.134h-375.466v-34.134z"></path>
<path fill="#ed4d4d" d="M682.666 375.466h102.4v34.134h-102.4v-34.134z"></path>
<path fill="#ed4d4d" d="M238.934 477.866h546.134v34.134h-546.134v-34.134z"></path>
<path fill="#ed4d4d" d="M238.934 580.266h204.8v34.134h-204.8v-34.134z"></path>
<path fill="#ed4d4d" d="M238.934 665.6h85.334v34.134h-85.334v-34.134z"></path>
<path fill="#ed4d4d" d="M392.534 665.6h51.2v34.134h-51.2v-34.134z"></path>
<path fill="#ed4d4d" d="M938.666 0c-47.052 0-85.334 38.28-85.334 85.334v34.134c0 9.42 7.628 17.066 17.066 17.066h136.534c9.438 0 17.066-7.646 17.066-17.066v-34.134c0.002-47.054-38.278-85.334-85.332-85.334zM989.866 102.4h-102.4v-17.066c0-28.228 22.972-51.2 51.2-51.2s51.2 22.972 51.2 51.2v17.066z"></path>
<path fill="#ed4d4d" d="M938.666 0h-716.8c-47.052 0-85.332 38.28-85.332 85.334v819.2h34.134v-819.2c0-28.228 22.972-51.2 51.2-51.2h648.568c-10.734 14.268-17.1 32-17.1 51.2v853.334c0 28.228-22.972 51.2-51.2 51.2h-648.536v34.132h648.534c47.052 0 85.334-38.28 85.334-85.334v-853.332c0-28.228 22.972-51.2 51.2-51.2 9.438 0 17.066-7.646 17.066-17.066s-7.63-17.068-17.068-17.068z"></path>
<path fill="#ed4d4d" d="M802.134 989.866c-28.228 0-51.2-22.972-51.2-51.2v-34.134c0-9.438-7.628-17.066-17.066-17.066h-716.802c-9.42 0-17.066 7.628-17.066 17.066v34.134c0 47.054 38.28 85.334 85.334 85.334h716.8c9.438 0 17.066-7.628 17.066-17.066s-7.628-17.068-17.066-17.068zM85.334 989.866c-28.228 0-51.2-22.972-51.2-51.2v-17.066h682.666v17.066c0 19.2 6.366 36.932 17.1 51.2h-648.566z"></path>
</svg>
