<!-- Generated by IcoMoon.io -->
<svg version="1.1" xmlns="http://www.w3.org/2000/svg" width="1039" height="1024" viewBox="0 0 1039 1024">
<title></title>
<g id="icomoon-ignore">
</g>
<path fill="#ce4e4e" d="M868.645 753.81c-0.265 0.243-0.551 0.482-0.847 0.709l-0.030 0.022-304.713 265.216c-3.072 2.633-7.168 4.242-11.264 4.242h-87.040c-2.048 0-4.096-0.293-5.998-1.024l-273.115-101.376h-185.637v-34.085h188.562c2.048 0 3.95 0.439 5.851 1.17l273.408 101.23h77.531l286.427-249.125-34.231-35.547-249.125 182.272c-5.12 3.511-11.703 4.242-17.262 1.755l-190.025-87.040c-6.256-2.594-10.576-8.652-10.576-15.719 0-9.372 7.597-16.969 16.969-16.969 0.945 0 1.872 0.077 2.775 0.226l-0.098-0.013 92.16 9.801 63.342-7.899v-42.423h-71.826l-140.727-14.19-97.426 42.423c-2.194 1.024-4.535 1.463-6.875 1.463h-188.855v-34.231h185.198l98.45-41.838c2.633-1.317 5.559-1.755 8.485-1.463l144.384 14.629h85.577c9.509 0 17.115 7.753 17.115 17.115v73.728c0 8.777-6.29 16.091-15.067 16.969l-78.555 8.777 89.527 41.984 253.074-185.637c2.795-2.031 6.296-3.25 10.081-3.25 4.814 0 9.168 1.971 12.299 5.149l0.002 0.002 58.075 58.807c6.729 6.729 6.729 17.554 0 24.137zM1028.096 426.862v34.085h-121.125c-4.681 0-9.070-1.902-12.288-5.266l-91.136-95.086-177.298-15.945h-47.25c-17.838 76.943-85.795 133.414-166.941 133.414-0.247 0-0.494-0.001-0.74-0.002h0.038c-0.087 0-0.19 0-0.293 0-94.291 0-170.758-76.313-171.007-170.546v-0.024c0-85.723 63.342-156.526 145.993-168.814l186.661-135.022c3.95-3.072 9.070-4.389 14.043-3.218l291.255 68.169c2.487 0.585 4.681 1.463 6.583 3.072l154.185 119.515-20.919 27.355-151.259-117.029-279.991-65.682-143.653 103.863c16.384 3.218 32.183 8.485 46.811 16.091l102.4-51.2c4.389-1.902 9.655-1.902 14.043 0l85.723 34.231-12.727 31.744-78.409-32.037-78.409 38.912c15.214 12.873 28.233 28.526 38.327 46.373l63.927-13.166c1.054-0.283 2.263-0.446 3.511-0.446s2.457 0.163 3.609 0.468l-0.098-0.022 94.208 20.919 88.064-9.362 4.096 34.085-90.99 10.825c-1.902 0.293-3.803 0.293-5.851 0l-93.623-20.919-66.853 13.458-3.511 51.2h70.656l185.051 17.115c4.242 0.293 8.046 2.194 10.971 5.266l90.551 93.623zM538.77 344.649c-0.007 0-0.015 0-0.023 0-9.453 0-17.115-7.663-17.115-17.115 0-0.309 0.008-0.616 0.024-0.92l-0.002 0.043 5.413-83.090c0.146-2.341 0.731-4.535 1.755-6.437-24.523-40.004-68.006-66.287-117.627-66.287-20.736 0-40.399 4.59-58.030 12.808l0.846-0.354c-47.459 21.975-79.789 69.194-79.789 123.964 0 20.674 4.607 40.273 12.85 57.825l-0.352-0.833c22.385 47.286 69.71 79.41 124.539 79.41 62.198 0 114.74-41.339 131.651-98.040l0.249-0.972zM480.256 343.186c-0.439 27.355-27.794 49.591-62.903 49.591h-12.288c-34.231 0-62.318-22.235-62.318-50.322v-4.535h34.231v4.535c0 7.607 11.995 16.091 28.087 16.091h12.434c16.091 0 28.087-8.485 28.087-16.091s-8.046-13.751-21.943-15.799l-29.55-4.389c-26.868-1.551-48.446-22.273-51.325-48.615l-0.022-0.244c0-25.893 21.943-46.373 51.346-50.469v-17.847h34.377v17.847c29.55 4.096 51.346 24.576 51.346 50.469v4.535h-34.231v-4.535c0-7.753-11.995-16.238-28.087-16.238h-12.434c-16.091-0.878-28.087 7.607-28.087 16.091 0 8.631 8.046 13.897 21.797 16.091l30.135 4.389c27.092 1.601 48.789 22.693 51.329 49.37l0.017 0.22z"></path>
</svg>
