<!-- Generated by IcoMoon.io -->
<svg version="1.1" xmlns="http://www.w3.org/2000/svg" width="1024" height="1024" viewBox="0 0 1024 1024">
<title></title>
<g id="icomoon-ignore">
</g>
<path fill="#ce4e4e" d="M187.733 136.533c0 28.277-22.923 51.2-51.2 51.2s-51.2-22.923-51.2-51.2v0c0-28.277 22.923-51.2 51.2-51.2s51.2 22.923 51.2 51.2v0zM153.6 136.533c0-9.426-7.641-17.067-17.067-17.067s-17.067 7.641-17.067 17.067v0c0 9.426 7.641 17.067 17.067 17.067s17.067-7.641 17.067-17.067v0zM273.067 120.491v32.085c0 0.010 0 0.022 0 0.034 0 6.692-3.851 12.484-9.458 15.281l-0.099 0.045-20.651 10.24-1.877 4.267 6.827 21.163c0.503 1.538 0.794 3.307 0.794 5.144 0 3.926-1.326 7.542-3.554 10.426l0.029-0.039c-7.546 9.857-16.084 18.395-25.616 25.702l-0.325 0.239c-2.844 2.199-6.46 3.524-10.386 3.524-1.837 0-3.607-0.29-5.265-0.828l0.121 0.034-21.163-6.827-4.437 1.707-10.24 20.821c-2.842 5.706-8.634 9.557-15.326 9.557-0.012 0-0.024 0-0.036 0h-31.913c-0.010 0-0.022 0-0.034 0-6.692 0-12.484-3.851-15.281-9.458l-0.045-0.099-10.24-20.651c-2.022-0.818-3.427-1.448-4.812-2.113l0.545 0.236-21.163 6.827c-1.538 0.503-3.307 0.794-5.144 0.794-3.926 0-7.542-1.326-10.426-3.554l0.039 0.029c-9.854-7.549-18.392-16.087-25.702-25.616l-0.24-0.325c-2.176-2.835-3.487-6.433-3.487-10.337 0-1.793 0.276-3.521 0.789-5.144l-0.033 0.121 6.827-21.333c-0.339-0.664-0.971-2.126-1.575-3.603l-0.302-0.835-20.651-10.24c-5.706-2.842-9.557-8.634-9.557-15.326 0-0.012 0-0.024 0-0.036v0.002-31.915c0-0.010 0-0.022 0-0.034 0-6.692 3.851-12.484 9.458-15.281l0.099-0.045 20.651-10.24 1.707-4.267-6.656-21.163c-0.503-1.538-0.794-3.307-0.794-5.144 0-3.926 1.326-7.542 3.554-10.426l-0.029 0.039c7.339-9.728 16.213-18.432 25.941-25.941 2.835-2.176 6.433-3.487 10.337-3.487 1.793 0 3.521 0.276 5.144 0.789l-0.121-0.033 21.333 6.827c1.365-0.683 2.901-1.365 4.437-1.707l10.24-20.821c2.822-5.666 8.551-9.502 15.182-9.557h32.092c0.010 0 0.022 0 0.034 0 6.692 0 12.484 3.851 15.281 9.458l0.045 0.099 10.24 20.651 4.267 1.877 21.163-6.827c1.538-0.503 3.307-0.794 5.144-0.794 3.926 0 7.542 1.326 10.426 3.554l-0.039-0.029c9.728 7.509 18.432 16.213 25.941 25.941 3.413 4.437 4.267 10.24 2.56 15.36l-6.827 21.333c0.853 1.365 1.365 2.901 2.048 4.437l20.651 10.24c5.706 2.842 9.557 8.634 9.557 15.326 0 0.012 0 0.024 0 0.036v-0.002zM238.933 131.072l-17.408-8.533c-4.153-2.098-7.278-5.723-8.671-10.119l-0.033-0.121c-1.581-4.9-3.373-9.078-5.497-13.051l0.206 0.422c-1.232-2.3-1.955-5.032-1.955-7.932 0-1.798 0.278-3.532 0.794-5.159l-0.033 0.121 5.973-18.773c-2.296-2.533-4.635-4.872-7.083-7.092l-0.085-0.076-18.773 5.973c-1.507 0.483-3.24 0.761-5.038 0.761-2.901 0-5.632-0.724-8.024-2l0.092 0.045c-3.595-1.916-7.83-3.709-12.232-5.132l-0.568-0.159c-4.517-1.426-8.142-4.551-10.195-8.607l-0.045-0.097-8.533-17.408h-10.752l-8.533 17.408c-2.098 4.153-5.723 7.278-10.119 8.671l-0.121 0.033c-4.267 1.365-8.533 3.072-12.629 5.12-2.351 1.3-5.154 2.064-8.136 2.064-1.723 0-3.387-0.255-4.955-0.73l0.121 0.031-18.773-5.973c-2.56 2.219-5.12 4.608-7.339 7.168l5.973 18.773c0.523 1.566 0.825 3.37 0.825 5.244 0 2.819-0.684 5.479-1.894 7.822l0.045-0.095c-1.918 3.552-3.71 7.73-5.133 12.074l-0.157 0.555c-1.426 4.517-4.551 8.142-8.607 10.195l-0.097 0.045-17.408 8.533v10.923l17.408 8.533c4.084 2.131 7.147 5.75 8.501 10.119l0.032 0.121c1.707 4.267 3.413 8.533 5.461 12.459 1.187 2.265 1.883 4.948 1.883 7.794 0 1.912-0.315 3.751-0.895 5.468l0.035-0.12-5.973 18.773c2.389 2.56 4.779 4.949 7.339 7.168l18.773-5.973c4.267-1.365 8.875-0.853 12.971 1.195s8.363 3.925 12.629 5.12c4.543 1.465 8.176 4.653 10.195 8.774l0.045 0.101 8.533 17.408h10.752l8.533-17.408c2.098-4.153 5.723-7.278 10.119-8.671l0.121-0.033c4.437-1.365 8.533-3.243 12.8-5.291 2.3-1.232 5.032-1.955 7.932-1.955 1.798 0 3.532 0.278 5.159 0.794l-0.121-0.033 18.773 5.973c2.56-2.219 4.949-4.608 7.168-7.168l-5.973-18.773c-0.483-1.507-0.761-3.24-0.761-5.038 0-2.901 0.724-5.632 2-8.024l-0.045 0.092c2.048-4.096 3.925-8.363 5.12-12.8 1.465-4.543 4.653-8.176 8.774-10.195l0.101-0.045 17.408-8.533zM253.952 529.579l-104.96 113.493c-3.128 3.383-7.59 5.494-12.544 5.494s-9.416-2.111-12.534-5.483l-0.010-0.011-104.96-113.493c-11.766-13.059-18.963-30.436-18.963-49.493s7.197-36.434 19.022-49.56l-0.059 0.066c11.808-12.909 28.728-20.975 47.531-20.975s35.722 8.066 47.486 20.926l0.044 0.049 22.528 24.405 22.357-24.235c11.785-12.957 28.712-21.058 47.531-21.058s35.746 8.101 47.484 21.006l0.047 0.052c11.72 13.047 18.887 30.391 18.887 49.408s-7.167 36.361-18.947 49.477l0.061-0.069zM228.864 453.973c-5.527-6.193-13.532-10.073-22.443-10.073s-16.916 3.88-22.417 10.044l-0.026 0.029-34.987 37.717v0.171c-6.997 6.827-18.261 6.827-25.088 0l-34.987-37.888-2.731-2.901c-5.219-4.569-12.098-7.355-19.628-7.355-8.973 0-17.022 3.957-22.497 10.222l-0.030 0.035c-6.218 6.916-10.021 16.113-10.021 26.197s3.803 19.281 10.053 26.233l-0.032-0.036 92.501 100.011 92.331-100.011c6.218-6.916 10.021-16.113 10.021-26.197s-3.803-19.281-10.053-26.233l0.032 0.036zM269.824 829.269l-136.533 187.733c-3.139 4.284-8.152 7.035-13.807 7.035-3.574 0-6.891-1.099-9.633-2.976l0.058 0.038-102.4-68.267 18.944-28.331 88.747 59.221 126.976-174.592zM307.2 494.933h51.2v34.133h-51.2zM558.080 523.947l-68.267 68.267-23.893-23.893 38.912-39.253h-78.165v375.467h-34.133v-785.067h34.133v375.467h78.165l-39.083-39.253 24.235-23.893 68.267 68.267c3.017 3.076 4.879 7.294 4.879 11.947s-1.862 8.871-4.881 11.949l0.003-0.003zM853.333 426.667c0 47.128-38.205 85.333-85.333 85.333s-85.333-38.205-85.333-85.333v0c0-47.128 38.205-85.333 85.333-85.333s85.333 38.205 85.333 85.333v0zM819.2 426.667c0-28.277-22.923-51.2-51.2-51.2s-51.2 22.923-51.2 51.2v0c0 28.277 22.923 51.2 51.2 51.2s51.2-22.923 51.2-51.2v0zM1020.587 838.827c-3.15 4.101-8.055 6.718-13.571 6.718-3.898 0-7.49-1.307-10.363-3.505l0.041 0.030-75.093-56.832v119.296c0 9.426-7.641 17.067-17.067 17.067-7.723 0-14.247-5.129-16.353-12.167l-0.031-0.121-82.944-282.112c-2.731-1.365-5.12-3.072-7.339-5.12l-30.72-29.525-29.184 29.525c-2.085 2.011-4.439 3.766-6.996 5.202l-0.172 0.089-82.944 281.941c-2.137 7.159-8.661 12.288-16.384 12.288-9.426 0-17.067-7.641-17.067-17.067v-118.443l-75.776 51.371c-2.694 1.862-6.031 2.975-9.628 2.975-9.426 0-17.067-7.641-17.067-17.067 0-2.763 0.656-5.372 1.822-7.681l-0.045 0.098 123.221-250.197-3.755 0.512c-11.947 1.365-23.552-3.584-30.549-13.312-4.268-5.713-6.833-12.915-6.833-20.715 0-5.039 1.070-9.828 2.996-14.151l-0.088 0.221 17.408-39.765-36.352-22.187c-10.055-6.183-16.659-17.126-16.659-29.611s6.604-23.427 16.509-29.525l0.15-0.086 36.523-21.504-17.579-40.277c-5.12-11.435-3.413-24.747 3.925-34.645 6.997-9.728 18.773-14.848 30.72-13.312l41.301 5.12 8.363-43.179c2.219-11.947 10.923-22.016 22.528-25.771 11.435-3.584 23.893-0.683 32.427 7.68l30.72 29.696 29.184-29.525c8.704-8.533 21.333-11.435 32.939-7.851 11.947 3.755 20.48 13.824 22.869 26.112l8.192 42.667 40.789-4.949c11.947-1.536 23.552 3.584 30.549 13.312 7.339 9.899 8.875 23.211 3.925 34.645l-17.408 39.765 36.352 22.187c10.055 6.183 16.659 17.126 16.659 29.611s-6.604 23.427-16.509 29.525l-0.15 0.086-36.523 21.333 17.579 40.448c5.12 11.435 3.413 24.576-3.925 34.645-6.997 9.728-18.773 14.677-30.72 13.312l-3.755-0.512 123.563 255.488c1.090 2.185 1.727 4.759 1.727 7.482 0 3.873-1.29 7.446-3.465 10.31l0.031-0.042zM695.808 625.152c-6.97-5.033-11.918-12.492-13.618-21.117l-0.036-0.216-7.339-37.888-101.888 207.189 48.981-33.28c2.68-1.833 5.991-2.927 9.557-2.927 9.426 0 17.067 7.641 17.067 17.067 0 0.009 0 0.018 0 0.027v-0.001 31.915zM865.28 527.189l41.472 5.12-18.261-40.277c-1.891-4.143-2.993-8.987-2.993-14.087 0-12.48 6.599-23.418 16.497-29.517l0.15-0.086 36.352-21.333-36.181-22.187c-10.113-6.131-16.768-17.078-16.768-29.58 0-5.046 1.084-9.838 3.032-14.157l-0.088 0.217 17.408-39.765-40.619 4.608c-1.099 0.127-2.372 0.199-3.662 0.199-16.44 0-30.137-11.739-33.168-27.292l-0.035-0.213-8.192-42.837-29.355 29.355c-12.8 12.459-33.109 12.459-45.909 0l-29.013-27.819-8.533 41.472c-2.975 15.678-16.569 27.372-32.894 27.372-1.399 0-2.778-0.086-4.132-0.253l0.162 0.016-41.472-5.12 18.261 40.277c7.168 15.872 1.195 34.645-13.653 43.691l-36.523 21.333 36.352 22.187c15.019 8.875 20.992 27.477 13.824 43.52l-17.408 39.765 40.619-4.608c17.579-1.877 33.621 10.069 36.864 27.307l8.192 42.837 29.355-29.355c5.925-5.762 14.025-9.316 22.955-9.316s17.029 3.553 22.962 9.323l-0.008-0.007 30.72 29.525 6.827-43.008c3.065-15.766 16.763-27.506 33.202-27.506 1.29 0 2.563 0.072 3.816 0.213l-0.154-0.014zM960.683 772.096l-100.181-207.36-6.827 39.083c-1.777 8.775-6.717 16.168-13.552 21.093l-0.101 0.069 47.445 161.109v-35.157c0-9.426 7.641-17.067 17.067-17.067 3.861 0 7.423 1.282 10.283 3.444l-0.043-0.031zM307.029 102.4h51.2v34.133h-51.2zM307.029 887.467h51.2v34.133h-51.2z"></path>
</svg>
