<!-- Generated by IcoMoon.io -->
<svg version="1.1" xmlns="http://www.w3.org/2000/svg" width="1024" height="1024" viewBox="0 0 1024 1024">
<title></title>
<g id="icomoon-ignore">
</g>
<path fill="#fff" d="M823.372 75.093c23.893 0 47.597 9.102 65.612 27.117l32.806 32.806c16.76 16.806 27.124 39.999 27.124 65.612s-10.363 48.806-27.126 65.614l-245.948 245.758 245.95 245.95c16.704 16.796 27.029 39.951 27.029 65.517s-10.325 48.721-27.034 65.521l-32.802 32.802c-16.785 16.806-39.984 27.202-65.612 27.202s-48.827-10.396-65.611-27.201l-245.761-245.761-245.95 245.95c-16.764 16.852-39.97 27.281-65.612 27.281s-48.848-10.429-65.608-27.277l-32.81-32.81c-16.704-16.796-27.029-39.951-27.029-65.517s10.325-48.721 27.034-65.521l245.946-245.946-245.95-245.95c-16.715-16.827-27.046-40.013-27.046-65.612s10.331-48.785 27.051-65.617l32.801-32.801c16.721-16.945 39.941-27.441 65.612-27.441s48.891 10.496 65.602 27.431l245.96 245.96 245.76-245.95c16.719-16.753 39.834-27.117 65.37-27.117 0.085 0 0.17 0 0.255 0h-0.013c23.704 0 0 0 0 0zM823.372 0.19c-44.753 0-86.85 17.446-118.519 49.114l-192.853 192.853-193.043-192.853c-30.135-30.337-71.874-49.115-117.999-49.115-0.183 0-0.365 0-0.548 0.001h0.028c-44.942 0-87.040 17.446-118.519 49.304l-32.806 32.616c-30.235 30.376-48.926 72.264-48.926 118.519s18.691 88.143 48.933 118.525l192.847 193.037-192.853 193.043c-30.281 30.355-49.004 72.25-49.004 118.519s18.724 88.164 49.008 118.522l32.803 32.803c30.146 30.225 71.834 48.926 117.89 48.926 0.221 0 0.442 0 0.663-0.001h-0.034c44.942 0 86.85-17.446 118.519-48.924l193.043-193.043 192.853 193.043c30.117 30.224 71.78 48.926 117.811 48.926 0.249 0 0.497-0.001 0.745-0.002h-0.038c44.942 0 87.040-17.446 118.519-48.924l32.806-32.806c30.281-30.355 49.004-72.25 49.004-118.519s-18.724-88.164-49.008-118.522l-192.66-193.229 192.853-193.043c30.235-30.376 48.926-72.264 48.926-118.519s-18.691-88.143-48.933-118.525l-32.8-32.8c-30.106-30.336-71.82-49.115-117.921-49.115-0.21 0-0.42 0-0.631 0.001h0.033z"></path>
</svg>
