<!-- Generated by IcoMoon.io -->
<svg version="1.1" xmlns="http://www.w3.org/2000/svg" width="1040" height="1024" viewBox="0 0 1040 1024">
<title></title>
<g id="icomoon-ignore">
</g>
<path fill="#ce4e4e" d="M852.64 508.48c-5.097 1.867-10.981 2.946-17.118 2.946-22.045 0-40.835-13.932-48.048-33.471l-0.115-0.355h-105.44v34.080c0 9.44-7.52 17.12-16.96 17.12h-68.16v34.080h51.2c9.28 0 16.96 7.68 16.96 16.96v37.28c20.070 7.234 34.16 26.112 34.16 48.281 0 28.277-22.923 51.2-51.2 51.2s-51.2-22.923-51.2-51.2c0-22.169 14.090-41.048 33.803-48.169l0.357-0.113v-20.16h-51.2c-9.44 0-17.12-7.68-17.12-17.12v-51.2h-34.080v324.8h125.92c0 0 0 0 0 0 26.984 0 48.869 21.829 48.96 48.791v0.009c-0.019 12.379-4.296 23.756-11.443 32.748l0.083-0.108c9.672 9.277 15.683 22.307 15.683 36.741 0 0.189-0.001 0.378-0.003 0.567v-0.029c0.001 0.095 0.001 0.208 0.001 0.321 0 28.342-22.885 51.338-51.184 51.519h-289.777c-28.277 0-51.2-22.923-51.2-51.2v0c0-14.080 5.6-27.84 15.68-37.76-6.954-8.588-11.173-19.639-11.2-31.674v-0.006c-0.32-16 7.36-31.2 20.48-40.48-3.84-43.2-38.4-92.8-69.12-136.96-14.72-20.8-28.48-40.64-39.2-59.2-58.88-104.64-95.68-226.88-95.68-319.36 0-194.4 164.8-346.72 375.2-346.72 9.44 0 16.96 7.52 16.96 16.96v272.32h68.32v-88.32c-20.070-7.234-34.16-26.112-34.16-48.281 0-28.277 22.923-51.2 51.2-51.2s51.2 22.923 51.2 51.2c0 22.169-14.090 41.048-33.803 48.169l-0.357 0.113v88.32h34.080c9.44 0 16.96 7.68 16.96 17.12v34.080h51.2v-54.4c-20.070-7.234-34.16-26.112-34.16-48.281 0-28.277 22.923-51.2 51.2-51.2s51.2 22.923 51.2 51.2c0 22.169-14.090 41.048-33.803 48.169l-0.357 0.113v71.52c0 9.44-7.68 16.96-16.96 16.96h-68.32v68.32h105.6c7.093-20.328 26.1-34.651 48.452-34.651 28.277 0 51.2 22.923 51.2 51.2 0 22.308-14.266 41.283-34.173 48.301l-0.359 0.11zM733.12 238.72c-0.051 0.496-0.080 1.071-0.080 1.653 0 9.455 7.665 17.12 17.12 17.12s17.12-7.665 17.12-17.12c0-0.582-0.029-1.157-0.086-1.725l0.006 0.072c-0.871-8.717-8.167-15.467-17.040-15.467s-16.169 6.75-17.034 15.395l-0.006 0.072zM373.6 853.44h120.8v-188.96c-5.852-0.396-10.705-0.851-15.524-1.418l1.444 0.138c-7.2-0.96-13.12-6.4-14.56-13.44l-5.28-24.8-12.8-3.36-16.96 18.88c-4.8 5.44-12.8 7.2-19.36 4.32-20.459-8.939-38.091-19.436-54.207-31.808l0.607 0.448c-4.119-3.159-6.748-8.083-6.748-13.62 0-1.88 0.303-3.689 0.863-5.381l-0.035 0.121 7.84-24-9.6-9.28-23.68 7.84c-6.88 2.24-14.4 0-18.88-5.92-11.932-15.553-22.431-33.239-30.717-52.117l-0.643-1.643c-2.88-6.72-1.12-14.4 4.32-19.2l18.88-17.12c-1.28-4.16-2.4-8.48-3.36-12.8l-26.56-5.12c-8-1.6-13.76-8.64-13.76-16.8v-58.080c0-8.16 5.76-15.2 13.76-16.8l26.56-5.28 3.36-12.8-18.88-16.8c-5.44-4.8-7.2-12.8-4.32-19.52 8.16-19.040 18.72-37.12 31.36-53.6 4.32-5.76 12-8.16 18.88-5.92l23.84 7.84c3.040-3.2 6.080-6.4 9.44-9.44l-8-23.84c-2.24-6.88 0.16-14.4 6.080-18.88 15.51-11.916 33.141-22.412 51.957-30.713l1.643-0.647c6.72-2.88 14.4-1.12 19.36 4.32l16.96 18.88 12.8-3.36 5.28-24.8c1.6-7.040 7.36-12.48 14.56-13.44l14.080-1.28v-119.2c-183.040 8-323.84 142.4-323.84 312.32 0 85.6 35.68 204.32 91.2 302.4 13.317 22.353 25.625 40.833 38.72 58.7l-1.44-2.060c32 45.6 67.68 96.8 74.56 147.040zM494.4 256.8v-58.56l-2.88 13.44c-1.28 6.72-6.72 12-13.6 13.28-10.080 1.76-20 4.48-29.76 8-6.4 2.24-13.76 0.48-18.4-4.8l-16-17.76c-8.96 4.32-17.6 9.44-25.6 15.040l7.36 22.4c2.080 6.72 0 13.92-5.28 18.4-7.84 6.72-15.040 14.080-21.76 21.92-4.48 5.28-11.68 7.36-18.4 5.12l-22.4-7.36c-5.6 8.16-10.72 16.8-15.040 25.6l17.76 16c5.28 4.8 7.040 12 4.8 18.56-3.52 9.6-6.24 19.68-8 29.76-1.28 6.88-6.72 12.32-13.6 13.6l-23.84 4.8v30.24l24 4.8c6.72 1.28 12.16 6.72 13.28 13.6 1.92 10.080 4.64 20 8 29.76 2.4 6.4 0.64 13.76-4.64 18.4l-17.92 16c4.48 8.96 9.6 17.6 15.2 25.76l22.4-7.36c6.72-2.24 13.92 0 18.4 5.12 6.72 8 13.92 15.2 21.76 21.76 5.28 4.48 7.36 11.84 5.28 18.4l-7.52 22.56c8.32 5.6 16.8 10.56 25.6 15.040l16.16-17.92c3.146-3.485 7.68-5.666 12.724-5.666 2.094 0 4.1 0.376 5.955 1.064l-0.118-0.038c9.6 3.52 19.52 6.24 29.6 8 6.88 1.28 12.32 6.4 13.76 13.28l2.72 13.44v-58.56c-76.804-9.243-135.756-74.017-135.756-152.56s58.952-143.317 135.022-152.488l0.734-0.072zM393.28 392.48c-0.765 5.072-1.201 10.926-1.201 16.881 0 59.878 44.15 109.444 101.673 117.92l0.649 0.078v-236c-52.451 7.712-93.408 48.669-101.041 100.471l-0.079 0.649zM673.44 972.16c0.16-9.6-7.52-17.44-17.12-17.6h-289.76c-0.002 0-0.004 0-0.007 0-9.455 0-17.12 7.665-17.12 17.12 0 0.169 0.002 0.337 0.007 0.505l-0.001-0.025c0 9.6 7.52 17.6 17.12 17.6h289.76c0.002 0 0.004 0 0.007 0 9.455 0 17.12-7.665 17.12-17.12 0-0.169-0.002-0.337-0.007-0.505l0.001 0.025zM652 887.52h-282.080c-0.191-0.009-0.415-0.013-0.641-0.013-8.432 0-15.276 6.794-15.359 15.206v0.008c-0.16 9.6 7.36 17.6 16.96 17.6h281.12c9.418-0.048 17.035-7.695 17.035-17.12 0-0.563-0.027-1.121-0.080-1.67l0.005 0.070c-0.811-7.971-7.487-14.139-15.604-14.139-0.477 0-0.95 0.021-1.416 0.063l0.060-0.004zM630.88 665.12c-0.051 0.496-0.080 1.071-0.080 1.653 0 9.455 7.665 17.12 17.12 17.12s17.12-7.665 17.12-17.12c0-0.582-0.029-1.157-0.086-1.725l0.006 0.072c-0.871-8.717-8.167-15.467-17.040-15.467s-16.169 6.75-17.034 15.395l-0.006 0.072zM596.8 153.44c-0.051 0.496-0.080 1.071-0.080 1.653 0 9.455 7.665 17.12 17.12 17.12s17.12-7.665 17.12-17.12c0-0.582-0.029-1.157-0.086-1.725l0.006 0.072c-0.871-8.717-8.167-15.467-17.040-15.467s-16.169 6.75-17.034 15.395l-0.006 0.072zM648 324h-119.52v170.56h119.36zM852.48 460.48c0.051-0.496 0.080-1.071 0.080-1.653 0-9.455-7.665-17.12-17.12-17.12s-17.12 7.665-17.12 17.12c0 0.582 0.029 1.157 0.086 1.725l-0.006-0.072c0.871 8.717 8.167 15.467 17.040 15.467s16.169-6.75 17.034-15.395l0.006-0.072zM705.76 796.8c-5.28 9.44-10.080 19.2-14.080 29.28l-31.68-12.48c4.64-11.52 9.92-22.56 16-33.28zM742.24 739.68c-6.4 9.28-12.96 18.72-19.2 28.32l-28.64-18.56c6.4-9.76 13.12-19.68 19.84-29.28zM781.92 681.6c-6.080 9.6-12.8 19.36-19.68 29.6l-28.16-19.52c6.72-9.6 13.28-19.2 18.88-28.32zM815.84 618.72c-5.12 10.72-10.56 21.28-16 31.68l-30.080-16c5.28-10.080 10.4-20.16 15.2-30.4zM843.52 553.44c-6.163 16.818-10.591 27.704-15.236 38.474l2.116-5.514-31.36-13.44c4.48-10.4 8.64-20.96 12.64-31.52zM886.56 347.36c0 10.56-0.48 21.6-1.44 32.96l-33.92-2.88c0.8-10.4 1.28-20.48 1.28-30.080v-3.2l34.080-0.16zM884.16 307.36l-33.76 4.16c-1.28-10.88-3.2-21.76-5.76-32.32l33.28-7.84c2.72 12 4.8 24 6.4 36.16zM867.52 236.32l-32 11.36c-4.426-12.367-8.744-22.4-13.578-32.132l0.778 1.732 30.56-14.88c5.44 11.2 10.080 22.4 14.4 33.92zM835.52 170.56l-28.8 18.24c-5.92-9.28-12.32-18.24-19.2-26.88l26.88-21.28c7.52 9.6 14.56 19.52 21.12 29.92zM790.080 113.28l-24.32 24c-7.68-8-15.84-15.36-24.16-22.4l21.6-26.24c9.44 7.84 18.4 16 26.88 24.64zM734.080 66.88l-19.040 28.32c-9.12-6.080-18.56-11.84-28.32-17.12l16.16-30.080c10.72 5.76 21.28 12.16 31.2 18.88zM670.080 32.32l-13.28 31.36c-9.92-4.16-20.48-8-31.040-11.52l10.4-32.48c11.52 3.68 23.040 8 34.080 12.64zM601.12 10.24l-7.36 33.28c-8.51-1.992-19.658-3.957-30.966-5.408l-1.834-0.192 4.48-33.92c12 1.6 24 3.68 35.68 6.4zM34.080 921.12h34.080v34.080h-34.080zM34.080 989.28h34.080v34.080h-34.080zM68.16 955.2h34.080v34.080h-34.080zM0 955.2h34.080v34.080h-34.080zM971.84 0h34.080v34.080h-34.080zM971.84 68.16h34.080v34.24h-34.080zM1005.92 34.080h34.080v34.080h-34.080zM937.76 34.080h34.080v34.080h-34.080z"></path>
</svg>
