<!-- Generated by IcoMoon.io -->
<svg version="1.1" xmlns="http://www.w3.org/2000/svg" width="1074" height="1024" viewBox="0 0 1074 1024">
<title></title>
<g id="icomoon-ignore">
</g>
<path fill="#ce4e4e" d="M1057.574 38.778v834.644c0 73.862-60.769 133.791-135.638 133.791h-769.511c-0.25 0.002-0.547 0.003-0.843 0.003-74.094 0-134.226-59.78-134.795-133.74v-373.898c0-12.254 10.072-22.159 22.327-22.159h204.129v-438.641c0-12.087 10.072-21.991 22.327-21.991h769.679c12.254 0 22.327 9.904 22.327 21.991zM152.425 963.064c50.025 0 90.649-40.289 90.649-89.642v-351.853h-181.634v351.853c0.379 49.59 40.667 89.644 90.311 89.644 0.237 0 0.474-0.001 0.71-0.003h-0.036zM1012.921 873.422v-812.485h-725.026v812.485c0 34.413-13.262 65.972-35.085 89.642h669.125c50.193 0 90.985-40.289 90.985-89.642zM596.606 249.621c0-12.254 10.072-22.159 22.327-22.159h286.552c12.422 0 22.327 9.904 22.327 22.159 0 12.087-10.072 21.991-22.327 21.991h-286.552c-12.254 0-22.327-9.904-22.327-21.991zM596.606 491.856c0-12.087 10.072-21.991 22.327-21.991h286.552c12.422 0 22.327 9.904 22.327 21.991 0 12.254-10.072 22.159-22.327 22.159h-286.552c-12.254 0-22.327-10.072-22.327-22.159zM596.606 734.258c0-12.254 10.072-21.991 22.327-21.991h286.552c12.422 0 22.327 9.736 22.327 21.991s-10.072 21.991-22.327 21.991h-286.552c-12.254 0-22.327-9.736-22.327-21.823zM362.932 244.417c-3.716-3.905-6.002-9.201-6.002-15.031 0-6.327 2.693-12.026 6.995-16.012l0.014-0.013c8.897-8.393 22.998-8.058 31.559 0.839l33.238 34.581 106.429-115.158c8.393-8.897 22.494-9.569 31.727-1.343 9.065 8.226 9.736 22.159 1.343 31.224l-122.712 132.616c-4.122 4.454-9.999 7.233-16.525 7.233-6.364 0-12.11-2.643-16.202-6.89l-0.007-0.007zM566.893 385.091c9.065 8.393 9.736 22.159 1.343 31.224l-122.712 132.616c-4.122 4.454-9.999 7.233-16.525 7.233-6.364 0-12.11-2.643-16.202-6.89l-49.864-52.046c-3.716-3.905-6.002-9.201-6.002-15.031 0-6.327 2.693-12.026 6.995-16.012l0.014-0.013c8.897-8.393 22.998-7.89 31.559 0.839l33.238 34.749 106.429-115.158c8.393-9.065 22.494-9.736 31.727-1.511zM566.893 638.070c9.065 8.226 9.736 22.159 1.343 31.224l-122.712 132.616c-4.122 4.454-9.999 7.233-16.525 7.233-6.364 0-12.11-2.643-16.202-6.89l-49.864-52.046c-3.716-3.905-6.002-9.201-6.002-15.031 0-6.327 2.693-12.026 6.995-16.012l0.014-0.013c8.897-8.393 22.998-8.058 31.559 0.839l33.238 34.581 106.429-115.158c8.393-8.897 22.494-9.569 31.727-1.343z"></path>
</svg>
