<!-- Generated by IcoMoon.io -->
<svg version="1.1" xmlns="http://www.w3.org/2000/svg" width="788" height="1024" viewBox="0 0 788 1024">
<title></title>
<g id="icomoon-ignore">
</g>
<path fill="#ce4e4e" d="M394.476 88.694c16.27 0 29.46 13.19 29.46 29.46s-13.19 29.46-29.46 29.46v0c-16.27 0-29.46-13.19-29.46-29.46s13.19-29.46 29.46-29.46v0zM787.692 945.231c0 43.503-35.266 78.769-78.769 78.769v0h-630.154c-43.503 0-78.769-35.266-78.769-78.769v0-708.923c0-43.503 35.266-78.769 78.769-78.769v0h109.332c14.38-16.075 32.946-28.121 53.989-34.443l0.834-0.215c18.126-5.313 32.098-19.337 37.241-37.11l0.095-0.384c14.612-49.839 59.921-85.616 113.585-85.616s98.973 35.777 113.375 84.78l0.211 0.835c5.257 18.108 19.229 32.079 36.954 37.241l0.383 0.096c21.891 6.582 40.458 18.681 54.72 34.698l0.103 0.118h109.332c43.503 0 78.769 35.266 78.769 78.769v0 708.923zM196.923 275.692h393.846v-39.385c0-34.974-23.473-66.166-56.871-75.618-31.194-9.101-55.249-33.208-64.112-63.773l-0.164-0.66c-9.911-33.096-40.066-56.813-75.769-56.871h-0.007c-35.646 0.131-65.723 23.826-75.474 56.312l-0.144 0.56c-9.101 31.194-33.208 55.249-63.773 64.112l-0.66 0.164c-33.083 9.61-56.714 40.487-56.871 75.146zM748.308 945.231v-708.923c0-21.752-17.633-39.385-39.385-39.385v0h-85.543c4.411 12.288 6.774 25.521 6.774 39.385v78.769h-472.615v-79.714c0-13.548 2.521-26.466 6.774-38.439h-85.543c-21.752 0-39.385 17.633-39.385 39.385v0 708.923c0 21.752 17.633 39.385 39.385 39.385v0h630.154c21.752 0 39.385-17.633 39.385-39.385v0zM585.413 506.644l-264.665 264.665-132.017-132.332 27.727-27.884 104.448 104.448 236.623-236.78z"></path>
</svg>
