<!-- Generated by IcoMoon.io -->
<svg version="1.1" xmlns="http://www.w3.org/2000/svg" width="1067" height="1024" viewBox="0 0 1067 1024">
<title></title>
<g id="icomoon-ignore">
</g>
<path fill="#ce4e4e" d="M1038.933 49.067v816.427c-0.242 72.394-58.985 130.987-131.413 130.987-0.075 0-0.15 0-0.226 0h-747.935c-0.127 0-0.277 0.001-0.427 0.001-72.428 0-131.17-58.593-131.413-130.964v-365.676c0-11.947 9.813-21.547 21.76-21.547h198.4v-429.013c0-11.947 9.6-21.547 21.76-21.547h747.947c11.947 0 21.76 9.6 21.76 21.333zM159.36 953.173c0.064 0 0.14 0 0.216 0 48.435 0 87.742-39.083 88.104-87.433v-344.354h-176.64v344.107c0.242 48.476 39.596 87.68 88.106 87.68 0.075 0 0.151 0 0.226 0h-0.012zM995.627 865.707v-794.88h-704.64v794.667c0 33.707-12.8 64.427-34.133 87.68h650.667c0.001 0 0.002 0 0.002 0 48.435 0 87.742-39.083 88.104-87.432v-0.034z"></path>
<path fill="none" stroke="#ce4e4e" stroke-width="12.3733" stroke-miterlimit="50" stroke-linecap="butt" stroke-linejoin="miter" d="M1038.933 49.067v816.427c-0.242 72.394-58.985 130.987-131.413 130.987-0.075 0-0.15 0-0.226 0h-747.935c-0.127 0-0.277 0.001-0.427 0.001-72.428 0-131.17-58.593-131.413-130.964v-365.676c0-11.947 9.813-21.547 21.76-21.547h198.4v-429.013c0-11.947 9.6-21.547 21.76-21.547h747.947c11.947 0 21.76 9.6 21.76 21.333zM159.36 953.173c0.064 0 0.14 0 0.216 0 48.435 0 87.742-39.083 88.104-87.433v-344.354h-176.64v344.107c0.242 48.476 39.596 87.68 88.106 87.68 0.075 0 0.151 0 0.226 0h-0.012zM995.627 865.707v-794.88h-704.64v794.667c0 33.707-12.8 64.427-34.133 87.68h650.667c0.001 0 0.002 0 0.002 0 48.435 0 87.742-39.083 88.104-87.432v-0.034z"></path>
<path fill="#ce4e4e" d="M484.693 505.6c5.789-5.782 13.784-9.359 22.613-9.359s16.824 3.576 22.614 9.359v0l80.64 80.64 160.853-198.4c5.568-4.813 12.878-7.745 20.873-7.745 17.673 0 32 14.327 32 32 0 7.942-2.893 15.208-7.683 20.801l0.036-0.044-176.853 218.453c-5.785 8.881-15.667 14.67-26.901 14.67-8.819 0-16.805-3.567-22.593-9.338l-105.599-105.599c-5.782-5.789-9.359-13.784-9.359-22.613s3.576-16.824 9.359-22.614v0z"></path>
</svg>
