<!-- Generated by IcoMoon.io -->
<svg version="1.1" xmlns="http://www.w3.org/2000/svg" width="992" height="1024" viewBox="0 0 992 1024">
<title></title>
<g id="icomoon-ignore">
</g>
<path fill="#cd4e4e" d="M867.564 794.782h124.928v100.352c0.001 0.141 0.001 0.307 0.001 0.474 0 70.689-57.126 128.035-127.731 128.392h-541.021c-70.571-0.446-127.607-57.758-127.607-128.391 0-0.167 0-0.334 0.001-0.501v0.026-665.915h-196.135v-100.352c0-0.094 0-0.206 0-0.317 0-70.72 57.106-128.102 127.722-128.549h612.080c70.589 0.535 127.607 57.883 127.607 128.548 0 0.112 0 0.224 0 0.336v-0.017zM195.978 128.866c0-0.047 0-0.103 0-0.159 0-37.769-30.483-68.417-68.189-68.685h-0.025c-37.731 0.268-68.214 30.917-68.214 68.685 0 0.056 0 0.112 0 0.168v-0.009 40.33h136.428zM392.113 794.782h415.902v-665.915c0-0.047 0-0.103 0-0.159 0-37.769-30.483-68.417-68.189-68.685h-504.148c12.453 19.479 19.85 43.234 19.85 68.716 0 0.045 0 0.090 0 0.135v-0.007 766.267c0 0.047 0 0.103 0 0.159 0 37.769 30.483 68.417 68.189 68.685h0.025c37.799-0.179 68.372-30.862 68.372-68.686 0-0.056 0-0.111 0-0.167v0.009zM932.943 854.646h-481.438v40.487c0 25.206-7.247 48.837-19.692 68.844h432.916c37.731-0.268 68.214-30.917 68.214-68.685 0-0.056 0-0.112 0-0.168v0.009zM315.077 197.711h433.546v60.022h-433.546zM315.077 333.982h433.546v59.865h-433.546zM638.346 577.694c0 48.837-32.453 90.27-76.879 103.345v56.084h-59.392v-56.084c-44.949-13.587-77.114-54.632-77.114-103.19 0-59.176 47.77-107.194 106.851-107.596h0.038c58.893 0.357 106.496 48.182 106.496 107.124 0 0.111 0 0.223-0.001 0.334v-0.017zM578.954 577.694c0-0.047 0-0.102 0-0.158 0-26.102-21.16-47.262-47.262-47.262 0 0 0 0 0 0v0c-26.034 0.089-47.104 21.215-47.104 47.261 0 0.055 0 0.111 0 0.166v-0.009c-0.001 0.094-0.001 0.204-0.001 0.315 0 26.102 21.16 47.262 47.262 47.262 0 0 0.001 0 0.001 0v0c26.034-0.089 47.105-21.214 47.105-47.261 0-0.111 0-0.222-0.001-0.332v0.017z"></path>
</svg>
