<!-- Generated by IcoMoon.io -->
<svg version="1.1" xmlns="http://www.w3.org/2000/svg" width="1024" height="1024" viewBox="0 0 1024 1024">
<title></title>
<g id="icomoon-ignore">
</g>
<path fill="#ed4d4d" d="M458.872 292.64l-9.906-118.884c-0.648-7.774-7.146-13.754-14.948-13.754h-14.998v-15.002c0-24.814-20.186-45-45-45s-45 20.186-45 45v15.002h-14.998c-7.706 0-14.158 5.838-14.926 13.506l-12.002 120c-0.422 4.218 0.96 8.416 3.804 11.558s6.884 4.934 11.122 4.934h141.996c0.014 0 0.026 0 0.040 0 8.284 0 15-6.716 15-15 0-0.802-0.064-1.592-0.184-2.36zM359.020 145c0-8.272 6.728-15 15-15s15 6.728 15 15v15.002h-30v-15.002zM318.594 280.002l9.002-90h92.62l7.498 90h-109.12z"></path>
<path fill="#ed4d4d" d="M856.908 133.5c-0.036-0.366-0.1-0.722-0.162-1.078-0.022-0.126-0.034-0.254-0.058-0.378-0.084-0.424-0.194-0.84-0.316-1.252-0.016-0.054-0.026-0.112-0.042-0.166-0.128-0.42-0.28-0.83-0.442-1.234-0.018-0.048-0.034-0.096-0.052-0.144-0.16-0.386-0.342-0.762-0.534-1.13-0.034-0.064-0.060-0.132-0.094-0.196-0.184-0.342-0.388-0.674-0.598-1-0.056-0.086-0.102-0.176-0.16-0.262-0.21-0.312-0.438-0.61-0.67-0.906-0.070-0.090-0.132-0.186-0.204-0.274-0.312-0.378-0.64-0.744-0.988-1.090l-119.988-119.994c-0.346-0.346-0.71-0.676-1.090-0.988-0.098-0.080-0.204-0.148-0.302-0.226-0.286-0.224-0.574-0.446-0.876-0.648-0.094-0.064-0.194-0.116-0.29-0.176-0.318-0.202-0.638-0.402-0.97-0.58-0.074-0.040-0.15-0.070-0.224-0.108-0.362-0.186-0.728-0.366-1.104-0.522-0.054-0.022-0.11-0.038-0.164-0.058-0.398-0.16-0.802-0.31-1.216-0.436-0.060-0.018-0.122-0.030-0.182-0.046-0.408-0.118-0.818-0.228-1.238-0.312-0.126-0.026-0.256-0.036-0.382-0.058-0.354-0.062-0.71-0.124-1.074-0.16-0.496-0.052-0.996-0.078-1.498-0.078h-539.972c-8.284 0-15 6.716-15 15v906.95c0 8.284 6.716 15 15 15h339.998c8.284 0 15-6.716 15-15s-6.716-15-15-15h-324.998v-876.95h509.972v104.996c0 8.284 6.716 15 15 15h104.992v756.954h-84.966c-8.284 0-15 6.716-15 15s6.716 15 15 15h99.966c8.284 0 15-6.716 15-15v-786.954c0-0.502-0.024-1.002-0.074-1.496zM736.99 119.996v-68.782l68.78 68.782h-68.78z"></path>
<path fill="#ed4d4d" d="M721.99 426.986h-419.976c-8.284 0-15 6.716-15 15s6.716 15 15 15h419.976c8.284 0 15-6.716 15-15s-6.716-15-15-15z"></path>
<path fill="#ed4d4d" d="M721.99 507.004h-419.976c-8.284 0-15 6.716-15 15s6.716 15 15 15h419.976c8.284 0 15-6.716 15-15s-6.716-15-15-15z"></path>
<path fill="#ed4d4d" d="M721.99 587.002h-419.976c-8.284 0-15 6.716-15 15s6.716 15 15 15h419.976c8.284 0 15-6.716 15-15s-6.716-15-15-15z"></path>
<path fill="#ed4d4d" d="M482.002 667.002h-179.988c-8.284 0-15 6.716-15 15s6.716 15 15 15h179.988c8.284 0 15-6.716 15-15s-6.716-15-15-15z"></path>
<path fill="#ed4d4d" d="M737.014 812.004c0-57.898-47.102-105-105-105s-105 47.102-105 105c0 33.366 15.664 63.126 40.004 82.372v114.624c0 0.16 0.018 0.314 0.024 0.474 0.010 0.306 0.018 0.61 0.046 0.916 0.020 0.214 0.054 0.424 0.082 0.636 0.038 0.274 0.074 0.548 0.126 0.82 0.044 0.228 0.102 0.452 0.156 0.676 0.060 0.25 0.118 0.5 0.192 0.746 0.070 0.236 0.152 0.464 0.234 0.696 0.080 0.228 0.158 0.458 0.25 0.684 0.098 0.24 0.208 0.47 0.318 0.704 0.098 0.208 0.192 0.418 0.3 0.624 0.13 0.246 0.272 0.48 0.414 0.718 0.11 0.184 0.216 0.37 0.334 0.55 0.166 0.252 0.348 0.492 0.528 0.734 0.098 0.13 0.182 0.266 0.284 0.394 0.020 0.026 0.044 0.046 0.064 0.072 0.336 0.416 0.692 0.814 1.070 1.19 0.106 0.106 0.222 0.198 0.332 0.3 0.274 0.258 0.554 0.51 0.848 0.748 0.176 0.142 0.358 0.27 0.54 0.404 0.246 0.18 0.492 0.356 0.746 0.52 0.192 0.124 0.386 0.24 0.584 0.354 0.266 0.156 0.538 0.3 0.814 0.44 0.188 0.094 0.376 0.188 0.57 0.274 0.306 0.138 0.62 0.26 0.936 0.378 0.172 0.064 0.342 0.132 0.516 0.188 0.354 0.118 0.718 0.214 1.084 0.304 0.146 0.036 0.29 0.080 0.436 0.112 0.404 0.088 0.816 0.15 1.232 0.204 0.116 0.014 0.23 0.040 0.346 0.052 0.49 0.052 0.988 0.078 1.492 0.082 0.038 0 0.076 0.006 0.114 0.006 0.016 0 0.030-0.004 0.046-0.004 0.732-0.002 1.446-0.074 2.148-0.176 0.152-0.022 0.3-0.042 0.452-0.070 0.714-0.126 1.408-0.302 2.082-0.526 0.124-0.042 0.244-0.090 0.366-0.134 0.718-0.26 1.418-0.56 2.082-0.922 0.024-0.012 0.046-0.030 0.070-0.042 0.7-0.386 1.358-0.834 1.982-1.324 0.044-0.034 0.092-0.056 0.136-0.090l40.628-32.502 40.626 32.502c0.042 0.034 0.088 0.054 0.13 0.088 0.628 0.492 1.29 0.94 1.99 1.328 0.022 0.012 0.042 0.028 0.064 0.040 0.664 0.364 1.366 0.664 2.086 0.924 0.122 0.044 0.24 0.092 0.362 0.132 0.674 0.224 1.37 0.4 2.084 0.528 0.15 0.026 0.298 0.046 0.45 0.068 0.704 0.104 1.418 0.174 2.15 0.176 0.016 0 0.030 0.004 0.046 0.004 0.036 0 0.076-0.006 0.112-0.006 0.504-0.004 1.002-0.030 1.494-0.082 0.114-0.012 0.226-0.038 0.338-0.052 0.418-0.054 0.834-0.118 1.238-0.206 0.144-0.032 0.286-0.074 0.428-0.11 0.37-0.090 0.736-0.188 1.094-0.306 0.17-0.056 0.336-0.124 0.506-0.184 0.32-0.12 0.636-0.244 0.946-0.382 0.19-0.084 0.376-0.178 0.564-0.272 0.278-0.14 0.552-0.286 0.82-0.442 0.196-0.114 0.39-0.23 0.582-0.354 0.254-0.166 0.502-0.34 0.746-0.52 0.182-0.134 0.364-0.262 0.542-0.404 0.294-0.236 0.572-0.49 0.846-0.746 0.11-0.102 0.226-0.196 0.332-0.302 0.38-0.376 0.734-0.776 1.072-1.192 0.020-0.024 0.044-0.044 0.064-0.070 0.102-0.126 0.184-0.262 0.282-0.39 0.182-0.242 0.364-0.484 0.532-0.738 0.118-0.18 0.222-0.366 0.334-0.548 0.142-0.238 0.286-0.474 0.416-0.72 0.108-0.204 0.202-0.412 0.298-0.62 0.11-0.234 0.22-0.466 0.318-0.708 0.092-0.226 0.17-0.456 0.25-0.684 0.082-0.23 0.164-0.46 0.234-0.696 0.074-0.248 0.132-0.498 0.192-0.748 0.054-0.224 0.112-0.446 0.156-0.674 0.052-0.274 0.088-0.548 0.126-0.822 0.028-0.21 0.062-0.42 0.082-0.634 0.028-0.306 0.036-0.612 0.046-0.918 0.006-0.158 0.024-0.312 0.024-0.472l-0.004-114.622c24.33-19.246 39.994-49.006 39.994-82.372zM641.604 957.462c0-0.002-0.002-0.002-0.002-0.004l-0.212-0.17c-0.11-0.086-0.226-0.158-0.336-0.242-0.266-0.202-0.532-0.4-0.808-0.582-0.162-0.106-0.328-0.2-0.494-0.3-0.254-0.152-0.506-0.306-0.768-0.442-0.206-0.108-0.416-0.204-0.626-0.3-0.226-0.106-0.452-0.214-0.682-0.306-0.244-0.1-0.492-0.184-0.738-0.27-0.206-0.072-0.412-0.146-0.62-0.208-0.262-0.078-0.526-0.142-0.792-0.206-0.204-0.048-0.41-0.1-0.616-0.142-0.26-0.050-0.52-0.088-0.782-0.124-0.22-0.032-0.442-0.064-0.664-0.086-0.24-0.024-0.478-0.034-0.718-0.046-0.25-0.012-0.498-0.024-0.748-0.024-0.212 0-0.422 0.012-0.634 0.022-0.276 0.012-0.552 0.024-0.828 0.052-0.188 0.018-0.374 0.046-0.56 0.072-0.294 0.040-0.588 0.084-0.88 0.14-0.174 0.036-0.348 0.078-0.522 0.12-0.294 0.070-0.586 0.14-0.878 0.228-0.184 0.056-0.364 0.12-0.546 0.184-0.27 0.092-0.54 0.186-0.806 0.294-0.214 0.086-0.422 0.188-0.632 0.284-0.224 0.104-0.448 0.206-0.67 0.322-0.252 0.132-0.498 0.282-0.746 0.43-0.17 0.104-0.342 0.2-0.51 0.31-0.276 0.182-0.542 0.382-0.81 0.584-0.11 0.084-0.224 0.154-0.332 0.24l-0.208 0.168c-0.002 0.002-0.006 0.004-0.010 0.008l-25.408 20.328v-66.804c10.954 3.884 22.728 6.020 34.996 6.020s24.042-2.134 34.998-6.020l0.002 66.798-25.41-20.328zM632.014 887.004c-41.356 0-75-33.644-75-75s33.644-75 75-75c41.356 0 75 33.644 75 75s-33.644 75-75 75z"></path>
<path fill="#ed4d4d" d="M632.016 767.002c-24.814 0-45 20.186-45 45s20.186 45 45 45c24.814 0 45-20.186 45-45s-20.186-45-45-45zM632.016 827.002c-8.272 0-15-6.728-15-15s6.728-15 15-15 15 6.728 15 15-6.728 15-15 15z"></path>
</svg>
