<!-- Generated by IcoMoon.io -->
<svg version="1.1" xmlns="http://www.w3.org/2000/svg" width="913" height="1024" viewBox="0 0 913 1024">
<title></title>
<g id="icomoon-ignore">
</g>
<path fill="#ce4e4e" d="M448.069 119.421c0 28.368-23.248 51.2-51.754 51.2-0.082 0-0.18 0.001-0.277 0.001-28.333 0-51.319-22.89-51.476-51.186v-0.015c0-28.229 23.248-51.2 51.754-51.2 0.082 0 0.18-0.001 0.277-0.001 28.333 0 51.319 22.89 51.476 51.186v0.015zM413.475 119.421c0-9.515-7.713-17.228-17.228-17.228s-17.228 7.713-17.228 17.228v0c0 9.41 7.749 17.159 17.297 17.159s17.297-7.749 17.297-17.159zM689.263 290.179v375.421c0 9.41-7.749 17.021-17.297 17.021h-551.299c-9.686 0-17.297-7.611-17.297-17.021v-375.421c0-9.548 7.749-17.159 17.297-17.159h551.299c9.686 0 17.297 7.611 17.297 17.159zM482.525 648.579v-87.178c-0.235-27.334-22.447-49.402-49.814-49.402-0.098 0-0.196 0-0.294 0.001h-72.219c-27.676 0-49.955 22.141-50.093 49.539v87.040zM396.316 477.821c0.082 0 0.18 0.001 0.277 0.001 28.333 0 51.319-22.89 51.476-51.186v-0.015c0-28.229-23.248-51.2-51.754-51.2-0.082 0-0.18-0.001-0.277-0.001-28.333 0-51.319 22.89-51.476 51.186v0.015c0 28.368 23.248 51.2 51.754 51.2zM654.806 307.2h-516.982v341.379h137.825v-87.178c0.267-36.208 23.517-66.917 55.873-78.281l0.586-0.179c-13.608-14.97-21.939-34.949-21.939-56.874s8.331-41.903 22.001-56.943l-0.062 0.069c15.937-17.553 38.845-28.53 64.318-28.53 22.079 0 42.231 8.247 57.545 21.828l-0.090-0.078c17.631 15.594 28.691 38.272 28.691 63.533 0 21.982-8.375 42.008-22.109 57.061l0.060-0.066c32.984 11.559 56.253 42.335 56.458 78.574v87.065h137.825zM103.369 716.8h258.491v34.179h-258.491zM396.316 716.8h103.369v34.179h-103.369zM103.369 819.2h413.613v34.179h-413.613zM534.141 716.8h68.912v34.179h-68.912zM909.146 727.87l-116.515 136.303v142.806c0 9.41-7.749 17.021-17.159 17.021h-758.314c-9.41 0-17.159-7.611-17.159-17.021v-887.559c0-9.41 7.749-17.021 17.297-17.021h256.415l-14.945-82.335c-0.158-0.874-0.248-1.88-0.248-2.906 0-9.477 7.682-17.159 17.159-17.159 0.039 0 0.077 0 0.115 0h241.188c0.082-0.001 0.178-0.002 0.275-0.002 9.4 0 17.021 7.62 17.021 17.021 0 1.077-0.1 2.131-0.291 3.152l0.016-0.105-14.945 82.335h256.415c9.41 0 17.159 7.611 17.159 17.021v582.85l38.192-47.325 1.384-1.384c3.125-3.098 7.427-5.013 12.177-5.013s9.053 1.915 12.179 5.014l-0.001-0.001 51.615 51.2c6.365 6.227 6.919 16.329 0.969 23.109zM296.268 34.179l30.997 170.621h138.102l30.997-170.621zM758.175 989.821v-85.241l-38.469 45.111c-3.183 3.598-7.749 5.812-12.454 5.95h-0.83c-4.566 0-8.856-1.661-12.177-4.982l-103.369-102.4c-3.116-3.065-5.047-7.326-5.047-12.039s1.931-8.974 5.045-12.037l0.002-0.002 51.754-51.2c3.125-3.098 7.427-5.013 12.177-5.013s9.053 1.915 12.179 5.014l-0.001-0.001 38.054 37.777 53.137-65.868v-608.311h-245.345l-16.052 88.285c-1.384 8.164-8.579 14.115-16.882 14.115h-167.023c-8.303 0-15.498-5.95-17.021-14.115l-16.052-88.285h-245.345v853.241zM872.614 717.769l-26.845-26.569-125.924 155.676c-3.197 3.914-8.022 6.392-13.427 6.392-4.748 0-9.049-1.913-12.174-5.010l-39.437-39.021-27.399 26.984 78.045 77.215zM103.369 921.6h154.984v34.179h-154.984zM292.947 921.6h275.65v34.179h-275.65z"></path>
</svg>
