<!-- Generated by IcoMoon.io -->
<svg version="1.1" xmlns="http://www.w3.org/2000/svg" width="1152" height="1024" viewBox="0 0 1152 1024">
<title></title>
<g id="icomoon-ignore">
</g>
<path fill="#ce4e4e" d="M904.249 891.733v109.938c0 12.373-9.956 22.329-22.471 22.329h-611.556c-12.516 0-22.471-9.956-22.471-22.329v-109.796c0-118.329 91.449-215.609 207.644-226.133 3.271-0.853 6.542-0.996 9.813-0.569h1.138c-29.219-28.232-47.36-67.766-47.36-111.538 0-0.037 0-0.075 0-0.112v0.006-120.889c0.323-68.641 56.042-124.16 124.728-124.16 0.050 0 0.101 0 0.151 0h166.677c12.373 0 22.471 9.956 22.471 22.471v222.578c0 0.032 0 0.069 0 0.106 0 43.772-18.141 83.307-47.316 111.495l-0.044 0.043h1.138c3.271-0.427 6.542-0.284 9.671 0.711 116.574 10.606 207.269 107.626 207.786 225.939v0.052zM463.929 467.911h168.96c0.042 0 0.092 0 0.142 0 30.348 0 54.959-24.561 55.040-54.89v-59.741h-144.213c-44.089 0-79.929 35.556-79.929 79.36zM576 664.889c0.085 0 0.185 0 0.285 0 61.588 0 111.544-49.806 111.786-111.337v-57.481c-15.489 10.338-34.533 16.498-55.016 16.498-0.058 0-0.117 0-0.175 0h-168.951v40.96c0.242 61.554 50.198 111.36 111.786 111.36 0.1 0 0.201 0 0.301 0h-0.016zM635.733 709.689h-119.467l59.733 59.307zM859.307 891.733c0-92.871-70.542-169.813-161.28-180.622l-106.098 105.244c-4.070 4.090-9.704 6.621-15.929 6.621s-11.859-2.531-15.928-6.62l-0.001-0.001-106.098-105.244c-83.635 10.243-149.306 75.622-159.904 158.234l-0.096 0.912h182.329c12.373 0 22.471 9.956 22.471 22.329s-9.956 22.329-22.471 22.329h-183.609v64.427h566.613zM598.471 892.587c-0.036 12.383-10.083 22.408-22.471 22.408-6.225 0-11.859-2.531-15.928-6.62l-0.001-0.001c-4.005-4.056-6.479-9.632-6.479-15.787s2.474-11.731 6.482-15.789l-0.002 0.002c4.101-4.022 9.725-6.505 15.929-6.505s11.828 2.483 15.933 6.508l-0.004-0.004c4.267 4.124 6.542 9.956 6.542 15.644zM661.76 84.907c-0.090 39.081-26.48 71.973-62.406 81.921l-0.599 0.141v54.471c0 12.41-10.061 22.471-22.471 22.471s-22.471-10.061-22.471-22.471v-54.471c-36.524-10.089-62.915-42.981-63.004-82.052v-0.010c0.242-46.945 38.354-84.907 85.332-84.907 0.050 0 0.101 0 0.151 0h-0.008c0.043 0 0.093 0 0.143 0 46.978 0 85.090 37.962 85.332 84.884v0.023zM616.818 84.907c0-22.386-18.147-40.533-40.533-40.533s-40.533 18.147-40.533 40.533v0c0 22.386 18.147 40.533 40.533 40.533s40.533-18.147 40.533-40.533v0zM1053.013 234.524c-0.050 47.091-38.236 85.246-85.333 85.246-15.709 0-30.427-4.245-43.069-11.651l0.403 0.218-38.684 38.4c-4.070 4.090-9.704 6.621-15.929 6.621s-11.859-2.531-15.928-6.62l-0.001-0.001c-4.039-4.041-6.538-9.622-6.538-15.787s2.498-11.746 6.538-15.787v0l38.827-38.542c-7.141-12.159-11.359-26.78-11.359-42.386 0-46.814 37.95-84.764 84.764-84.764 0.293 0 0.586 0.001 0.879 0.004h-0.045c0.042 0 0.093 0 0.143 0 47.028 0 85.171 38.043 85.333 85.034v0.015zM1008.071 234.524c-0.165-22.261-18.248-40.243-40.532-40.243-11.156 0-21.26 4.507-28.589 11.8l0.002-0.002c-7.309 7.266-11.832 17.327-11.832 28.444s4.523 21.178 11.83 28.443l0.002 0.002c7.343 7.257 17.441 11.739 28.587 11.739s21.244-4.483 28.591-11.743l-0.004 0.004c7.375-7.233 11.947-17.302 11.947-28.439 0-0.002 0-0.004 0-0.006v0zM1152 623.36c2.072 7.016 3.264 15.077 3.264 23.416 0 47.285-38.332 85.618-85.618 85.618s-85.618-38.332-85.618-85.618c0-0.382 0.003-0.764 0.007-1.145l-0.001 0.058h-54.898c-12.516 0-22.613-9.956-22.613-22.329 0-12.231 10.098-22.329 22.613-22.329h54.898c10.535-36.198 43.407-62.202 82.354-62.202 46.903 0 84.998 37.715 85.61 84.473l0.001 0.058zM1107.058 623.36c0-22.386-18.147-40.533-40.533-40.533s-40.533 18.147-40.533 40.533v0c0 22.386 18.147 40.533 40.533 40.533s40.533-18.147 40.533-40.533v0zM866.276 623.36c-0.036 12.383-10.083 22.408-22.471 22.408-6.225 0-11.859-2.531-15.928-6.62l-0.001-0.001c-4.039-4.041-6.538-9.622-6.538-15.787s2.498-11.746 6.538-15.787v0c4.093-3.981 9.689-6.435 15.858-6.435s11.764 2.455 15.863 6.441l-0.005-0.005c4.267 4.267 6.684 9.956 6.684 15.787zM245.476 622.791c0 12.373-10.098 22.471-22.613 22.471h-54.898c-10.537 36.195-43.408 62.196-82.352 62.196-46.951 0-85.076-37.793-85.612-84.617v-0.051c-2.072-7.016-3.264-15.077-3.264-23.416 0-47.285 38.332-85.618 85.618-85.618s85.618 38.332 85.618 85.618c0 0.382-0.003 0.764-0.007 1.145l0.001-0.058h54.898c12.516 0 22.613 9.956 22.613 22.329zM126.009 622.791c0-22.386-18.147-40.533-40.533-40.533s-40.533 18.147-40.533 40.533v0c0 22.386 18.147 40.533 40.533 40.533s40.533-18.147 40.533-40.533v0zM296.249 344.747c-4.070 4.090-9.704 6.621-15.929 6.621s-11.859-2.531-15.928-6.62l-0.001-0.001-38.827-38.684c-12.217 7.136-26.897 11.35-42.561 11.35-23.587 0-44.943-9.554-60.409-25.004l0.001 0.001c-15.685-15.373-25.408-36.778-25.408-60.453 0-46.736 37.887-84.622 84.622-84.622 0.433 0 0.864 0.003 1.296 0.010l-0.065-0.001c47.065 0.084 85.186 38.257 85.186 85.333 0 15.364-4.060 29.78-11.167 42.233l0.22-0.419 38.969 38.542c8.676 8.818 8.676 22.898 0 31.716zM223.716 232.391c-0.165-22.261-18.248-40.243-40.532-40.243-11.156 0-21.26 4.507-28.589 11.8l0.002-0.002c-7.309 7.266-11.832 17.327-11.832 28.444s4.523 21.178 11.83 28.443l0.002 0.002c7.343 7.257 17.441 11.739 28.587 11.739s21.244-4.483 28.591-11.743l-0.004 0.004c7.291-7.22 11.805-17.232 11.805-28.299 0-0.051 0-0.102 0-0.153v0.008z"></path>
</svg>
