<!-- Generated by IcoMoon.io -->
<svg version="1.1" xmlns="http://www.w3.org/2000/svg" width="1024" height="1024" viewBox="0 0 1024 1024">
<title></title>
<g id="icomoon-ignore">
</g>
<path fill="#ed4d4d" d="M944.15 852.101l-149.653-262.904c15.168-7.078 24.268-23.257 23.257-41.458l-11.123-93.028 63.704-66.737c14.156-14.156 15.168-38.424 1.011-55.614l-63.704-68.76 13.145-94.039c2.022-20.223-12.134-40.447-32.357-44.492l-92.017-18.201-44.492-81.905c-9.101-19.212-31.346-27.302-51.57-19.212h-1.011l-84.938 39.436-82.916-40.447c-9.101-5.056-20.223-6.067-30.335-3.034s-18.201 10.112-23.257 19.212l-45.503 81.905-92.017 16.179c-21.235 4.045-35.391 23.257-33.369 45.503l11.123 93.028-63.704 66.737c-14.156 14.156-15.168 38.424-1.011 55.614l63.704 68.76-13.145 94.039c-2.022 18.201 9.101 35.391 26.29 42.469l-150.664 266.949c-4.045 6.067-3.034 14.156 0 20.223 4.045 6.067 10.112 10.112 17.19 10.112h161.787l73.815 128.419c4.045 6.067 10.112 10.112 17.19 10.112s14.156-4.045 17.19-10.112l144.597-246.726 144.597 249.759c4.045 6.067 10.112 10.112 17.19 10.112s14.156-4.045 17.19-10.112l73.815-131.452h161.787c7.078 0 14.156-4.045 17.19-10.112 5.056-6.067 5.056-14.156 1.011-20.223zM350.593 960.296l-62.693-108.195c-4.045-6.067-10.112-10.112-17.19-10.112h-139.542l139.542-246.726 57.637 10.112 44.492 81.905c9.101 19.212 31.346 27.302 51.57 19.212h1.011l41.458-19.212 20.223 35.391-136.508 237.625zM409.241 670.090c-1.011 0-1.011 0-1.011 0l-44.492-83.927c-6.067-10.112-16.179-18.201-28.313-19.212l-93.028-17.19 13.145-93.028c2.022-12.134-2.022-25.279-10.112-33.369l-62.693-68.76 63.704-66.737c9.101-9.101 13.145-21.235 11.123-33.369l-11.123-92.017c0 0 0-1.011 1.011-2.022l92.017-16.179c11.123-2.022 22.246-9.101 28.313-20.223l45.503-81.905 82.916 40.447c11.123 6.067 25.279 6.067 36.402 0l83.927-38.424c1.011 0 1.011 0 1.011 0l44.492 83.927c6.067 10.112 16.179 18.201 27.302 19.212l92.017 18.201-13.145 93.028c-2.022 12.134 2.022 25.279 10.112 33.369l63.704 68.76-64.715 66.737c-9.101 9.101-13.145 21.235-11.123 33.369l11.123 93.028-91.005 15.168c-11.123 2.022-22.246 9.101-28.313 20.223l-45.503 81.905-82.916-40.447c-11.123-6.067-25.279-6.067-36.402 0l-83.927 39.436zM753.039 841.989c-7.078 0-14.156 4.045-17.19 10.112l-62.693 111.229-142.575-246.726c-1.011-3.034-2.022-5.056-4.045-7.078l-22.246-39.436 7.078-3.034 82.916 40.447c6.067 3.034 12.134 4.045 18.201 4.045 14.156 0 28.313-7.078 35.391-20.223l45.503-81.905 60.67-11.123 138.53 243.692h-139.542z"></path>
<path fill="#ed4d4d" d="M713.603 356.627c0-111.229-91.005-202.234-202.234-202.234s-202.234 91.005-202.234 202.234 91.005 202.234 202.234 202.234 202.234-91.005 202.234-202.234zM511.369 518.415c-88.983 0-161.787-72.804-161.787-161.787s72.804-161.787 161.787-161.787 161.787 72.804 161.787 161.787-72.804 161.787-161.787 161.787z"></path>
</svg>
