<!-- Generated by IcoMoon.io -->
<svg version="1.1" xmlns="http://www.w3.org/2000/svg" width="1141" height="1024" viewBox="0 0 1141 1024">
<title></title>
<g id="icomoon-ignore">
</g>
<path fill="#ce4e4e" d="M872.448 433.006v310.857c0 8.923-4.535 17.262-11.995 21.943l-134.29 84.846c-3.897 2.497-8.651 3.98-13.751 3.98-14.219 0-25.746-11.527-25.746-25.746 0-0.062 0-0.124 0.001-0.186v0.010-295.497l-391.607-222.939-218.99 138.094 367.177 209.189 177.883-112.347c3.901-2.48 8.654-3.953 13.751-3.953 14.302 0 25.895 11.594 25.895 25.895 0 9.205-4.803 17.288-12.039 21.88l-0.106 0.063-191.049 120.539c-3.891 2.487-8.636 3.964-13.727 3.964-4.69 0-9.088-1.254-12.875-3.445l0.124 0.066-418.085-238.153c-7.909-4.532-13.151-12.924-13.151-22.541 0-9.197 4.795-17.274 12.022-21.868l0.105-0.063 671.451-423.643c3.891-2.487 8.636-3.964 13.727-3.964 4.69 0 9.088 1.254 12.875 3.445l-0.124-0.066 418.085 238.153c7.798 4.559 12.953 12.891 12.953 22.427 0 9.175-4.773 17.236-11.971 21.835l-0.104 0.062-191.049 120.686c-3.901 2.48-8.654 3.953-13.751 3.953-14.302 0-25.895-11.594-25.895-25.895 0-9.205 4.803-17.288 12.039-21.88l0.106-0.063 154.624-97.573-367.177-209.189-218.843 138.386 380.343 216.503c1.997 1.203 3.724 2.558 5.267 4.097l0.438 0.438 2.048 2.341 0.293 0.293 1.463 2.194 1.463 2.926 0.293 0.731c0.719 1.733 1.281 3.754 1.592 5.856l0.017 0.142v0.585l0.293 2.633zM820.809 729.673v-249.271l-28.965 18.286c-3.913 2.55-8.702 4.067-13.845 4.067-9.204 0-17.274-4.858-21.786-12.149l-0.063-0.11c-2.466-3.893-3.93-8.632-3.93-13.713 0-9.134 4.73-17.163 11.873-21.773l0.102-0.062 32.183-20.48-367.177-209.042-84.553 53.541 380.489 216.795c8.046 4.535 13.166 13.166 13.166 22.382v263.607zM1137.079 353.719c7.607 11.995 3.95 28.087-8.192 35.694l-191.049 120.539c-3.898 2.5-8.655 3.985-13.759 3.985-9.133 0-17.156-4.756-21.727-11.926l-0.062-0.104c-2.506-3.916-3.995-8.693-3.995-13.818 0-9.161 4.758-17.211 11.938-21.814l0.103-0.062 191.049-120.686c3.907-2.515 8.678-4.010 13.798-4.010 9.204 0 17.281 4.83 21.833 12.094l0.063 0.108zM656.823 656.823c7.607 11.995 3.95 28.087-8.192 35.694l-191.049 120.539c-3.891 2.487-8.636 3.964-13.727 3.964-4.69 0-9.088-1.254-12.875-3.445l0.124 0.066-418.085-238.153c-7.121-4.691-11.757-12.651-11.757-21.693 0-14.3 11.592-25.893 25.893-25.893 4.176 0 8.12 0.988 11.613 2.744l-0.149-0.068 404.48 230.4 178.030-112.347c3.907-2.515 8.678-4.010 13.798-4.010 9.204 0 17.281 4.83 21.833 12.094l0.063 0.108zM1137.079 457.143c7.607 12.142 3.95 28.087-8.192 35.694l-191.049 120.686c-3.889 2.509-8.641 4-13.74 4-9.177 0-17.226-4.828-21.745-12.083l-0.063-0.108c-2.506-3.916-3.995-8.693-3.995-13.818 0-9.161 4.758-17.211 11.938-21.814l0.103-0.062 191.049-120.539c3.922-2.541 8.716-4.051 13.863-4.051 9.161 0 17.205 4.785 21.768 11.991l0.062 0.105zM656.823 760.247c7.607 12.142 3.95 28.087-8.192 35.694l-191.049 120.539c-3.891 2.487-8.636 3.964-13.727 3.964-4.69 0-9.088-1.254-12.875-3.445l0.124 0.066-418.085-238.007c-7.886-4.542-13.11-12.925-13.11-22.528 0-14.31 11.6-25.91 25.91-25.91 4.707 0 9.121 1.255 12.925 3.449l-0.125-0.067 404.48 230.546 178.030-112.347c3.922-2.541 8.716-4.051 13.863-4.051 9.161 0 17.205 4.785 21.768 11.991l0.062 0.105zM1137.079 560.713c7.607 11.995 3.95 28.087-8.192 35.694l-191.049 120.539c-3.889 2.509-8.641 4-13.74 4-9.177 0-17.226-4.828-21.745-12.083l-0.063-0.108c-2.466-3.893-3.93-8.632-3.93-13.713 0-9.134 4.73-17.163 11.873-21.773l0.102-0.062 191.049-120.686c3.907-2.515 8.678-4.010 13.798-4.010 9.204 0 17.281 4.83 21.833 12.094l0.063 0.108zM656.823 863.817c7.607 11.995 3.95 27.941-8.192 35.547l-191.049 120.686c-3.891 2.487-8.636 3.964-13.727 3.964-4.69 0-9.088-1.254-12.875-3.445l0.124 0.066-418.085-238.153c-7.121-4.691-11.757-12.651-11.757-21.693 0-14.3 11.592-25.893 25.893-25.893 4.176 0 8.12 0.988 11.613 2.744l-0.149-0.068 404.48 230.4 178.030-112.347c3.907-2.515 8.678-4.010 13.798-4.010 9.204 0 17.281 4.83 21.833 12.094l0.063 0.108z"></path>
</svg>
