<!-- Generated by IcoMoon.io -->
<svg version="1.1" xmlns="http://www.w3.org/2000/svg" width="1132" height="1024" viewBox="0 0 1132 1024">
<title></title>
<g id="icomoon-ignore">
</g>
<path fill="#ce4e4e" d="M1113.825 84.974v673.325c0 0.054 0 0.118 0 0.182 0 36.62-29.534 66.343-66.082 66.647h-330.224v48.865c0 44.553 35.93 80.842 79.944 80.842h72.758c14.013 0 25.331 11.498 25.331 25.69 0 14.013-11.318 25.51-25.151 25.51h-609.011c-13.833 0-25.151-11.498-25.151-25.51 0-14.192 11.318-25.69 25.151-25.69h72.938c44.239-0.407 79.944-36.363 79.944-80.659 0-0.064 0-0.129 0-0.193v0.010-48.865h-330.195c-36.556-0.203-66.112-29.885-66.112-66.469 0-0.127 0-0.253 0.001-0.38v0.020-673.325c-0.001-0.16-0.002-0.35-0.002-0.54 0-36.585 29.557-66.267 66.094-66.469h963.657c36.557 0.203 66.113 29.884 66.113 66.469 0 0.19-0.001 0.379-0.002 0.569v-0.029zM694.524 954.835c-17.146-22.099-27.486-50.224-27.486-80.765 0-0.027 0-0.054 0-0.081v0.004-48.865h-202.285v48.865c0 30.54-10.24 58.566-27.486 80.842zM1063.343 623.921h-995.076v134.378c0 8.623 7.186 15.809 15.629 15.809h963.638c8.623 0 15.629-7.186 15.629-15.809zM1063.343 572.721v-487.747c0-8.803-7.186-15.809-15.629-15.809h-963.638c-8.623 0-15.629 7.186-15.629 15.809v487.747zM565.895 671.528c15.091 0 27.307 12.216 27.307 27.486s-12.216 27.486-27.307 27.486-27.307-12.216-27.307-27.486 12.216-27.666 27.307-27.666zM609.19 230.31l-178.571 180.727c-4.56 4.606-10.885 7.458-17.875 7.458s-13.315-2.852-17.873-7.456l-0.002-0.002c-4.594-4.666-7.43-11.074-7.43-18.145s2.836-13.478 7.434-18.148l-0.003 0.003 178.571-180.547c4.569-4.66 10.929-7.549 17.965-7.549s13.396 2.889 17.961 7.545l0.004 0.004c9.701 9.881 9.701 26.049 0 35.93zM715.183 335.046l-71.321 71.86c-4.56 4.606-10.885 7.458-17.875 7.458s-13.315-2.852-17.873-7.456l-0.002-0.002c-4.541-4.657-7.342-11.029-7.342-18.055s2.801-13.398 7.348-18.060l-0.005 0.005 71.141-71.86c4.569-4.66 10.929-7.549 17.965-7.549s13.396 2.889 17.961 7.545l0.004 0.004c9.701 9.881 9.701 26.049 0 35.93z"></path>
<path fill="none" stroke="#ce4e4e" stroke-width="10.7789" stroke-miterlimit="50" stroke-linecap="butt" stroke-linejoin="miter" d="M1113.825 84.974v673.325c0 0.054 0 0.118 0 0.182 0 36.62-29.534 66.343-66.082 66.647h-330.224v48.865c0 44.553 35.93 80.842 79.944 80.842h72.758c14.013 0 25.331 11.498 25.331 25.69 0 14.013-11.318 25.51-25.151 25.51h-609.011c-13.833 0-25.151-11.498-25.151-25.51 0-14.192 11.318-25.69 25.151-25.69h72.938c44.239-0.407 79.944-36.363 79.944-80.659 0-0.064 0-0.129 0-0.193v0.010-48.865h-330.195c-36.556-0.203-66.112-29.885-66.112-66.469 0-0.127 0-0.253 0.001-0.38v0.020-673.325c-0.001-0.16-0.002-0.35-0.002-0.54 0-36.585 29.557-66.267 66.094-66.469h963.657c36.557 0.203 66.113 29.884 66.113 66.469 0 0.19-0.001 0.379-0.002 0.569v-0.029zM694.524 954.835c-17.146-22.099-27.486-50.224-27.486-80.765 0-0.027 0-0.054 0-0.081v0.004-48.865h-202.285v48.865c0 30.54-10.24 58.566-27.486 80.842zM1063.343 623.921h-995.076v134.378c0 8.623 7.186 15.809 15.629 15.809h963.638c8.623 0 15.629-7.186 15.629-15.809zM1063.343 572.721v-487.747c0-8.803-7.186-15.809-15.629-15.809h-963.638c-8.623 0-15.629 7.186-15.629 15.809v487.747zM565.895 671.528c15.091 0 27.307 12.216 27.307 27.486s-12.216 27.486-27.307 27.486-27.307-12.216-27.307-27.486 12.216-27.666 27.307-27.666zM609.19 230.31l-178.571 180.727c-4.56 4.606-10.885 7.458-17.875 7.458s-13.315-2.852-17.873-7.456l-0.002-0.002c-4.594-4.666-7.43-11.074-7.43-18.145s2.836-13.478 7.434-18.148l-0.003 0.003 178.571-180.547c4.569-4.66 10.929-7.549 17.965-7.549s13.396 2.889 17.961 7.545l0.004 0.004c9.701 9.881 9.701 26.049 0 35.93zM715.183 335.046l-71.321 71.86c-4.56 4.606-10.885 7.458-17.875 7.458s-13.315-2.852-17.873-7.456l-0.002-0.002c-4.541-4.657-7.342-11.029-7.342-18.055s2.801-13.398 7.348-18.060l-0.005 0.005 71.141-71.86c4.569-4.66 10.929-7.549 17.965-7.549s13.396 2.889 17.961 7.545l0.004 0.004c9.701 9.881 9.701 26.049 0 35.93z"></path>
</svg>
