<!-- Generated by IcoMoon.io -->
<svg version="1.1" xmlns="http://www.w3.org/2000/svg" width="934" height="1024" viewBox="0 0 934 1024">
<title></title>
<g id="icomoon-ignore">
</g>
<path fill="#ce4e4e" d="M933.646 290.766v654.537c0 43.396-34.253 78.7-76.358 78.7h-571.337c-42.105 0-76.358-35.335-76.358-78.746v-177.256h-152.468c-31.499 0-57.129-26.478-57.129-59.029v-295.482c0-32.551 25.63-59.029 57.129-59.029h152.468v-275.582c0-43.488 34.253-78.884 76.358-78.884h376.217c5.18 0 10.137 2.187 13.732 6.042l252.422 271.084c3.416 3.671 5.325 8.551 5.325 13.644zM666.889 275.684h207.218l-207.218-222.533zM571.653 728.613c10.488 0 19.019-8.811 19.019-19.641v-295.482c0-10.83-8.531-19.641-19.019-19.641h-514.529c-10.485 0-19.019 8.811-19.019 19.641v295.482c0 10.83 8.531 19.641 19.019 19.641zM895.539 945.303v-630.23h-247.703c-10.523 0-19.053-8.826-19.053-19.687v-256.002h-342.832c-21.090 0-38.252 17.713-38.252 39.496v275.582h323.954c31.503 0 57.129 26.478 57.129 59.029v295.482c0 32.551-25.626 59.029-57.129 59.029h-323.954v177.256c0 21.706 17.161 39.358 38.252 39.358h571.337c21.090 0 38.252-17.637 38.252-39.312zM237.283 532.726c0 10.386-1.823 19.105-5.47 26.188-3.65 7.082-8.282 12.65-13.9 16.688-5.621 4.038-11.333 6.715-17.14 8.015-7.89 1.622-19.315 2.432-34.274 2.432h-21.549v63.802h-33.047v-169.149h53.031c20.098 0 33.195 0.826 39.299 2.524 9.378 2.539 17.23 8.077 23.558 16.551 6.325 8.505 9.489 19.488 9.492 32.949zM203.226 533.185c0-6.149-1.747-11.228-5.246-15.22-3.498-4.008-7.927-6.516-13.287-7.495-3.943-0.78-11.87-1.163-23.779-1.163h-15.965v48h18.085c13.025 0 21.731-0.872 26.126-2.646 4.391-1.775 7.834-4.558 10.326-8.321 2.496-3.763 3.743-8.153 3.74-13.155zM401.511 566.898c0 13.904-1.675 25.928-5.025 35.993-4.095 12.298-9.937 22.256-17.53 29.874-5.728 5.767-13.47 10.264-23.22 13.507-7.293 2.371-17.044 3.579-29.252 3.579h-62.185v-169.149h60.4c13.621 0 24.003 1.071 31.148 3.228 9.602 2.922 17.826 8.107 24.675 15.572 6.845 7.465 12.056 16.597 15.631 27.396 3.571 10.815 5.36 24.122 5.36 40zM367.344 565.384c0-13.079-1.113-23.113-3.347-30.119-2.234-6.991-5.36-12.451-9.378-16.382-4.019-3.916-9.12-6.577-15.296-7.954-4.615-1.086-13.659-1.622-27.129-1.622h-14.848v112.031h24.671c9.23 0 15.893-0.535 19.987-1.622 5.356-1.361 9.806-3.717 13.339-7.021 3.536-3.304 6.421-8.765 8.655-16.337s3.347-17.897 3.347-30.975zM462.803 509.307v40.046h68.327v28.605h-68.327v71.894h-33.047v-169.149h112.204v28.605z"></path>
</svg>
