<!-- Generated by IcoMoon.io -->
<svg version="1.1" xmlns="http://www.w3.org/2000/svg" width="1024" height="1024" viewBox="0 0 1024 1024">
<title></title>
<g id="icomoon-ignore">
</g>
<path fill="#fff" d="M746.108 501.407l135.592 135.592 1.059 1.236 0.706 0.883c0.708 0.918 1.408 1.956 2.042 3.037l0.077 0.141 0.53 1.236 0.53 0.883 0.706 2.119 102.753 311.614c0.773 2.316 1.22 4.982 1.22 7.752 0 13.943-11.303 25.247-25.247 25.247-2.77 0-5.436-0.446-7.93-1.271l0.178 0.051-312.143-102.93c-0.707-0.207-1.235-0.387-1.755-0.585l0.166 0.056-0.883-0.53-1.236-0.53c-1.593-0.6-2.949-1.502-4.058-2.645l-324.682-324.682-252.999 253.175 152.188 151.834 70.268-70.091-55.261-55.437c-4.579-4.557-7.412-10.863-7.412-17.832 0-13.893 11.263-25.156 25.156-25.156 6.925 0 13.196 2.798 17.744 7.325l55.436 55.436 60.028-60.028-55.261-55.437c-5.533-4.662-9.025-11.596-9.025-19.345 0-13.943 11.303-25.247 25.247-25.247 7.705 0 14.604 3.452 19.235 8.893l0.030 0.036 55.437 55.437 9.181-9.181c4.636-5.090 11.29-8.271 18.688-8.271 13.943 0 25.247 11.303 25.247 25.247 0 7.397-3.182 14.052-8.251 18.669l-0.020 0.018-228.634 228.458c-4.547 4.599-10.857 7.448-17.832 7.448s-13.285-2.848-17.829-7.446l-187.676-187.5c-4.557-4.567-7.374-10.87-7.374-17.832s2.818-13.265 7.375-17.832v0l270.83-270.83-213.098-212.921c-25.603-25.593-41.439-60.956-41.439-100.017s15.836-74.423 41.439-100.016l44.492-44.492c25.464-25.628 60.73-41.49 99.701-41.49 0.142 0 0.284 0 0.426 0.001h-0.022c37.782 0 73.269 14.83 99.928 41.49l400.772 400.772 51.2-51.553-55.261-55.261c-4.564-4.564-7.386-10.868-7.386-17.832 0-13.927 11.29-25.218 25.218-25.218 6.964 0 13.268 2.823 17.832 7.386v0l55.261 55.437 60.204-60.028-55.437-55.437c-4.564-4.564-7.386-10.868-7.386-17.832 0-13.927 11.29-25.218 25.218-25.218 6.964 0 13.268 2.823 17.832 7.386l55.437 55.437 70.268-70.268-152.011-152.188-198.974 198.974c-4.37 3.72-10.080 5.982-16.318 5.982-13.943 0-25.247-11.303-25.247-25.247 0-6.194 2.231-11.868 5.933-16.26l-0.031 0.038 216.806-216.806c4.558-4.504 10.826-7.287 17.743-7.287s13.186 2.782 17.746 7.289l187.672 187.672c9.887 9.71 9.887 25.777 0 35.487zM926.72 926.543l-74.152-225.457-151.305 151.128zM827.851 654.477l-458.152-458.152-84.745 84.745c-4.37 3.72-10.080 5.982-16.318 5.982-13.943 0-25.247-11.303-25.247-25.247 0-6.194 2.231-11.868 5.933-16.26l-0.031 0.038 84.745-84.745-60.028-60.028c-16.4-16.619-39.175-26.913-64.353-26.913s-47.953 10.294-64.343 26.904l-0.010 0.010-44.668 44.491c-16.447 16.479-26.618 39.229-26.618 64.353s10.171 47.874 26.619 64.355l-0.001-0.001 77.859 77.683 476.16 475.983z"></path>
</svg>
