<!-- Generated by IcoMoon.io -->
<svg version="1.1" xmlns="http://www.w3.org/2000/svg" width="1024" height="1024" viewBox="0 0 1024 1024">
<title></title>
<g id="icomoon-ignore">
</g>
<path fill="#ce4e4e" d="M1024 512c0 282.77-229.23 512-512 512s-512-229.23-512-512v0c0-282.77 229.23-512 512-512s512 229.23 512 512v0zM704.062 512c0-10.989-5.744-21.229-14.985-27.223l-256-159.844c-4.818-3.065-10.688-4.884-16.984-4.884-17.617 0-31.906 14.25-31.969 31.852v320.193c0.063 17.608 14.352 31.858 31.969 31.858 6.295 0 12.166-1.82 17.114-4.962l-0.13 0.077 256-159.844c9.241-5.994 14.985-16.234 14.985-27.223z"></path>
</svg>
