<!-- Generated by IcoMoon.io -->
<svg version="1.1" xmlns="http://www.w3.org/2000/svg" width="881" height="1024" viewBox="0 0 881 1024">
<title></title>
<g id="icomoon-ignore">
</g>
<path fill="#ce4e4e" d="M342.197 310.311c0 11.795-3.5 21.128-10.24 27.998-6.868 6.773-15.895 11.374-25.956 12.679l-0.228 0.024v5.963c0 2.852-3.629 4.796-6.481 4.796-3.241 0-6.611-1.944-6.611-4.926v-5.314c-13.869 0-30.202-5.444-37.59-15.554-4.018-5.314-4.407-10.758 0-16.851 3.5-4.926 8.166-6.351 12.962-2.722 9.851 7.259 14.517 11.147 24.628 12.314v-38.108c-13.999-5.314-26.831-9.981-33.961-23.072-2.129-4.683-3.37-10.156-3.37-15.918 0-5.533 1.144-10.8 3.209-15.575l-0.098 0.254c6.222-13.481 19.313-19.573 34.22-21.517v-5.444c0-2.852 3.241-4.796 6.481-4.796 3.111 0 6.481 1.944 6.481 4.796v5.185c6.481 0 14.777 0.907 21.258 3.241 8.425 3.111 13.351 7.259 11.147 15.554-0.431 1.672-1.053 3.139-1.857 4.484l0.043-0.077c-5.185 8.685-12.314 3.759-16.332 1.815-4.144-2.158-9.003-3.558-14.153-3.883l-0.105-0.005v33.701c20.61 7.388 36.423 16.851 36.423 40.96zM294.238 265.073v-28.905c-8.296 1.296-15.425 5.185-15.425 13.481 0 7.129 3.759 10.888 15.425 15.554zM318.607 312.903c0-6.74-2.463-12.444-14.388-17.628v33.312c8.425-1.815 14.388-6.74 14.388-15.684zM692.172 183.283c0 71.802-58.207 130.009-130.009 130.009s-130.009-58.207-130.009-130.009v0c0-71.802 58.207-130.009 130.009-130.009s130.009 58.207 130.009 130.009v0zM661.971 183.283c0-55.122-44.685-99.808-99.808-99.808s-99.808 44.685-99.808 99.808v0c0 55.122 44.685 99.808 99.808 99.808s99.808-44.685 99.808-99.808v0zM606.882 212.059c0 25.406-16.98 37.59-36.294 40.571v5.963c0 2.852-3.629 4.796-6.611 4.796-3.241 0-6.481-1.944-6.481-4.926v-5.314c-14.258 0-30.331-5.444-37.719-15.554-3.889-5.185-4.277-10.758 0-16.851 3.629-4.926 8.296-6.351 12.962-2.722 9.851 7.388 14.647 11.147 24.628 12.314v-38.108c-20.48-7.777-37.201-15.554-37.201-38.497 0-17.239 9.073-28.646 23.332-33.961 4.407-1.685 9.073-2.722 13.869-3.37v-5.444c0-2.852 3.37-4.796 6.481-4.796s6.611 2.074 6.611 4.926v4.926c9.592 0 22.165 1.944 29.553 8.036 4.666 3.889 3.889 10.11 0.907 15.295s-7.777 6.092-11.666 4.018c-5.387-3.274-11.779-5.456-18.623-6.080l-0.172-0.013v33.701c21.517 7.777 36.294 17.628 36.294 41.090zM558.923 137.786c-8.296 1.296-15.295 5.185-15.295 13.481 0 7.129 3.629 10.888 15.295 15.554zM583.421 214.522c0-6.74-2.592-12.444-14.517-17.628v33.312c8.555-1.815 14.517-6.74 14.517-15.684zM851.346 662.1v-47.311h-237.464c-47.959 0-86.846 38.886-86.846 86.586 0 47.83 38.886 86.716 86.846 86.716h237.464v-55.996c0-8.304 6.732-15.036 15.036-15.036s15.036 6.732 15.036 15.036v0 253.019c0 21.517-17.499 39.016-39.145 39.016h-366.436c-0.418 0.041-0.904 0.065-1.395 0.065-8.304 0-15.036-6.732-15.036-15.036s6.732-15.036 15.036-15.036c0.491 0 0.977 0.024 1.456 0.070l-0.061-0.005h366.436c5.011 0 9.073-4.062 9.073-9.073v0-166.951h-237.464c-0.039 0-0.084 0-0.13 0-64.481 0-116.77-52.198-116.917-116.644v-0.014c0-64.292 52.496-116.658 117.047-116.658h237.464v-166.951c0-5.011-4.062-9.073-9.073-9.073h-803.127c-5.011 0-9.073 4.062-9.073 9.073v0 567.218c0 4.926 4.148 9.073 9.073 9.073h366.436c0.418-0.041 0.904-0.065 1.395-0.065 8.304 0 15.036 6.732 15.036 15.036s-6.732 15.036-15.036 15.036c-0.491 0-0.977-0.024-1.456-0.070l0.061 0.005h-366.436c0 0 0 0 0 0-21.574 0-39.071-17.452-39.145-39.009v-567.225c0-21.517 17.499-38.886 39.145-38.886h102.27c-17.567-27.558-27.998-61.148-27.998-97.175 0-0.014 0-0.028 0-0.043v0.002c0.298-101.357 82.532-183.407 183.93-183.407 33.572 0 65.043 8.994 92.136 24.705l-0.882-0.472c25.997-72.080 93.806-122.678 173.432-122.678 101.466 0 183.742 82.16 183.931 183.581v0.018c-0.214 101.349-82.422 183.426-183.801 183.426-33.574 0-65.046-9.002-92.133-24.724l0.88 0.472c-4.537 12.703-10.37 24.757-17.499 36.294h388.861c0 0 0.001 0 0.001 0 21.528 0 38.997 17.378 39.144 38.872v244.348c0 8.304-6.732 15.036-15.036 15.036s-15.036-6.732-15.036-15.036v0zM211.411 378.75c-26.949-23.802-43.905-58.382-44.071-96.927v-0.029c0-0.031 0-0.069 0-0.106 0-71.73 58.149-129.879 129.879-129.879 30.757 0 59.017 10.691 81.266 28.56l-0.254-0.197c0.13-9.462 1.037-18.536 2.592-27.22-23.571-15.447-52.45-24.638-83.476-24.638-84.815 0-153.588 68.685-153.729 153.467v0.014c0 35.386 12.184 69.606 34.738 96.956zM397.286 281.794c0-21.128-4.277-24.628-9.462-39.793-12.184-36.034-52.107-59.885-90.475-59.885-55.077 0-99.734 44.612-99.808 99.671v0.007c0 46.145 32.405 86.846 77.513 96.956h44.719c44.566-10.57 77.253-49.909 77.513-96.927v-0.029zM444.986 324.828c-7.129-5.963-13.74-12.444-19.832-19.313-5.444 28.646-20.48 54.441-41.867 73.235h33.183c12.962-15.814 22.813-34.349 28.516-53.922zM562.163 336.753c84.772 0 153.859-68.699 153.859-153.341 0-84.974-68.885-153.859-153.859-153.859s-153.859 68.885-153.859 153.859v0c0 83.994 68.569 153.341 153.859 153.341zM723.929 702.412c0 0 0 0 0 0 0 29.566-23.968 53.533-53.533 53.533-0.046 0-0.091 0-0.137 0h-52.23c-29.566 0-53.533-23.968-53.533-53.533v0c0.074-29.51 24.013-53.404 53.533-53.404 0 0 0 0 0 0h52.237c0.039 0 0.084 0 0.13 0 29.52 0 53.459 23.894 53.533 53.397v0.007zM693.857 702.412c0-12.962-10.629-23.332-23.591-23.332h-52.237c-12.962 0-23.461 10.37-23.461 23.332s10.499 23.461 23.461 23.461h52.237c12.962 0 23.591-10.37 23.591-23.332z"></path>
</svg>
