<!-- Generated by IcoMoon.io -->
<svg version="1.1" xmlns="http://www.w3.org/2000/svg" width="1024" height="1024" viewBox="0 0 1024 1024">
<title></title>
<g id="icomoon-ignore">
</g>
<path fill="#ed4d4d" d="M531.456 1004.032c0 5.12-2.048 10.24-5.803 14.165-3.637 3.6-8.641 5.824-14.165 5.824s-10.529-2.224-14.167-5.826l0.002 0.002c-3.6-3.637-5.824-8.641-5.824-14.165s2.224-10.529 5.826-14.167l-0.002 0.002c3.637-3.6 8.641-5.824 14.165-5.824s10.529 2.224 14.167 5.826l-0.002-0.002c3.755 3.755 5.803 8.875 5.803 14.165zM1024 789.504v134.485c0 11.093-8.875 19.968-19.968 19.968h-160.427v60.075c0 10.923-8.875 19.968-19.968 19.968h-227.669c-11.028 0-19.968-8.94-19.968-19.968s8.94-19.968 19.968-19.968h97.963v-88.064c0-11.075 8.978-20.053 20.053-20.053s20.053 8.978 20.053 20.053v0 88.064h69.632v-52.224c-1.016-2.315-1.608-5.014-1.608-7.851s0.592-5.535 1.658-7.979l-0.050 0.129v-22.187c0-67.925-46.080-126.293-112.128-142.165l-98.133-23.381-63.147 143.701c-3.137 7.168-10.167 12.086-18.347 12.086s-15.21-4.918-18.297-11.958l-0.050-0.128-63.147-144.043-98.475 23.723c-64.685 15.74-111.958 73.171-111.958 141.643 0 0.124 0 0.247 0 0.371v-0.019 90.283h69.973v-88.064c0-11.075 8.978-20.053 20.053-20.053s20.053 8.978 20.053 20.053v0 88.064h89.259c11.028 0 19.968 8.94 19.968 19.968s-8.94 19.968-19.968 19.968h-219.477c-10.923 0-19.968-9.045-19.968-19.968v-60.075h-159.915c-11.093 0-19.968-8.875-19.968-19.968v-134.485c0-64.683 44.032-120.32 106.837-135.339l66.731-16.043v-26.453c-37.253-23.739-61.607-64.833-61.611-111.616v0-74.411c0.244-72.77 59.292-131.667 132.095-131.667 39.343 0 74.668 17.199 98.868 44.489l0.12 0.137c22.049-73.982 89.466-127.001 169.266-127.001 79.675 0 147.005 52.853 168.843 125.411l0.323 1.248c24.26-27.413 59.53-44.607 98.816-44.607 72.766 0 131.755 58.989 131.755 131.755 0 0.082 0 0.165 0 0.247v-0.013 74.411c-0.003 46.783-24.357 87.877-61.078 111.298l-0.532 0.318v26.453l66.56 16.043c61.803 14.891 107.008 69.702 107.008 135.072 0 0.094 0 0.187 0 0.281v-0.015zM691.712 399.701c35.303 20.604 77.717 32.768 122.971 32.768 0.088 0 0.176 0 0.264 0h57.16v-6.827c-0.375-50.613-41.492-91.499-92.158-91.499-41.41 0-76.441 27.312-88.063 64.905l-0.174 0.653zM688.128 496.981v3.072c3.041 48.428 43.063 86.554 91.989 86.554s88.948-38.126 91.976-86.288l0.013-0.266v-27.477h-57.173c-44.032 0-87.381-10.24-126.805-29.525v53.76zM376.149 404.48h56.32c0.025 0 0.054 0 0.083 0 46.489 0 88.072-21.003 115.779-54.038l0.191-0.234c6.315-7.509 17.067-9.216 25.6-4.267l74.069 43.52v-2.56c-3.731-72.226-63.202-129.376-136.021-129.376s-132.29 57.15-136.008 129.044l-0.014 0.332zM151.893 432.469h57.173c43.179 0 85.675-11.264 123.051-32.768-11.967-37.966-46.861-65.016-88.072-65.016-50.476 0-91.473 40.578-92.151 90.893l-0.001 0.064zM244.053 592.043c50.692-0.194 91.722-41.284 91.819-91.98v-57.012c-36.995 18.622-80.626 29.525-126.805 29.525 0 0-0.001 0-0.001 0h-57.173v27.477c0 50.899 41.261 92.16 92.16 92.16v0zM221.013 777.045l-41.472-99.157-63.317 15.189c-44.064 10.642-76.288 49.733-76.288 96.349 0 0.027 0 0.055 0 0.082v-0.004 114.347h40.107v-88.747c0-11.028 8.94-19.968 19.968-19.968s19.968 8.94 19.968 19.968v88.747h59.904v-10.24c0-43.691 15.189-84.48 40.96-116.565zM274.091 655.872v-27.307c-9.074 2.233-19.491 3.514-30.208 3.514s-21.134-1.281-31.107-3.698l0.899 0.184v26.795l30.208 72.875zM386.048 697.685c-3.96-1.685-8.741-3.266-13.67-4.47l-0.666-0.138-63.488-15.36-19.456 46.763c10.752-4.949 22.187-8.875 33.792-11.605zM421.888 641.707c-28.41-17.26-51.081-41.408-66.094-70.187l-0.466-0.981c-10.712 16.764-24.537 30.589-40.769 40.983l-0.532 0.319v26.283l67.072 16.043c14.507 3.413 28.331 9.216 40.96 17.067zM561.835 700.757v-41.131c-14.801 4.501-31.813 7.093-49.43 7.093-18.039 0-35.443-2.717-51.826-7.764l1.245 0.33v41.301l50.176 113.835zM648.021 495.445v-59.733l-80.213-47.104c-34.521 34.483-82.192 55.809-134.843 55.809-0.174 0-0.349 0-0.523-0.001h-56.293v46.251c3.091 72.765 62.832 130.585 136.077 130.585 71.562 0 130.233-55.193 135.765-125.333l0.030-0.473zM601.941 642.219v29.013c12.459-7.851 26.453-13.653 40.96-17.067l67.072-16.043v-26.283c-16.668-10.641-30.428-24.347-40.814-40.436l-0.317-0.524c-15.552 29.804-38.344 53.965-66.107 70.723l-0.795 0.445zM735.061 724.651l-19.456-46.763-63.317 15.019c-5.12 1.365-9.899 2.901-14.677 4.779l63.147 15.189c13.167 3.236 24.594 7.329 35.452 12.431l-1.148-0.485zM779.947 728.064l30.549-73.045v-26.624c-9.207 2.298-19.777 3.616-30.655 3.616-10.617 0-20.94-1.256-30.83-3.627l0.898 0.182v24.747c0.032 0.409 0.051 0.885 0.051 1.365s-0.018 0.957-0.054 1.428l0.004-0.063zM984.064 789.504c0-0.023 0-0.050 0-0.078 0-46.616-32.224-85.707-75.612-96.211l-0.676-0.138-63.488-15.36-41.472 99.499c25.514 31.535 40.96 72.131 40.96 116.334 0 0.081 0 0.162 0 0.244v-0.013 10.24h60.245v-88.747c0-11.028 8.94-19.968 19.968-19.968s19.968 8.94 19.968 19.968v0 88.747h40.107zM464.896 482.475c0 11.075-8.978 20.053-20.053 20.053s-20.053-8.978-20.053-20.053v0c0-11.075 8.978-20.053 20.053-20.053s20.053 8.978 20.053 20.053v0zM598.699 482.475c0 11.075-8.978 20.053-20.053 20.053s-20.053-8.978-20.053-20.053v0c0-11.075 8.978-20.053 20.053-20.053s20.053 8.978 20.053 20.053v0zM550.571 563.883c-9.967 10.079-23.796 16.321-39.083 16.321s-29.116-6.242-39.078-16.316l-0.005-0.005c-3.589-3.61-5.807-8.586-5.807-14.080 0-11.031 8.942-19.973 19.973-19.973 5.536 0 10.547 2.253 14.164 5.892l0.001 0.001c5.973 5.803 15.531 5.803 21.504 0 3.619-3.64 8.629-5.893 14.165-5.893 11.031 0 19.973 8.942 19.973 19.973 0 5.494-2.218 10.47-5.808 14.081l0.001-0.001zM847.019 128c0 11.093-9.045 19.968-20.139 19.968h-13.653c-11.028 0-19.968-8.94-19.968-19.968s8.94-19.968 19.968-19.968h13.653c11.093 0 20.139 8.875 20.139 19.968zM943.957 128c0 11.093-8.875 19.968-19.968 19.968h-13.653c-11.028 0-19.968-8.94-19.968-19.968s8.94-19.968 19.968-19.968h13.653c11.093 0 19.968 8.875 19.968 19.968zM888.661 169.643v13.653c0 11.075-8.978 20.053-20.053 20.053s-20.053-8.978-20.053-20.053v0-13.653c0-11.075 8.978-20.053 20.053-20.053s20.053 8.978 20.053 20.053v0zM888.661 72.533v13.653c0 11.075-8.978 20.053-20.053 20.053s-20.053-8.978-20.053-20.053v0-13.653c0-11.075 8.978-20.053 20.053-20.053s20.053 8.978 20.053 20.053v0zM132.608 128c0 11.093-9.045 19.968-19.968 19.968h-13.653c-11.028 0-19.968-8.94-19.968-19.968s8.94-19.968 19.968-19.968h13.653c10.923 0 19.968 8.875 19.968 19.968zM229.717 128c0 11.093-9.045 19.968-20.139 19.968h-13.653c-11.028 0-19.968-8.94-19.968-19.968s8.94-19.968 19.968-19.968h13.653c11.093 0 20.139 8.875 20.139 19.968zM174.251 169.643v13.653c0 11.028-8.94 19.968-19.968 19.968s-19.968-8.94-19.968-19.968v-13.653c0-11.028 8.94-19.968 19.968-19.968s19.968 8.94 19.968 19.968v0zM174.251 72.533v13.653c0 11.028-8.94 19.968-19.968 19.968s-19.968-8.94-19.968-19.968v0-13.653c0-11.028 8.94-19.968 19.968-19.968s19.968 8.94 19.968 19.968v0zM531.968 96.085v52.736c0 11.028-8.94 19.968-19.968 19.968s-19.968-8.94-19.968-19.968v0-52.736c0-11.028 8.94-19.968 19.968-19.968s19.968 8.94 19.968 19.968v0zM531.968 19.968c-0.096 10.989-8.979 19.872-19.959 19.968h-0.009c-10.989-0.096-19.872-8.979-19.968-19.959v-0.009c0-5.12 2.048-10.24 5.803-14.165 3.637-3.6 8.641-5.824 14.165-5.824s10.529 2.224 14.167 5.826l-0.002-0.002c3.755 3.755 5.803 8.875 5.803 14.165zM441.856 108.544c-3.61 3.59-8.586 5.809-14.080 5.809s-10.47-2.219-14.081-5.81l-29.354-29.354c-3.589-3.61-5.807-8.586-5.807-14.080 0-11.031 8.942-19.973 19.973-19.973 5.536 0 10.547 2.253 14.164 5.892l29.185 29.185c7.851 7.851 7.851 20.48 0 28.331zM639.659 78.165l-30.208 30.208c-3.618 3.641-8.628 5.894-14.165 5.894s-10.547-2.254-14.164-5.893l-0.001-0.001c-3.641-3.618-5.894-8.628-5.894-14.165s2.254-10.547 5.893-14.164l30.209-30.209c3.625-3.625 8.633-5.867 14.165-5.867 11.064 0 20.033 8.969 20.033 20.033 0 5.532-2.242 10.54-5.867 14.165v0z"></path>
</svg>
