<!-- Generated by IcoMoon.io -->
<svg version="1.1" xmlns="http://www.w3.org/2000/svg" width="1024" height="1024" viewBox="0 0 1024 1024">
<title></title>
<g id="icomoon-ignore">
</g>
<path fill="#ce4e4e" d="M150.619 757.89l-51.070 50.941c-2.599 2.202-5.989 3.541-9.693 3.541-8.304 0-15.036-6.732-15.036-15.036 0-3.736 1.363-7.154 3.618-9.783l-0.017 0.020 50.941-50.941c2.744-2.877 6.607-4.666 10.888-4.666 8.304 0 15.036 6.732 15.036 15.036 0 4.281-1.789 8.144-4.66 10.882l-0.006 0.006zM200.134 807.405l-50.941 51.070c-2.744 2.877-6.607 4.666-10.888 4.666-8.304 0-15.036-6.732-15.036-15.036 0-4.281 1.789-8.144 4.66-10.882l0.006-0.006 51.070-50.941c2.779-3.469 7.014-5.672 11.764-5.672 8.304 0 15.036 6.732 15.036 15.036 0 4.75-2.203 8.986-5.642 11.741l-0.030 0.023zM299.423 906.694l-51.070 50.941c-2.779 3.469-7.014 5.672-11.764 5.672-8.304 0-15.036-6.732-15.036-15.036 0-4.75 2.203-8.986 5.642-11.741l0.030-0.023 50.941-51.070c2.744-2.877 6.607-4.666 10.888-4.666 8.304 0 15.036 6.732 15.036 15.036 0 4.281-1.789 8.144-4.66 10.882l-0.006 0.006zM249.778 857.049l-50.941 51.070c-2.692 2.568-6.346 4.148-10.37 4.148-8.304 0-15.036-6.732-15.036-15.036 0-4.023 1.58-7.677 4.153-10.376l-0.006 0.006 51.070-50.941c2.544-2.039 5.81-3.272 9.364-3.272 8.304 0 15.036 6.732 15.036 15.036 0 3.554-1.233 6.82-3.295 9.393l0.023-0.030zM1022.833 37.331l-50.163 171.488-41.608 142.453c-0.778 2.463-2.074 4.666-3.889 6.481l-209.726 209.726c-8.555 102.918-9.462 124.824-19.832 170.839-2.098 5.942-7.666 10.123-14.211 10.123-8.304 0-15.036-6.732-15.036-15.036 0-0.552 0.030-1.098 0.088-1.634l-0.006 0.067c8.425-37.849 10.11-57.163 16.203-131.565l-183.542 183.542 18.147 207.392c0.13 2.592 3.241 3.629 5.185 1.815 53.368-53.204 95.507-117.64 122.574-189.465l1.213-3.67c1.837-6.378 7.62-10.964 14.474-10.964 8.304 0 15.036 6.732 15.036 15.036 0 2.285-0.51 4.45-1.421 6.39l0.039-0.092c-29.839 79.745-74.319 147.814-130.647 204.012l-0.011 0.011c-9.203 9.073-22.554 12.055-34.738 7.648-11.969-4.369-20.567-15.186-21.639-28.139l-0.008-0.118-15.943-182.116-17.888 17.888c-12.184 12.184-32.146 12.314-44.33 0l-17.239-17.239-36.942 36.942c-6.726 6.698-16.004 10.839-26.248 10.839s-19.522-4.141-26.249-10.84l-129.619-129.619c-6.698-6.726-10.839-16.004-10.839-26.248s4.141-19.522 10.84-26.249l36.941-36.941-18.147-18.147c-11.795-11.666-11.666-30.72 0-42.386l18.795-18.925-182.116-15.943c-17.059-1.436-30.36-15.636-30.36-32.943 0-9.162 3.728-17.453 9.749-23.44l0.002-0.002c91.604-91.478 214.343-151.796 350.953-163.69l2.132-0.15 93.715-7.907 209.855-209.855c1.685-1.685 3.889-2.981 6.351-3.759l313.94-91.771c2.458-0.748 5.282-1.179 8.208-1.179 16.107 0 29.165 13.057 29.165 29.165 0 2.962-0.442 5.821-1.262 8.515l0.054-0.207zM240.186 522.888l183.542-183.542-58.329 4.926c-131.421 11.429-247.675 68.598-334.423 155.288l0.003-0.003c-0.503 0.551-0.811 1.287-0.811 2.094 0 1.593 1.197 2.906 2.74 3.089l0.015 0.001zM214.781 590.679l81.661 81.661 31.109-30.979-81.661-81.661zM275.313 693.598l-42.256-42.256-36.942 36.942c-1.231 1.298-1.988 3.056-1.988 4.99s0.757 3.692 1.991 4.994l37.846 37.846c1.296-2.074 3.111-4.277 4.926-6.092zM372.010 664.693l200.523-200.523c1.625-1.625 2.631-3.871 2.631-6.351 0-4.961-4.021-8.982-8.982-8.982-2.48 0-4.726 1.005-6.351 2.631l-298.904 299.034c-0.943 1.408-1.505 3.141-1.505 5.005 0 5.011 4.062 9.073 9.073 9.073 1.864 0 3.597-0.562 5.038-1.526l-0.033 0.021 98.511-98.511zM372.658 790.943l-42.256-42.256-36.294 36.294c-1.944 1.944-4.148 3.629-6.351 5.185l37.979 37.719c1.292 1.299 3.079 2.102 5.055 2.102s3.764-0.804 5.055-2.102v0zM464.3 778.24l-81.661-81.661-31.109 30.85 80.753 80.753c0.518 0.518 1.296 0.518 1.815 0.13h0.13zM941.302 208.818l-126.25-126.25-130.268 38.108-417.766 417.766 81.661 81.661 190.671-190.542c6.856-6.89 16.346-11.154 26.831-11.154s19.975 4.264 26.83 11.152l0.002 0.002c17.888 17.758 15.166 41.349 1.426 55.089l-190.542 190.542 81.661 81.79 417.766-417.766zM993.539 30.461l-145.564 42.515 103.048 103.048zM693.079 430.728c-55.087-0.236-99.652-44.946-99.652-100.066 0-40.168 23.667-74.808 57.817-90.736l0.616-0.258c1.828-0.848 3.967-1.343 6.222-1.343 8.33 0 15.083 6.753 15.083 15.083 0 6.075-3.592 11.311-8.768 13.701l-0.094 0.039c-24.471 11.262-41.154 35.572-41.154 63.777 0 38.657 31.338 69.995 69.995 69.995s69.995-31.338 69.995-69.995c0-28.206-16.683-52.515-40.72-63.598l-0.434-0.18c-4.736-2.594-7.894-7.544-7.894-13.231 0-8.304 6.732-15.036 15.036-15.036 1.856 0 3.634 0.336 5.275 0.951l-0.104-0.034c11.018 4.926 20.998 11.795 29.553 20.35 62.736 62.866 18.147 170.58-70.773 170.58z"></path>
</svg>
