<!-- Generated by IcoMoon.io -->
<svg version="1.1" xmlns="http://www.w3.org/2000/svg" width="1024" height="1024" viewBox="0 0 1024 1024">
<title></title>
<g id="icomoon-ignore">
</g>
<path fill="#ce4e4e" d="M875.291 710.228h148.709v33.013h-148.709c-27.314 0.087-49.432 22.205-49.519 49.511v231.249h-33.013v-33.013h-304.602c-0.002 0-0.004 0-0.006 0-21.535 0-41.143-8.248-55.838-21.756l0.059 0.054-292.222-268.38c-10.448-9.387-16.989-22.942-16.989-38.025 0-6.723 1.3-13.143 3.662-19.021l-0.122 0.343h-68.776c-30.685-1.626-54.95-26.904-54.95-57.848s24.265-56.222 54.806-57.842l0.144-0.006h417.7l-322.942-368.946c-2.567-2.896-4.135-6.729-4.135-10.928s1.568-8.032 4.15-10.945l-0.015 0.017 115.697-132.050c3.057-3.668 7.642-5.655 12.38-5.655h462.481c4.738 0 9.17 1.987 12.38 5.655l115.697 132.050c5.349 6.266 5.349 15.589 0 21.856l-322.942 368.946h417.853c30.685 1.626 54.95 26.904 54.95 57.848s-24.265 56.222-54.806 57.842l-0.144 0.006h-248.205l52.881 132.050h23.537c8.011-37.951 41.221-66.025 80.989-66.025 0.005 0 0.010 0 0.015 0h-0.001zM822.41 165.216h-182.486l-91.090 312.702zM664.072 132.050h158.338l-79.169-90.479zM548.375 33.013l79.169 90.479 79.322-90.479zM512 41.571l-79.169 90.479h158.338zM317.134 33.013l79.322 90.479 79.169-90.479zM201.59 132.050h158.338l-79.169-90.479zM475.167 477.918l-91.243-312.702h-182.18zM512 486.018l93.536-320.955h-187.071zM966.228 611.038c13.674 0 24.759-11.085 24.759-24.759s-11.085-24.759-24.759-24.759h-908.456c-13.674 0-24.759 11.085-24.759 24.759s11.085 24.759 24.759 24.759v0zM521.781 663.46l-8.406 167.967 97.815-48.907v-138.316h-92.313c2.14 6.113 3.057 12.533 2.904 19.257zM348.619 653.679c-3.294-5.569-9.269-9.245-16.103-9.245-7.321 0-13.657 4.22-16.708 10.36l-0.049 0.108c-2.445 5.044-2.598 10.699-0.459 15.742l27.052 73.973 109.43 98.885-37.139-68.318-1.681-0.153 0.153-2.751zM417.853 711.756l4.279-54.562c0.306-4.585 1.528-8.864 3.057-12.991h-44.17zM480.516 827.147l8.253-165.216c0.016-0.274 0.025-0.594 0.025-0.917 0-9.285-7.527-16.812-16.812-16.812-0.009 0-0.018 0-0.026 0h0.001c-8.864 0-16.353 6.725-16.965 15.589l-8.1 105.457zM284.886 644.203h-53.493l58.536 52.881-5.349-14.214c-2.373-5.663-3.752-12.245-3.752-19.148 0-7.044 1.436-13.754 4.030-19.851l-0.125 0.332zM792.759 809.266h-33.013c-6.725 0-12.838-4.127-15.284-10.393l-61.899-154.823h-38.515v148.709c0 6.113-3.515 11.921-9.17 14.825l-165.063 82.531c-6.113 3.057-13.297 1.987-18.34-2.598l-135.718-122.421-0.917 0.306-0.764-1.834-126.854-114.78c-3.289-2.955-7.662-4.762-12.456-4.762-10.311 0-18.671 8.359-18.671 18.671 0 5.517 2.393 10.475 6.197 13.893l0.017 0.015 292.375 268.227c9.17 8.406 21.091 13.144 33.624 13.144h304.449zM165.216 82.531c0 9.17-7.489 16.506-16.506 16.506 0 0 0 0 0 0-27.379 0-49.584 22.152-49.671 49.51v0.008c0 9.116-7.39 16.506-16.506 16.506s-16.506-7.39-16.506-16.506v0c-0.087-27.314-22.205-49.432-49.511-49.519h-0.008c-9.116 0-16.506-7.39-16.506-16.506s7.39-16.506 16.506-16.506v0c27.314-0.087 49.432-22.205 49.519-49.511v-0.008c0-9.116 7.39-16.506 16.506-16.506s16.506 7.39 16.506 16.506v0c0.087 27.367 22.292 49.519 49.671 49.519 0 0 0 0 0 0v0c9.17 0 16.506 7.489 16.506 16.506zM99.19 82.531c-6.266-4.585-11.921-10.24-16.659-16.506-4.585 6.113-10.24 11.768-16.506 16.506 6.266 4.738 11.921 10.393 16.506 16.659 4.738-6.266 10.393-11.921 16.659-16.659z"></path>
</svg>
