<!-- Generated by IcoMoon.io -->
<svg version="1.1" xmlns="http://www.w3.org/2000/svg" width="1024" height="1024" viewBox="0 0 1024 1024">
<title></title>
<g id="icomoon-ignore">
</g>
<path fill="#ed4d4d" d="M291.252 398.856l-0.168 0.168c-3.613 3.6-8.597 5.827-14.101 5.827s-10.488-2.226-14.102-5.827l0.001 0.001c-3.561-3.631-5.758-8.609-5.758-14.101s2.198-10.47 5.762-14.104l-0.003 0.003v-0.168c3.722-4.5 9.307-7.346 15.556-7.346 11.125 0 20.144 9.019 20.144 20.144 0 6.166-2.77 11.684-7.133 15.379l-0.029 0.024zM915.725 505.453v121.033c0 0 0 0 0 0 0 20.801-16.815 37.675-37.593 37.77h-51.041c-8.729 32.734-21.823 63.958-38.61 93.167l36.092 36.092c14.772 14.772 14.772 38.778 0 53.55l-85.613 85.613c-14.772 14.772-38.61 14.772-53.55 0l-36.092-36.26c-29.209 16.787-60.433 29.713-92.999 38.442v51.368c0 20.86-16.91 37.77-37.77 37.77v0h-121.201c-20.86 0-37.77-16.91-37.77-37.77v0-51.536c-35.275-9.576-66.13-22.771-94.601-39.576l1.769 0.966-36.428 36.595c-14.605 14.772-38.61 14.772-53.382 0l-85.613-85.613c-6.875-6.842-11.13-16.312-11.13-26.775s4.255-19.933 11.129-26.774l36.43-36.43c-16.787-29.041-29.881-60.433-38.61-92.831h-51.368c-20.86 0-37.77-16.91-37.77-37.77v0-121.033c0-20.86 16.91-37.77 37.77-37.77v0h51.368c8.561-32.567 21.487-63.79 38.442-92.999l-36.26-36.26c-6.875-6.842-11.13-16.312-11.13-26.775s4.255-19.933 11.129-26.774l85.615-85.615c14.772-14.772 38.61-14.772 53.382 0l36.26 36.092c26.75-15.847 57.663-29.042 90.333-37.988l2.666-0.622v-51.032c0-20.86 16.91-37.77 37.77-37.77v0h121.201c20.86 0 37.77 16.91 37.77 37.77v0 50.864c10.072 2.686 20.144 5.875 29.713 9.233 8.867 2.239 15.326 10.145 15.326 19.56 0 11.125-9.019 20.144-20.144 20.144-3.128 0-6.090-0.713-8.732-1.986l0.121 0.052c-9.065-3.357-18.633-6.211-28.202-8.729-16.321-4.378-28.149-19.014-28.202-36.422v-50.367h-116.669v50.361c0 17.29-11.415 32.231-28.034 36.595-30.216 7.89-59.258 19.976-86.285 35.756-14.772 8.729-33.574 6.379-45.828-5.875l-35.756-35.756-82.424 82.424 35.924 35.924c12.087 12.254 14.605 31.056 5.875 45.828-14.776 24.782-26.955 53.427-35.049 83.742l-0.54 2.375c-4.388 16.357-19.080 28.202-36.538 28.202-0.020 0-0.040 0-0.060 0h-50.861v116.669h51.032c17.123 0 32.231 11.583 36.595 28.202 7.722 30.216 19.809 59.090 35.588 85.949 8.729 14.772 6.211 33.574-5.875 45.828l-36.092 36.092 82.424 82.424 36.092-36.092c6.836-6.839 16.281-11.069 26.714-11.069 7.046 0 13.642 1.93 19.288 5.289l-0.174-0.096c24.733 14.773 53.322 26.951 83.579 35.048l2.37 0.54c16.271 4.446 28.034 19.096 28.034 36.494 0 0.036 0 0.071 0 0.107v-0.005 51.032h116.669v-50.864c0-17.29 11.751-32.231 28.202-36.595 30.216-7.89 59.258-19.809 86.117-35.588 14.772-8.729 33.574-6.211 45.828 5.875l35.924 35.924 82.424-82.424-35.756-35.924c-6.802-6.83-11.007-16.25-11.007-26.652 0-7.003 1.906-13.562 5.228-19.184l-0.096 0.176c15.78-27.027 27.866-56.068 35.756-86.285 4.388-16.357 19.080-28.202 36.538-28.202 0.020 0 0.040 0 0.060 0h50.358v-116.669h-50.361c-17.123 0-32.231-11.751-36.428-28.202-2.518-9.736-5.54-19.473-8.897-28.873-0.279-1.258-0.44-2.703-0.44-4.185 0-11.125 9.019-20.144 20.144-20.144 7.749 0 14.476 4.375 17.845 10.79l0.053 0.11c3.525 9.904 6.715 20.144 9.569 30.552h50.864c20.86 0 37.77 16.91 37.77 37.77v0zM1005.702 224.441l-133.288 133.624c-3.616 3.604-8.594 5.842-14.095 5.875h-170.057l-21.655 21.655c37.587 43.044 61.991 98.464 66.424 159.425l0.052 0.89h23.334c10.307 0.972 18.307 9.582 18.307 20.060s-8.001 19.089-18.227 20.054l-0.081 0.006h-23.502c-4.956 68.804-34.62 129.861-80.062 175.076l-0.011 0.011c-45.218 45.466-106.28 75.133-174.204 80.022l-0.883 0.051v23.502c0.107 0.779 0.168 1.68 0.168 2.595 0 11.125-9.019 20.144-20.144 20.144s-20.144-9.019-20.144-20.144c0-0.915 0.061-1.816 0.179-2.698l-0.011 0.103v-23.502c-136.53-10.411-244.75-118.631-255.103-254.226l-0.057-0.935h-23.502c-0.551 0.053-1.19 0.084-1.837 0.084-11.125 0-20.144-9.019-20.144-20.144s9.019-20.144 20.144-20.144c0.647 0 1.286 0.030 1.918 0.090l-0.081-0.006h23.502c2.35-33.574 10.744-66.812 25.852-98.371 2.698-8.161 10.257-13.946 19.167-13.946 11.125 0 20.144 9.019 20.144 20.144 0 4.060-1.201 7.839-3.267 11.002l0.047-0.077c-11.506 23.698-19.287 51.283-21.764 80.382l-0.059 0.867h17.626c10.307 0.972 18.307 9.582 18.307 20.060s-8.001 19.089-18.227 20.054l-0.081 0.006h-17.626c10.223 114.323 100.55 204.649 213.965 214.807l0.907 0.066v-17.626c0-11.125 9.019-20.144 20.144-20.144s20.144 9.019 20.144 20.144v17.794c114.59-9.755 205.208-100.431 214.813-214.178l0.059-0.862h-17.794c-10.307-0.972-18.307-9.582-18.307-20.060s8.001-19.089 18.227-20.054l0.081-0.006h17.794c-4.364-50.768-24.255-96.202-54.839-132.286l0.282 0.341-57.075 57.075c20.414 26.133 32.733 59.453 32.733 95.65 0 86.222-69.896 156.118-156.118 156.118s-156.118-69.896-156.118-156.118c0-0.224 0-0.447 0.001-0.671v0.034c0.038-86.193 69.92-156.052 156.118-156.052 36.064 0 69.271 12.228 95.703 32.764l-0.353-0.264 56.908-56.908c-35.822-30.437-81.366-50.441-131.389-54.83l-0.892-0.063v17.962c0.107 0.779 0.168 1.68 0.168 2.595 0 11.125-9.019 20.144-20.144 20.144s-20.144-9.019-20.144-20.144c0-0.915 0.061-1.816 0.179-2.698l-0.011 0.103v-17.962c-28.873 2.518-57.411 10.072-84.438 23.502-3.194 2.225-7.155 3.555-11.428 3.555-11.125 0-20.144-9.019-20.144-20.144 0-8.91 5.785-16.469 13.803-19.126l0.142-0.041c32.567-16.115 67.148-25.18 102.064-27.866v-23.334c-0.107-0.779-0.168-1.68-0.168-2.595 0-11.125 9.019-20.144 20.144-20.144s20.144 9.019 20.144 20.144c0 0.915-0.061 1.816-0.179 2.698l0.011-0.103v23.502c58.25 4.197 114.822 26.859 160.65 66.476l21.487-21.487v-169.883c0-5.372 2.182-10.408 5.875-14.269l133.624-133.288c11.123-11.305 26.587-18.31 43.687-18.31 8.657 0 16.894 1.795 24.361 5.034l-0.396-0.153c23.67 9.736 38.61 31.895 38.61 57.411v55.9h55.9c25.684 0.168 47.675 14.94 57.411 38.61 9.736 23.502 4.532 49.521-13.43 67.651zM573.944 565.886c0-24.677-7.89-47.507-20.984-66.476l-35.42 35.42c-3.621 3.651-8.639 5.911-14.185 5.911s-10.564-2.26-14.184-5.909l-0.001-0.001c-3.561-3.631-5.758-8.609-5.758-14.101s2.198-10.47 5.762-14.104l35.417-35.417c-18.605-13.221-41.784-21.136-66.812-21.136-64.156 0-116.165 52.009-116.165 116.165s52.009 116.165 116.165 116.165c64.156 0 116.165-52.009 116.165-116.165 0-0.064 0-0.129 0-0.193v0.010zM700.013 174.080v121.537l56.572-56.404 109.283-109.45v-67.483c0-0.040 0-0.086 0-0.133 0-9.214-5.711-17.095-13.786-20.295l-0.148-0.052c-2.517-1.098-5.45-1.737-8.532-1.737-6.132 0-11.672 2.529-15.637 6.6l-0.005 0.005zM982.033 172.066c-3.295-8.133-11.13-13.765-20.281-13.765-0.011 0-0.022 0-0.033 0h0.002l-67.483-0.168-109.45 109.283-56.404 56.572h121.537l127.412-127.748c4.076-3.969 6.605-9.51 6.605-15.641 0-3.082-0.639-6.015-1.791-8.673l0.055 0.141zM475.405 568.572c0 0 0 0 0 0.001 0 11.066-8.923 20.049-19.967 20.144h-0.009c-11.053-0.095-19.976-9.077-19.976-20.144 0 0 0 0 0-0.001v0c0.095-11.053 9.077-19.976 20.144-19.976 0 0 0 0 0.001 0v0c10.98 0.189 19.809 9.134 19.809 20.141 0 0.001 0 0.002 0 0.003v0z"></path>
</svg>
