<!-- Generated by IcoMoon.io -->
<svg version="1.1" xmlns="http://www.w3.org/2000/svg" width="884" height="1024" viewBox="0 0 884 1024">
<title></title>
<g id="icomoon-ignore">
</g>
<path fill="#ed4d4d" d="M884.364 221.556c0 385.552-158.72 677.547-435.2 800.892-2.052 0.943-4.453 1.493-6.982 1.493s-4.93-0.55-7.088-1.537l0.107 0.044c-276.48-123.345-435.2-415.341-435.2-800.892 0-6.672 3.724-12.567 9.619-15.515l425.115-204.8c4.655-2.172 10.085-2.172 14.739 0l425.115 204.8c6.051 2.948 9.775 8.844 9.775 15.515zM850.23 232.262l-408.048-196.732-408.048 196.732c2.793 363.055 151.118 637.673 408.048 755.898 256.931-118.381 405.256-392.999 408.048-755.898zM714.318 511.845l-0.155 2.172c-0.509 74.538-30.821 141.899-79.6 190.844l0.007-0.007c-49.031 49.363-116.945 79.917-191.994 79.917-0.957 0-1.912-0.005-2.867-0.015l0.146 0.001c-149.321-1.834-269.663-123.309-269.663-272.892 0-0.825 0.004-1.649 0.011-2.472l-0.001 0.126c1.142-149.769 122.819-270.74 272.749-270.74 0.221 0 0.441 0 0.662 0.001h-0.034c149.702 1.23 270.584 122.872 270.584 272.748 0 0.112 0 0.224 0 0.336v-0.017zM679.564 528.912h-80.058c-2.172 40.339-12.102 79.438-29.013 115.743 23.428 4.965 43.442 10.395 58.647 15.205 28.449-35.943 46.867-81.001 50.38-130.183l0.044-0.765zM204.8 528.912c3.258 46.545 20.17 92.315 50.424 130.948 15.205-4.81 35.064-10.24 58.647-15.205-16.191-33.837-26.639-73.296-28.977-114.922l-0.037-0.821zM280.979 687.787c28.54 26.279 63.739 45.769 102.765 55.655l1.652 0.355-6.206-5.896c-18.063-18.151-34.058-38.389-47.582-60.314l-0.825-1.437c-18.928 3.568-35.685 7.758-49.648 11.636zM603.229 687.787c-12.233-3.692-28.941-7.722-45.908-11.029l-3.74-0.607c-15.85 25.71-33.912 47.917-54.479 67.519l-0.134 0.127c37.857-9.309 73.852-27.927 104.262-56.010zM603.229 335.748c-28.446-26.354-63.613-45.86-102.632-55.663l-1.63-0.347 6.206 5.896c18.063 18.151 34.058 38.389 47.582 60.314l0.825 1.437c18.928-3.568 35.685-7.758 49.648-11.636zM280.979 335.748c13.964 4.034 30.875 8.068 49.648 11.636 15.892-25.711 34.004-47.919 54.625-67.511l0.143-0.135c-37.857 9.309-73.852 27.927-104.417 56.010zM481.125 309.838c-7.758-7.758-14.895-14.429-21.876-20.325v68.267c21.099-0.628 41.060-2.244 60.719-4.821l-3.003 0.322c-11.131-16.227-22.968-30.428-35.993-43.44l-0.002-0.002zM481.125 713.697c13.343-13.498 25.29-27.927 35.685-43.442-17.842-2.327-37.236-3.879-57.561-4.655v68.422c6.827-5.896 13.964-12.567 21.721-20.17zM565.372 528.912h-106.124v102.555c27.462 0.776 53.217 3.413 76.335 6.982 17.377-34.133 27.462-71.37 29.789-109.537zM403.394 309.838c-13.498 13.498-25.445 28.082-35.995 43.442 17.998 2.327 37.236 4.034 57.716 4.655v-68.422c-6.982 5.896-13.964 12.567-21.721 20.17zM403.394 713.697c7.758 7.758 14.739 14.429 21.721 20.325v-68.267c-20.325 0.621-39.719 2.172-57.716 4.499 10.55 15.515 22.497 29.944 35.995 43.442zM348.781 638.448c23.273-3.568 48.873-6.206 76.335-6.982v-102.555h-106.124c2.327 38.322 12.412 75.404 29.789 109.537z"></path>
</svg>
