<!-- Generated by IcoMoon.io -->
<svg version="1.1" xmlns="http://www.w3.org/2000/svg" width="870" height="1024" viewBox="0 0 870 1024">
<title></title>
<g id="icomoon-ignore">
</g>
<path fill="#fff" d="M869.699 197.646v220.090c0.034 2.463 0.054 5.372 0.054 8.284 0 177.999-73.317 338.874-191.398 454.073l-0.13 0.126c-93.984 92.581-203.538 143.781-243.375 143.781s-149.252-51.2-243.375-143.781c-118.211-115.325-191.528-276.2-191.528-454.199 0-2.913 0.020-5.821 0.059-8.724l-0.005 0.44v-220.23c0-9.679 6.453-18.236 15.851-20.761 155.152-43.144 290.769-102.486 415.56-177.93l-7.362 4.131c3.108-1.872 6.86-2.98 10.871-2.98s7.763 1.107 10.968 3.033l-0.096-0.054c126.667 75.187 267.923 135.224 408.197 173.94 9.258 2.525 15.711 10.941 15.711 20.761zM826.775 213.918c-149.371-43.712-279.377-100.737-400.039-171.914l8.114 4.427c-112.632 67.368-242.697 124.439-380.011 164.508l-11.914 2.979v203.818c-0.034 2.364-0.053 5.155-0.053 7.951 0 166.073 68.373 316.177 178.504 423.698l0.118 0.115c92.581 91.038 191.334 131.437 213.357 131.437s120.916-40.399 213.216-131.437c110.331-107.626 178.761-257.766 178.761-423.889 0-2.768-0.019-5.532-0.057-8.292l0.005 0.418zM232.574 239.448c-34.367 13.607-69.576 26.231-104.785 37.734v67.332c0.045 0.519 0.070 1.123 0.070 1.734 0 11.853-9.609 21.462-21.462 21.462s-21.462-9.609-21.462-21.462c0-0.61 0.025-1.214 0.075-1.812l-0.005 0.078v-83.042c0-9.398 6.032-17.815 15.009-20.62 39.277-12.344 78.553-26.231 116.848-41.521 2.734-1.343 5.95-2.128 9.35-2.128 11.931 0 21.602 9.672 21.602 21.602 0 9.661-6.341 17.84-15.089 20.603l-0.153 0.042zM265.819 202.696c-4.769-10.941 0-23.566 10.941-28.335l0.421-0.14c2.358-0.969 5.094-1.532 7.963-1.532 11.853 0 21.462 9.609 21.462 21.462 0 8.475-4.912 15.802-12.044 19.291l-0.127 0.056-0.421 0.281c-2.533 1.147-5.493 1.815-8.609 1.815-8.73 0-16.235-5.247-19.533-12.76l-0.054-0.137zM696.601 724.375c-37.009 55.556-81.117 102.832-131.765 142.070l-1.355 1.010c-3.544 2.724-8.044 4.366-12.927 4.366-6.972 0-13.162-3.346-17.052-8.519l-0.039-0.055c-2.697-3.565-4.321-8.074-4.321-12.962 0-6.994 3.323-13.211 8.477-17.159l0.052-0.038c48.047-37.221 88.807-80.926 121.766-130.283l1.254-1.996c3.884-5.932 10.498-9.797 18.015-9.797 4.36 0 8.417 1.3 11.803 3.534l-0.080-0.050c9.819 6.593 12.625 19.919 6.172 29.878zM517.050 874.468c6.032 10.38 2.665 23.566-7.575 29.458l-1.403 0.982c-3.078 1.808-6.78 2.875-10.731 2.875-7.902 0-14.806-4.27-18.532-10.629l-0.055-0.101c-1.836-3.109-2.92-6.851-2.92-10.846 0-7.886 4.226-14.785 10.537-18.557l0.099-0.055 1.403-0.701c3.068-1.792 6.754-2.85 10.687-2.85 7.835 0 14.689 4.198 18.436 10.467l0.054 0.098zM365.975 545.666l215.040-216.022c12.56-12.802 30.042-20.736 49.376-20.736s36.816 7.935 49.366 20.725l0.011 0.011c12.654 12.707 20.477 30.233 20.477 49.587s-7.823 36.88-20.48 49.589l0.002-0.002-264.416 265.398c-12.56 12.802-30.042 20.736-49.376 20.736s-36.816-7.935-49.366-20.725l-0.011-0.011-126.667-127.088c-12.531-12.686-20.271-30.128-20.271-49.379 0-38.592 31.106-69.918 69.614-70.274h0.034c18.656 0 36.191 7.294 49.376 20.62zM381.124 591.395c-3.866 3.902-9.225 6.318-15.15 6.318s-11.284-2.416-15.148-6.317l-0.002-0.002-92.581-92.861c-4.832-4.878-11.532-7.898-18.937-7.898s-14.105 3.020-18.935 7.896l-0.002 0.002c-4.86 4.893-7.864 11.634-7.864 19.077s3.004 14.185 7.865 19.079l-0.001-0.002 126.667 127.088c4.832 4.878 11.532 7.898 18.937 7.898s14.105-3.020 18.935-7.896l0.002-0.002 264.416-265.539c4.779-4.878 7.728-11.565 7.728-18.94 0-14.809-11.89-26.84-26.644-27.070h-0.022c-7.154 0-14.027 2.805-18.937 7.996z"></path>
</svg>
