<!-- Generated by IcoMoon.io -->
<svg version="1.1" xmlns="http://www.w3.org/2000/svg" width="1024" height="1024" viewBox="0 0 1024 1024">
<title></title>
<g id="icomoon-ignore">
</g>
<path fill="#ed4d4d" d="M712 858c-11.040 0-20 8.96-20 20s8.96 20 20 20c11.040 0 20-8.96 20-20s-8.96-20-20-20z"></path>
<path fill="#ed4d4d" d="M312 858c-11.040 0-20 8.96-20 20s8.96 20 20 20 20-8.96 20-20c0-11.040-8.96-20-20-20z"></path>
<path fill="#ed4d4d" d="M895.29 754.42c-22.514-34.848-53.452-62.538-89.694-80.42-3.056-2.838-6.986-4.74-11.356-5.226-26.214-11.128-53.846-16.774-82.24-16.774h-60v-52.766c34.722-29.792 59.684-69.252 71.788-113.234h8.212c44.112 0 80-35.888 80-80 0-20.904-8.068-39.952-21.244-54.22 1.258-1.068 2.486-2.18 3.666-3.358 11.336-11.336 17.578-26.402 17.578-42.422 0-26.326-17.052-48.732-40.686-56.792-7.066-91.968-71.612-170.56-160.482-195.192-5.266-27.504-27.964-54.016-58.832-54.016h-80c-30.868 0-53.566 26.512-58.832 54.016-88.862 24.63-153.402 103.208-160.48 195.164-8.604 2.918-16.494 7.784-23.11 14.398-11.336 11.336-17.578 26.402-17.578 42.422 0 18.326 8.268 34.75 21.26 45.764-13.184 14.268-21.26 33.324-21.26 54.236 0 44.112 35.888 80 80 80h8.156c10.104 36.714 29.262 70.42 55.988 98.262 5.022 5.236 10.346 10.224 15.856 14.956v52.782h-60c-28.396 0-56.028 5.646-82.24 16.772-4.368 0.488-8.3 2.388-11.354 5.226-36.246 17.884-67.182 45.574-89.696 80.42-24.016 37.174-36.71 79.908-36.71 123.582v126c0 11.044 8.954 20 20 20h800c11.046 0 20-8.956 20-20v-126c0-43.674-12.694-86.408-36.71-123.58zM212 984h-80v-106c0-60.834 31.164-119.142 80-153.756v259.756zM732 446h-0.912c0.596-6.654 0.912-13.332 0.912-20v-60c22.056 0 40 17.944 40 40s-17.944 40-40 40zM412 96.278v89.722c0 11.046 8.954 20 20 20s20-8.954 20-20v-115.874c0-0.052 0-0.104 0-0.156v-3.97c0-12.392 10.468-26 20-26h80c9.532 0 20 13.608 20 26v3.97c0 0.052 0 0.104 0 0.156v115.874c0 11.046 8.954 20 20 20s20-8.954 20-20v-89.722c64.58 22.854 111.2 81.294 118.882 149.722h-437.764c7.682-68.428 54.302-126.868 118.882-149.722zM292 446c-22.056 0-40-17.944-40-40s17.944-40 40-40v60c0 6.668 0.316 13.348 0.912 20h-0.912zM292 326h-20c-11.028 0-20-8.972-20-20 0-5.336 2.082-10.358 5.862-14.136 3.782-3.782 8.802-5.864 14.138-5.864h480c11.028 0 20 8.972 20 20 0 5.336-2.082 10.358-5.862 14.136-3.78 3.782-8.802 5.864-14.138 5.864h-460zM335.634 462.366c-0.040-0.218-0.078-0.434-0.126-0.648-2.322-11.738-3.508-23.752-3.508-35.718v-60h360v60c0 11.956-1.186 23.962-3.508 35.71-0.048 0.216-0.086 0.434-0.126 0.652-8.938 44.614-33.674 84.55-69.694 112.482-31.292 24.308-68.178 37.156-106.672 37.156s-75.38-12.848-106.702-37.178c-7.17-5.548-13.994-11.686-20.29-18.252-25.23-26.284-42.294-58.846-49.374-94.204zM492 984h-160v-46c0-11.046-8.954-20-20-20s-20 8.954-20 20v46h-40v-281.052c12.98-4.894 26.352-8.156 40-9.764v124.816c0 11.046 8.954 20 20 20s20-8.954 20-20v-126h51.43l108.57 114v178zM412 664v-37.252c30.862 16.59 64.854 25.252 100 25.252 35.148 0 69.142-8.664 100-25.25v37.25l-100 105-100-105zM772 984h-40v-46c0-11.046-8.954-20-20-20s-20 8.954-20 20v46h-160v-178l108.57-114h51.43v126c0 11.046 8.954 20 20 20s20-8.954 20-20v-124.816c13.648 1.608 27.018 4.872 40 9.766v281.050zM892 984h-80v-259.758c48.836 34.614 80 92.922 80 153.758v106z"></path>
</svg>
