<!-- Generated by IcoMoon.io -->
<svg version="1.1" xmlns="http://www.w3.org/2000/svg" width="1024" height="1024" viewBox="0 0 1024 1024">
<title></title>
<g id="icomoon-ignore">
</g>
<path fill="#ce4e4e" d="M1024 944.751v59.362c0 10.982-8.904 19.886-20.035 19.886h-983.93c-11.13 0-20.035-8.904-20.035-20.035v-59.214c0.099-64.551 47.015-118.116 108.605-128.56l0.77-0.108c-10.937-14.911-17.505-33.624-17.512-53.87v-65.301c0.084-41.357 33.588-74.861 74.937-74.945h89.348c10.982 0 20.035 8.904 20.035 20.035v120.209c0 20.035-6.53 38.586-17.512 53.871 13.653 2.226 26.861 6.53 39.179 12.911 28.063-41.504 73.064-69.729 124.857-74.742l0.694-0.054 0.594-0.148c-18.692-20.728-30.126-48.317-30.126-78.577 0-0.027 0-0.055 0-0.082v0.004-88.747c0.084-52.258 42.425-94.599 94.675-94.683h121.552c10.982 0 20.035 8.904 20.035 20.035v163.246c0 30.275-11.427 57.878-30.126 78.655l0.594 0.297c52.239 4.749 97.799 33.391 125.551 74.797 11.34-6.024 24.512-10.533 38.435-12.811l0.744-0.1c-10.937-14.911-17.505-33.624-17.512-53.87v-65.301c0.084-41.357 33.588-74.861 74.937-74.945h89.348c11.13 0 20.035 8.904 20.035 20.035v120.209c0 20.035-6.53 38.586-17.512 53.871 62.36 10.552 109.276 64.116 109.375 128.657v0.011zM131.784 708.044h82.662c11.872 0 21.667-9.795 21.667-21.667v-24.339h-69.306c0 0 0 0 0 0-19.291 0-34.939 15.596-35.023 34.867v0.008zM131.784 762.212c1.519 27.628 24.293 49.455 52.165 49.455s50.645-21.828 52.159-49.321l0.006-0.134v-18.106c-6.678 2.523-13.95 3.859-21.667 3.859h-82.662zM171.112 854.224l12.911 13.060 12.911-12.911zM279.597 864.612c-8.608-4.452-17.809-7.42-27.307-9.053l-54.168 54.020c-3.619 3.585-8.6 5.8-14.099 5.8s-10.48-2.215-14.1-5.802l0.002 0.002-54.168-54.020c-43.172 7.371-75.63 44.483-75.687 89.186v39.185h228.99v-60.401c0-20.777 3.71-40.515 10.537-58.917zM590.061 675.395v-35.766c-10.834 5.936-23.3 9.201-36.656 9.201h-119.467v26.565c2.611 41.071 36.562 73.394 78.061 73.394s75.45-32.323 78.050-73.166l0.012-0.228zM477.273 793.377l34.727 34.875 34.875-34.875zM433.939 586.648v22.261h119.467c20.183 0 36.656-16.325 36.656-36.656v-40.218h-101.51c-30.128 0.084-54.529 24.485-54.613 54.605v0.008zM714.871 983.93v-60.401c0-65.892-49.122-120.357-112.64-128.965l-76.132 76.132c-3.619 3.585-8.6 5.8-14.099 5.8s-10.48-2.215-14.1-5.802l-76.13-76.13c-57.333 7.985-102.314 52.312-111.208 108.637l-0.096 0.738h128.816c11.065 0 20.035 8.97 20.035 20.035s-8.97 20.035-20.035 20.035h-130.152v40.070zM787.886 707.896h82.662c11.872 0 21.667-9.646 21.667-21.519v-24.339h-69.454c-19.227 0.084-34.791 15.648-34.875 34.867v0.008zM787.886 747.965v14.247c1.519 27.628 24.293 49.455 52.165 49.455s50.645-21.828 52.159-49.321l0.006-0.134v-18.106c-6.827 2.523-14.099 3.859-21.667 3.859zM827.066 854.372l12.911 12.911 12.911-12.911zM983.93 983.93v-39.179c-0.057-44.709-32.515-81.821-75.151-89.116l-0.536-0.076-54.168 54.020c-3.619 3.585-8.6 5.8-14.099 5.8s-10.48-2.215-14.1-5.802l0.002 0.002-54.168-54.020c-9.498 1.484-18.699 4.601-27.307 9.053 6.827 18.402 10.388 38.14 10.388 58.917v60.401zM610.541 158.943l-112.195 112.343c-3.626 3.629-8.637 5.874-14.173 5.874s-10.547-2.245-14.173-5.874l-56.543-56.543c-3.103-3.511-4.997-8.153-4.997-13.238 0-11.065 8.97-20.035 20.035-20.035 5.048 0 9.659 1.867 13.182 4.947l-0.023-0.020 42.444 42.444 98.245-98.245c3.5-3.061 8.111-4.927 13.159-4.927 11.065 0 20.035 8.97 20.035 20.035 0 5.085-1.894 9.727-5.015 13.26l0.019-0.022zM712.941 200.941c0 110.859-90.082 200.941-200.941 200.941-110.676-0.612-200.16-90.474-200.16-201.235 0-80.774 47.59-150.433 116.26-182.469l1.238-0.518c2.562-1.276 5.58-2.023 8.773-2.023 11.065 0 20.035 8.97 20.035 20.035 0 8.286-5.030 15.398-12.204 18.447l-0.131 0.050c-56.627 25.822-95.276 81.939-95.276 147.084 0 89.011 72.158 161.169 161.169 161.169s161.169-72.158 161.169-161.169c0-0.057 0-0.114 0-0.171v0.009c0-63.666-37.398-121.396-95.425-147.219-7.667-2.927-13.014-10.221-13.014-18.764 0-11.065 8.97-20.035 20.035-20.035 3.402 0 6.606 0.848 9.412 2.344l-0.108-0.053c70.767 32.175 119.101 102.224 119.17 183.569v0.009zM532.628 20.035c0 11.13-8.904 20.035-20.035 20.035h-0.594c-11.065 0-20.035-8.97-20.035-20.035s8.97-20.035 20.035-20.035h0.742c10.982 0 19.886 8.904 19.886 20.035zM532.035 923.974c-0.083 11.031-9.004 19.951-20.027 20.035h-0.008c-11.065 0-20.035-8.97-20.035-20.035v0c0.083-11.031 9.004-19.951 20.027-20.035h0.008c11.031 0.083 19.951 9.004 20.035 20.027v0.008z"></path>
</svg>
