<!-- Generated by IcoMoon.io -->
<svg version="1.1" xmlns="http://www.w3.org/2000/svg" width="1062" height="1024" viewBox="0 0 1062 1024">
<title></title>
<g id="icomoon-ignore">
</g>
<path fill="#ce4e4e" d="M900.361 332.421h-204.8v-146.773c0-72.439-21.807-124.776-64.664-156.255-67.508-49.493-158.91-21.807-162.892-20.48l-27.496 8.723v208.972c0 50.441-27.686 95.384-82.11 133.689-9.382 7.283-15.362 18.563-15.362 31.239 0 21.784 17.659 39.443 39.443 39.443 7.887 0 15.232-2.315 21.395-6.302l-0.154 0.094c75.852-53.096 115.674-121.553 115.674-198.163v-147.721c19.721-1.707 45.89-0.379 65.043 13.653 21.428 15.739 32.427 47.028 32.427 92.729v225.47h283.686c44.942 0 81.541 35.65 82.868 80.213l-58.975 369.399-0.19 1.327c-2.655 20.67-10.24 83.437-106.193 83.437h-441.458c0 0 0 0 0 0-43.396 0-78.588-35.125-78.696-78.496v-365.237c0-67.027-54.336-121.363-121.363-121.363v0h-55.182c-67.027 0-121.363 54.336-121.363 121.363v0 374.519c0 67.027 54.336 121.363 121.363 121.363v0c20.575-1.473 36.71-18.526 36.71-39.348s-16.134-37.876-36.583-39.341l-0.127-0.007c-23.514-0.19-42.477-19.153-42.477-42.667v-374.519c0-23.514 18.963-42.477 42.477-42.477h55.372c23.324 0 42.477 18.963 42.477 42.477v374.519c5.245 82.768 73.657 147.911 157.285 147.911 0.038 0 0.075 0 0.113 0h441.073c44.563 0.19 84.385-10.43 114.726-30.91 38.874-25.979 62.957-67.698 69.594-120.604l59.354-371.674 0.569-6.827c0-89.126-72.439-161.185-161.564-161.185z"></path>
</svg>
