<!-- Generated by IcoMoon.io -->
<svg version="1.1" xmlns="http://www.w3.org/2000/svg" width="1280" height="1024" viewBox="0 0 1280 1024">
<title></title>
<g id="icomoon-ignore">
</g>
<path fill="#ce4e4e" d="M1.92 680.32c0 222.080 133.76 344.96 286.080 344.96 138.24 0 243.84-108.8 243.84-240.64 0-136.32-92.16-231.68-220.8-231.68-23.040 0-55.68 4.48-60.16 4.48 14.080-145.28 147.2-326.4 294.4-422.4l-170.24-135.68c-211.2 149.76-373.12 403.84-373.12 680.96zM739.2 680.32c0 222.080 134.4 344.96 286.080 344.96 138.24 0 248.96-108.8 248.96-240.64 0.173-3.269 0.271-7.096 0.271-10.946 0-121.944-98.856-220.8-220.8-220.8-1.896 0-3.786 0.024-5.67 0.071l0.279-0.006c-23.040 0-55.68 4.48-60.16 4.48 19.2-145.28 147.2-326.4 295.040-422.4l-170.24-135.68c-212.48 149.76-373.76 403.84-373.76 680.96z"></path>
</svg>
