<!-- Generated by IcoMoon.io -->
<svg version="1.1" xmlns="http://www.w3.org/2000/svg" width="961" height="1024" viewBox="0 0 961 1024">
<title></title>
<g id="icomoon-ignore">
</g>
<path fill="#ce4e4e" d="M960.985 250.014v161.95c0.001 0.188 0.002 0.41 0.002 0.633 0 71.156-57.46 128.891-128.511 129.336h-298.577c-16.395 0.178-29.617 13.51-29.617 29.931 0 0.001 0 0.001 0 0.002v0 78.139h59.234v284.042c0 0.094 0.001 0.206 0.001 0.317 0 49.285-39.775 89.28-88.976 89.637h-0.034c-49.167-0.446-88.852-40.406-88.852-89.636 0-0.112 0-0.224 0.001-0.336v0.017-284.042h59.234v-77.982c0-0.094-0.001-0.206-0.001-0.317 0-49.285 39.775-89.28 88.976-89.637h298.569c38.124 0 69.317-31.508 69.317-70.105v-161.95c0-0.094 0.001-0.205 0.001-0.316 0-38.346-30.996-69.453-69.301-69.631h-1.907v119.887h-356.037v76.091c-0.038 49.477-40.157 89.572-89.639 89.572-10.378 0-20.345-1.764-29.616-5.008l0.628 0.192v53.248c0 0.094 0.001 0.206 0.001 0.317 0 49.285-39.775 89.28-88.976 89.637h-0.034c-49.167-0.446-88.852-40.406-88.852-89.636 0-0.112 0-0.224 0.001-0.336v0.017-214.095h-59.392v-119.887h-118.626v-60.022h118.626v-120.044h711.916v120.044h1.89c70.892 0 128.551 58.289 128.551 129.969zM533.898 92.002c0 16.542 13.233 29.932 29.617 29.932 16.395-0.178 29.617-13.51 29.617-29.931 0-0.001 0-0.001 0-0.002v0-31.98h-59.234zM296.645 299.953h-59.392v214.095c0 16.542 13.391 29.932 29.617 29.932 16.463-0.089 29.775-13.456 29.775-29.932 0 0 0 0 0 0v0zM415.271 299.953h-59.392v76.091c0 16.542 13.391 29.932 29.775 29.932 16.395-0.178 29.617-13.51 29.617-29.931 0-0.001 0-0.001 0-0.002v0zM771.308 60.022h-118.784v31.98c0 0.094 0.001 0.206 0.001 0.317 0 49.285-39.775 89.28-88.976 89.637h-0.034c-49.235-0.357-89.010-40.352-89.010-89.637 0-0.112 0-0.223 0.001-0.335v0.017-31.98h-296.487v179.909h593.132zM504.281 710.026h-59.392v224.020c0 16.542 13.391 29.932 29.617 29.932 16.463-0.089 29.775-13.456 29.775-29.932 0 0 0 0 0 0v0z"></path>
<path fill="none" stroke="#fff" stroke-width="15.4388" stroke-miterlimit="50" stroke-linecap="butt" stroke-linejoin="miter" d="M960.985 250.014v161.95c0.001 0.188 0.002 0.41 0.002 0.633 0 71.156-57.46 128.891-128.511 129.336h-298.577c-16.395 0.178-29.617 13.51-29.617 29.931 0 0.001 0 0.001 0 0.002v0 78.139h59.234v284.042c0 0.094 0.001 0.206 0.001 0.317 0 49.285-39.775 89.28-88.976 89.637h-0.034c-49.167-0.446-88.852-40.406-88.852-89.636 0-0.112 0-0.224 0.001-0.336v0.017-284.042h59.234v-77.982c0-0.094-0.001-0.206-0.001-0.317 0-49.285 39.775-89.28 88.976-89.637h298.569c38.124 0 69.317-31.508 69.317-70.105v-161.95c0-0.094 0.001-0.205 0.001-0.316 0-38.346-30.996-69.453-69.301-69.631h-1.907v119.887h-356.037v76.091c-0.038 49.477-40.157 89.572-89.639 89.572-10.378 0-20.345-1.764-29.616-5.008l0.628 0.192v53.248c0 0.094 0.001 0.206 0.001 0.317 0 49.285-39.775 89.28-88.976 89.637h-0.034c-49.167-0.446-88.852-40.406-88.852-89.636 0-0.112 0-0.224 0.001-0.336v0.017-214.095h-59.392v-119.887h-118.626v-60.022h118.626v-120.044h711.916v120.044h1.89c70.892 0 128.551 58.289 128.551 129.969zM533.898 92.002c0 16.542 13.233 29.932 29.617 29.932 16.395-0.178 29.617-13.51 29.617-29.931 0-0.001 0-0.001 0-0.002v0-31.98h-59.234zM296.645 299.953h-59.392v214.095c0 16.542 13.391 29.932 29.617 29.932 16.463-0.089 29.775-13.456 29.775-29.932 0 0 0 0 0 0v0zM415.271 299.953h-59.392v76.091c0 16.542 13.391 29.932 29.775 29.932 16.395-0.178 29.617-13.51 29.617-29.931 0-0.001 0-0.001 0-0.002v0zM771.308 60.022h-118.784v31.98c0 0.094 0.001 0.206 0.001 0.317 0 49.285-39.775 89.28-88.976 89.637h-0.034c-49.235-0.357-89.010-40.352-89.010-89.637 0-0.112 0-0.223 0.001-0.335v0.017-31.98h-296.487v179.909h593.132zM504.281 710.026h-59.392v224.020c0 16.542 13.391 29.932 29.617 29.932 16.463-0.089 29.775-13.456 29.775-29.932 0 0 0 0 0 0v0z"></path>
</svg>
