<!-- Generated by IcoMoon.io -->
<svg version="1.1" xmlns="http://www.w3.org/2000/svg" width="1378" height="1024" viewBox="0 0 1378 1024">
<title></title>
<g id="icomoon-ignore">
</g>
<path fill="#ce4e4e" d="M1154.56 674.658c-7.286 16.542-15.754 32.689-24.812 48.443 61.637-15.36 129.772-2.954 182.548 39.188 5.156 4.037 8.438 10.262 8.438 17.253 0 5.459-2.001 10.451-5.311 14.282l0.024-0.028c-38.529 45.184-95.507 73.651-159.133 73.651-0.34 0-0.679-0.001-1.018-0.002h0.052c-39.778 0-79.557-11.028-114.215-33.477-12.8 11.618-25.797 22.646-39.385 33.083 64.923 8.695 119.548 46.426 151.107 99.479l0.524 0.951c5.908 10.634 2.166 24.222-8.862 30.326-29.31 16.502-64.344 26.224-101.649 26.224-69.227 0-130.634-33.478-168.915-85.128l-0.402-0.567c-54.457 21.196-117.494 33.478-183.399 33.478-0.324 0-0.648 0-0.972-0.001h0.050c-64.197 0-126.425-11.422-184.32-33.477-27.506 37.748-66.79 65.459-112.384 77.846l-1.438 0.333c-16.559 4.626-35.574 7.284-55.211 7.284-37.373 0-72.497-9.631-103.025-26.547l1.091 0.555c-7.013-3.681-11.715-10.913-11.715-19.243 0-4.091 1.134-7.917 3.105-11.18l-0.054 0.097c32.044-53.959 86.588-91.676 150.367-100.313l1.067-0.118c-14.568-11.159-27.401-22.056-39.672-33.546l0.287 0.266c-32.13 20.991-71.472 33.477-113.73 33.477-0.171 0-0.342 0-0.512-0.001h0.027c-0.345 0.002-0.753 0.003-1.162 0.003-63.627 0-120.605-28.468-158.891-73.361l-0.242-0.291c-7.877-9.452-6.498-23.631 3.348-31.311 35.616-28.414 81.286-45.592 130.968-45.592 18.321 0 36.097 2.336 53.045 6.727l-1.465-0.322c-9.255-15.754-17.723-31.902-24.812-48.443-6.233 0.671-13.464 1.053-20.784 1.053-101.464 0-185.76-73.502-202.547-170.165l-0.176-1.227c-0.985-5.908 0.394-11.815 3.938-16.542 3.742-4.726 9.058-7.877 14.966-8.665 61.44-9.255 120.714 9.058 164.825 45.292-1.969-18.905-2.56-38.203-1.969-57.305-86.228-24.089-148.427-101.955-148.427-194.349 0-15.286 1.703-30.175 4.929-44.487l-0.255 1.346c1.378-5.908 4.923-10.831 9.846-13.982 5.317-3.151 11.422-4.332 17.329-2.954 64.394 13.982 115.003 56.123 141.588 110.277 4.529-13.785 9.846-27.569 15.754-40.763-37.73-29.854-64.201-72.492-72.881-121.284l-0.177-1.202c-1.869-10.173-2.938-21.88-2.938-33.836 0-43.901 14.409-84.436 38.755-117.135l-0.371 0.522c7.286-9.846 21.662-12.209 31.705-5.12 49.257 34.028 82.257 88.568 86.611 151.002l0.035 0.629c8.271-9.846 17.329-19.102 26.585-28.16 4.175-4.039 9.871-6.527 16.148-6.527s11.973 2.489 16.154 6.534l-0.006-0.006c9.058 8.665 9.058 22.843 0 31.508-12.209 11.815-23.631 24.418-34.265 37.415 44.898-17.526 96.492-19.692 145.526-2.757 11.815 3.938 18.117 16.738 13.785 28.357-19.071 51.243-56.787 91.775-104.699 114.088l-1.246 0.521c-26.137 12.505-56.812 19.809-89.193 19.809-16.551 0-32.657-1.908-48.108-5.517l1.424 0.28c-11.028 37.612-17.132 76.603-18.117 115.594 25.6-43.914 68.135-78.769 121.698-93.932 5.908-1.575 12.012-0.985 17.329 1.969 5.317 2.757 9.255 7.483 11.028 13.194 15.557 51.791 9.452 106.338-17.132 153.6-23.55 41.247-59.904 72.89-103.572 89.911l-1.388 0.476c22.218 58.249 54.088 108.158 94.11 150.243l-0.177-0.188c-3.723-14.345-5.86-30.813-5.86-47.78 0-51.664 19.816-98.7 52.263-133.921l-0.126 0.138c8.468-9.255 22.843-10.043 32.295-1.969 42.515 36.585 69.272 90.459 69.272 150.581 0 44.446-14.622 85.476-39.318 118.543l0.373-0.522c66.134 37.905 145.38 60.259 229.847 60.259 0.333 0 0.666 0 0.998-0.001h-0.051c82.314 0 161.477-20.874 230.794-60.062-24.323-32.546-38.945-73.576-38.945-118.022 0-60.123 26.756-113.996 69.012-150.363l0.26-0.219c4.039-3.482 9.338-5.603 15.132-5.603 6.789 0 12.898 2.912 17.147 7.554l0.016 0.018c32.424 35.025 52.313 82.061 52.313 133.743 0 16.911-2.13 33.325-6.135 48.988l0.296-1.365c39.751-41.853 71.553-91.694 92.708-146.811l1.028-3.047c-45.081-17.546-81.441-49.259-104.433-89.582l-0.527-1.003c-16.060-27.786-25.535-61.12-25.535-96.667 0-20.239 3.072-39.76 8.774-58.123l-0.371 1.387c3.545-11.815 16.345-18.511 28.357-15.163 52.149 14.86 94.807 48.42 121.179 92.792l0.519 0.944c-1.065-41.517-7.683-81.080-19.138-118.53l0.824 3.133c-14.027 3.328-30.133 5.237-46.684 5.237-32.381 0-63.056-7.304-90.468-20.355l1.275 0.546c-49.078-22.873-86.722-63.397-105.291-113.212l-0.457-1.398c-1.969-5.514-1.772-11.815 0.788-17.132 2.757-5.317 7.286-9.255 12.997-11.225 49.231-16.935 100.431-14.769 145.526 2.757-11.154-13.568-22.356-25.768-34.18-37.333l-0.084-0.082c-4.136-3.983-6.706-9.568-6.706-15.754s2.569-11.771 6.699-15.747l0.007-0.007c4.175-4.039 9.871-6.527 16.148-6.527s11.973 2.489 16.154 6.534l-0.006-0.006c9.255 9.058 18.314 18.511 26.782 28.16 3.938-58.683 33.477-115.003 86.252-151.631 3.709-2.619 8.324-4.185 13.304-4.185 7.581 0 14.314 3.63 18.555 9.247l0.042 0.059c23.975 32.177 38.384 72.712 38.384 116.613 0 11.956-1.069 23.663-3.116 35.030l0.178-1.194c-8.805 49.97-35.207 92.605-72.452 122.172l-0.41 0.314c5.908 13.391 11.028 26.978 15.754 40.566 27.93-55.721 78.877-96.387 140.029-109.829l1.362-0.251c5.908-1.182 12.012-0.197 17.132 2.954s8.665 8.074 10.043 13.785c2.997 13.021 4.714 27.973 4.714 43.326 0 92.408-62.219 170.284-147.050 194.021l-1.418 0.339c0.591 19.102 0 38.4-1.969 57.502 36.016-29.771 82.665-47.83 133.533-47.83 11.043 0 21.888 0.851 32.471 2.491l-1.179-0.15c5.908 0.788 11.225 3.938 14.966 8.665 3.545 4.726 4.923 10.831 3.938 16.542-8.271 53.169-37.415 100.234-81.92 131.938-33.832 24.579-76.196 39.32-122.002 39.32-6.896 0-13.714-0.334-20.439-0.987l0.854 0.067zM1197.095 419.84c60.256-22.969 102.285-80.273 102.285-147.394 0-3.292-0.101-6.56-0.3-9.801l0.022 0.445c-32.274 12.447-58.711 34.057-76.822 61.625l-0.372 0.603c-15.775 23.659-25.173 52.744-25.173 84.023 0 3.695 0.131 7.359 0.389 10.987l-0.028-0.488zM1174.055 631.138c34.068 0 66.954-10.634 95.114-30.523 27.087-19.364 47.47-46.559 57.973-78.257l0.317-1.103c-34.068 0-66.954 10.437-95.114 30.523-27.087 19.364-47.47 46.559-57.973 78.257l-0.317 1.103zM79.36 263.286c-0.17 2.739-0.267 5.94-0.267 9.164 0 67.117 42.024 124.418 101.194 147.028l1.079 0.362c0.17-2.739 0.267-5.94 0.267-9.164 0-67.117-42.024-124.418-101.194-147.028l-1.079-0.362zM204.406 631.138c-22.129-64.416-82.19-109.884-152.871-109.884-0.187 0-0.374 0-0.561 0.001h0.029c10.819 32.801 31.202 59.996 57.817 79.039l0.472 0.321c26.336 19.082 59.292 30.523 94.921 30.523 0.068 0 0.135 0 0.203 0h-0.010zM262.695 309.169c68.923 12.8 138.634-19.692 171.914-79.754-8.963-1.742-19.27-2.738-29.81-2.738-60.524 0-113.373 32.857-141.684 81.707l-0.42 0.785zM241.231 238.868c10.718-20.489 17.007-44.755 17.007-70.489 0-44.274-18.613-84.201-48.441-112.383l-0.074-0.069c-10.69 20.481-16.961 44.732-16.961 70.447 0 44.279 18.593 84.215 48.397 112.427l0.071 0.067zM338.905 424.369c-31.101 14.28-56.119 37.332-72.452 65.978l-0.409 0.779c-12.516 21.66-19.9 47.644-19.9 75.354 0 7.247 0.505 14.375 1.482 21.352l-0.092-0.805c55.043-25.127 92.607-79.69 92.607-143.026 0-6.921-0.449-13.737-1.318-20.421l0.084 0.788zM304.837 801.28c-28.703-24.872-66.417-40.027-107.67-40.027-30.083 0-58.284 8.059-82.561 22.137l0.791-0.423c28.722 24.847 66.44 39.984 107.693 39.984 30.070 0 58.262-8.043 82.541-22.094l-0.794 0.424zM426.142 834.56c16.258-23.913 25.957-53.425 25.957-85.202 0-38.285-14.079-73.282-37.342-100.095l0.161 0.189c-16.046 23.941-25.609 53.403-25.609 85.097 0 38.261 13.936 73.268 37.009 100.22l-0.175-0.21zM952.517 834.56c22.918-26.672 36.871-61.625 36.871-99.836 0-31.784-9.654-61.314-26.19-85.816l0.347 0.545c-22.985 26.692-36.982 61.694-36.982 99.966 0 31.73 9.621 61.212 26.105 85.69l-0.348-0.548zM918.055 919.040l-1.575 0.788c30.341 36.461 75.733 59.501 126.506 59.501 20.329 0 39.795-3.694 57.765-10.446l-1.132 0.373c-30.343-36.56-75.795-59.669-126.645-59.669-19.688 0-38.567 3.464-56.060 9.817l1.143-0.363zM1073.625 801.28c23.486 13.628 51.677 21.67 81.747 21.67 41.254 0 78.971-15.138 107.902-40.161l-0.209 0.177c-23.486-13.628-51.677-21.67-81.747-21.67-41.254 0-78.971 15.138-107.902 40.161l0.209-0.177zM1039.557 424.369c-4.529 32.886 1.772 66.166 18.511 95.902 16.742 29.425 41.76 52.477 71.878 66.351l0.983 0.406c0.786-5.896 1.234-12.712 1.234-19.633 0-63.336-37.564-117.899-91.628-142.625l-0.979-0.401zM1115.766 309.169c-28.577-49.66-81.346-82.559-141.799-82.559-10.649 0-21.060 1.021-31.14 2.97l1.025-0.165c28.762 49.708 81.683 82.615 142.289 82.615 10.403 0 20.58-0.97 30.445-2.823l-1.017 0.159zM1183.705 152.418c5.711-33.477 0.394-66.954-14.966-96.492-29.861 28.246-48.446 68.147-48.446 112.388 0 25.682 6.263 49.901 17.344 71.214l-0.406-0.857c23.739-22.338 40.382-51.976 46.335-85.317l0.138-0.936z"></path>
</svg>
