<!-- Generated by IcoMoon.io -->
<svg version="1.1" xmlns="http://www.w3.org/2000/svg" width="1041" height="1024" viewBox="0 0 1041 1024">
<title></title>
<g id="icomoon-ignore">
</g>
<path fill="#ce4e4e" d="M1040.896 945.493c0.183 1.956 0.287 4.229 0.287 6.527 0 20.010-7.917 38.172-20.789 51.523l0.022-0.023c-12.818 12.674-30.449 20.503-49.909 20.503-0.634 0-1.266-0.008-1.896-0.025l0.093 0.002c-45.397 0-102.059-35.84-147.627-93.696-13.141-16.555-59.904-78.336-75.264-131.755-17.067 9.387-35.328 16.384-54.613 20.821-69.384 48.906-155.672 78.165-248.794 78.165-0.073 0-0.146 0-0.219 0h0.011c-243.712 0-442.027-201.387-442.027-448.853s198.315-448.853 442.027-448.853 442.027 201.387 442.027 448.853c0 54.613-9.728 106.837-27.307 155.307l0.341 4.437c0 43.179-12.629 83.285-34.133 117.077 40.107 13.312 88.405 45.056 125.44 75.264 55.296 45.056 89.771 99.157 92.16 144.896zM982.869 948.907c-1.195-23.381-23.552-64-70.485-102.229-48.128-39.253-89.771-60.587-112.128-66.901 6.144 21.333 26.283 63.488 66.048 113.835 38.912 49.152 80.213 71.68 102.4 71.68 7.509 0 9.899-2.56 10.923-3.413 0.853-1.024 3.755-4.096 3.413-12.971zM667.136 764.075c75.37-12.416 132.16-77.093 132.16-155.034 0-5.385-0.271-10.706-0.8-15.952l0.054 0.66c-7.041-79.935-73.376-142.238-154.392-142.848h-0.061c-85.919 0.675-155.31 70.482-155.31 156.497 0 0.362 0.001 0.723 0.004 1.084v-0.055c0 87.040 69.632 157.525 155.307 157.525 7.851 0 15.531-0.683 23.211-1.877zM58.197 448.683c0 96.939 35.157 185.685 93.013 253.952l259.584-263.68v-378.539c-197.12 16.213-352.597 183.979-352.597 388.267zM576.512 813.568c-85.458-30.233-145.58-110.339-145.58-204.487 0-0.23 0-0.46 0.001-0.69v0.036c0-119.296 95.573-216.405 213.163-216.405 75.435 0 141.653 40.277 179.541 100.523 1.707-14.336 2.56-29.013 2.56-43.861 0-205.824-158.037-374.613-357.376-388.608v391.168c0 3.755-0.853 7.339-2.048 10.752l-0.171 0.341c-1.365 3.413-3.413 6.827-6.315 9.728l-267.947 272.043c65.962 58.736 153.392 94.624 249.204 94.624 48.604 0 95.052-9.235 137.683-26.047l-2.545 0.885zM756.565 597.504c0 16.213-12.971 29.355-29.013 29.355s-29.013-13.141-29.013-29.355c0.001-0.102 0.001-0.222 0.001-0.343 0-23.445-18.909-42.473-42.308-42.665h-0.018c-16.043 0-29.013-13.141-29.013-29.355 0-16.384 12.971-29.525 29.013-29.525 55.527 0.482 100.354 45.607 100.354 101.202 0 0.241-0.001 0.482-0.003 0.723v-0.037z"></path>
</svg>
