<svg xmlns="http://www.w3.org/2000/svg" viewBox="0 0 71.27 81.03"><defs><style>.cls-1{fill:#ce4e4e;}</style></defs><title>доки</title><g id="Слой_2" data-name="Слой 2"><g id="Слой_1-2" data-name="Слой 1"><path class="cls-1" d="M71.15,17.38l-.1-.37a3.11,3.11,0,0,0-.13-.35c0-.11-.11-.22-.16-.34l-.1-.16c-.06-.11-.14-.21-.21-.3a3.73,3.73,0,0,0-.66-.67,2.29,2.29,0,0,0-.32-.22l-.16-.1A2.41,2.41,0,0,0,69,14.7a3.49,3.49,0,0,0-.37-.14L53,9.28,52.46,5A3.91,3.91,0,0,0,48,1.71L35.68,3.39,26.39.21A4.27,4.27,0,0,0,25.22,0h-.38l-.19,0a4,4,0,0,0-2.22,1,3.73,3.73,0,0,0-1.07,1.6l-1,2.81L3.65,7.69A3.92,3.92,0,0,0,.24,12.07L5.1,47.93.22,61.54a3.87,3.87,0,0,0-.16.58,4.15,4.15,0,0,0-.06.77,3.17,3.17,0,0,0,0,.56,3,3,0,0,0,.08.37c0,.06,0,.13,0,.18a3.75,3.75,0,0,0,.3.69l.1.16a4.11,4.11,0,0,0,.45.59c.08.1.18.18.27.27a3.53,3.53,0,0,0,.46.35l.16.1a2.41,2.41,0,0,0,.35.18,3.49,3.49,0,0,0,.37.14l5.21,1.76.75,5.58a3.91,3.91,0,0,0,4.45,3.31l15-2,16.79,5.73a3.55,3.55,0,0,0,.59.14c.19,0,.38,0,.59.06a3.89,3.89,0,0,0,1-.08,3,3,0,0,0,.54-.16,3.85,3.85,0,0,0,.53-.24,3.91,3.91,0,0,0,1.87-2.13l2.35-6.57,5.15-.7a3.93,3.93,0,0,0,3.41-4.38L59,53.11l.29-.8L71,19.48a3.37,3.37,0,0,0,.19-.77,3.11,3.11,0,0,0,0-.38,2.93,2.93,0,0,0,0-.75A.9.9,0,0,1,71.15,17.38ZM48.46,5.18a.35.35,0,0,1,.4.3L49.19,8l-6-2ZM3.81,11.6a.36.36,0,0,1,.3-.4L19,9.18,15.5,18.92l-5.44.74.48,3.5,3.61-.5L7.74,40.57Zm8.78,62.07a.35.35,0,0,1-.4-.3l-.51-3.81,4.57,1.55,4.33,1.47Zm44.67-6.43a.36.36,0,0,1-.3.4l-3.34.45L55.78,62l.54-1.54ZM67.62,18.31,55.29,52.75,49.59,68.63l-3.09,8.62a.39.39,0,0,1-.32.24.44.44,0,0,1-.14,0L36,74,7.32,64.32,3.85,63.14l-.06,0-.06,0a.29.29,0,0,1-.08-.11.32.32,0,0,1,0-.27l2.53-7L8.8,48.27,23,8.6l1.34-3.74.4-1.12s0,0,0-.06a.42.42,0,0,1,.29-.18.44.44,0,0,1,.14,0l2.57.88,7.5,2.54,12.33,4.19,5.95,2,13.85,4.7.06,0a.41.41,0,0,1,.14.14A.58.58,0,0,1,67.62,18.31Z"/><polygon class="cls-1" points="25.36 17.1 57.94 28.15 59.14 24.8 26.57 13.75 25.36 17.1"/><polygon class="cls-1" points="21.78 27.11 54.36 38.16 55.56 34.82 22.98 23.77 21.78 27.11"/><polygon class="cls-1" points="18.25 36.96 50.83 48.01 52.03 44.67 19.45 33.62 18.25 36.96"/><polygon class="cls-1" points="14.6 47.15 47.18 58.2 48.38 54.86 15.8 43.8 14.6 47.15"/><polygon class="cls-1" points="11.61 55.5 44.19 66.55 45.39 63.2 12.81 52.15 11.61 55.5"/></g></g></svg>