<svg xmlns="http://www.w3.org/2000/svg" viewBox="0 0 64.98 65"><defs><style>.cls-1{fill:#ce4e4e;}</style></defs><title>Ресурс 2</title><g id="Слой_2" data-name="Слой 2"><g id="Слой_1-2" data-name="Слой 1"><path class="cls-1" d="M64.51,14.64a1.6,1.6,0,0,0,0-2.26L52.6.47a1.6,1.6,0,0,0-2.26,0L36.59,14.22a1.6,1.6,0,0,0,2.26,2.26L51.48,3.86l9.65,9.65L56.66,18l-3.51-3.52a1.6,1.6,0,1,0-2.26,2.26l3.51,3.52L50.59,24l-3.51-3.52a1.6,1.6,0,1,0-2.26,2.26l3.51,3.52-3.26,3.26L24.58,9.07,19.64,4.13A9,9,0,0,0,7,4.13L4.13,7a9,9,0,0,0,0,12.69l4.94,4.94h0l8.58,8.58L.47,50.36a1.6,1.6,0,0,0,0,2.26L12.37,64.53a1.6,1.6,0,0,0,2.26,0L29.14,50a1.6,1.6,0,1,0-2.26-2.26l-.58.58-3.51-3.52a1.6,1.6,0,0,0-2.26,2.26L24,50.6l-3.81,3.82L16.71,50.9a1.6,1.6,0,1,0-2.26,2.26L18,56.68,13.5,61.14,3.86,51.49,19.91,35.43,40.4,55.93l0,0,.08.07.05,0,.07.05.06,0,.07,0,.08,0,.06,0,.1,0h0L60.8,62.84a1.6,1.6,0,0,0,2-2L56.3,41l0,0,0-.09,0-.06,0-.08,0-.07,0-.06L56,40.56l0,0-.07-.08,0,0-8.58-8.59Zm-20,39.46,9.59-9.59,4.72,14.31Zm-3-1.55L11.33,22.33h0L6.39,17.39a5.79,5.79,0,0,1,0-8.17L9.22,6.39a5.77,5.77,0,0,1,8.17,0l3.81,3.81-5.38,5.38a1.6,1.6,0,0,0,2.26,2.26l5.38-5.38L52.53,41.54Z"/></g></g></svg>