<svg xmlns="http://www.w3.org/2000/svg" viewBox="0 0 26.33 8.97"><defs><style>.cls-1{fill:#ce4e4e;}</style></defs><title>шаги</title><g id="Слой_2" data-name="Слой 2"><g id="Слой_1-2" data-name="Слой 1"><path class="cls-1" d="M13.63,0a.78.78,0,0,0-.45,1.29L15.75,3.7H5.88A3,3,0,0,0,3,1.61,2.91,2.91,0,0,0,0,4.45,2.94,2.94,0,0,0,3,7.32,3,3,0,0,0,5.88,5.2h9.88L13.18,7.61a.78.78,0,0,0-.08,1.13.84.84,0,0,0,1.18,0L18.16,5.1,18.24,5l.08-.08s0,0,0-.05a.2.2,0,0,0,.06-.11l0,0V4.69a.38.38,0,0,0,.06-.16V4.37a.78.78,0,0,0-.11-.27v0L18.3,4l-.06-.05a.71.71,0,0,0-.17-.13L14.27.22A.8.8,0,0,0,13.63,0Zm9.74,1.61a2.94,2.94,0,0,0-3,2.84,3,3,0,0,0,3,2.87,2.91,2.91,0,0,0,3-2.87,2.89,2.89,0,0,0-3-2.84ZM3,3.11A1.38,1.38,0,0,1,4.42,4.45,1.39,1.39,0,0,1,3,5.82,1.35,1.35,0,1,1,3,3.11Zm20.37,0a1.35,1.35,0,1,1,0,2.71,1.35,1.35,0,1,1,0-2.71Z"/></g></g></svg>