<svg xmlns="http://www.w3.org/2000/svg" viewBox="0 0 87.15 90"><defs><style>.cls-1{fill:none;}.cls-2{fill:#ce4e4e;}</style></defs><title>Ресурс 4</title><g id="Слой_2" data-name="Слой 2"><g id="Слой_1-2" data-name="Слой 1"><path class="cls-1" d="M43.58,66.24A30.22,30.22,0,1,0,13.36,36,30.25,30.25,0,0,0,43.58,66.24Zm0-52.17a22,22,0,1,1-22,22A22,22,0,0,1,43.58,14.07Z"/><path class="cls-1" d="M43.58,52.17A16.15,16.15,0,1,0,27.42,36,16.17,16.17,0,0,0,43.58,52.17Zm0-29.13v5.8a7.13,7.13,0,0,0-4.49,1.59A7.23,7.23,0,0,0,38,31.53,7.13,7.13,0,0,0,36.41,36H30.6A13,13,0,0,1,43.58,23Z"/><path class="cls-1" d="M12.3,84.2H74.85A6.48,6.48,0,0,0,79.1,72.82l-11.51-10a35.94,35.94,0,0,1-48,0l-11.51,10A6.48,6.48,0,0,0,12.3,84.2Z"/><path class="cls-2" d="M12.3,90H74.85a12.28,12.28,0,0,0,8-21.57L71.59,58.64a36,36,0,1,0-56,0L4.26,68.43A12.28,12.28,0,0,0,12.3,90Zm1.06-54A30.22,30.22,0,1,1,43.58,66.24,30.25,30.25,0,0,1,13.36,36Zm-5.3,36.8,11.51-10a35.94,35.94,0,0,0,48,0l11.51,10A6.48,6.48,0,0,1,74.85,84.2H12.3A6.48,6.48,0,0,1,8.06,72.82Z"/><path class="cls-2" d="M43.58,58a22,22,0,1,0-22-22A22,22,0,0,0,43.58,58Zm0-38.11A16.15,16.15,0,1,1,27.42,36,16.17,16.17,0,0,1,43.58,19.87Z"/><path class="cls-2" d="M38,31.53a7.23,7.23,0,0,1,1.09-1.09,7.13,7.13,0,0,1,4.49-1.59V23a13,13,0,0,0-13,13h5.8A7.13,7.13,0,0,1,38,31.53Z"/></g></g></svg>