<svg xmlns="http://www.w3.org/2000/svg" viewBox="0 0 70 88"><defs><style>.cls-1{fill:#ce4e4e;}</style></defs><title>Ресурс 3</title><g id="Слой_2" data-name="Слой 2"><g id="Слой_1-2" data-name="Слой 1"><path class="cls-1" d="M20.81,0a2,2,0,0,0-1.19.53l-19,18.1A2,2,0,0,0,0,20.1V82a2,2,0,0,0,2,2H41v2a2,2,0,0,0,3,1.72l6-3.44,6,3.44A2,2,0,0,0,59,86V84h9a2,2,0,0,0,2-2V2a2,2,0,0,0-2-2H20.81ZM23,4H66V80H59V68s0-.06,0-.09a12,12,0,1,0-18,0S41,68,41,68V80H4V23H21a2,2,0,0,0,2-2H52a2,2,0,0,0,.06-4H23V4ZM19,6.66V19H6ZM17.81,27A2,2,0,0,0,18,31H52a2,2,0,0,0,.06-4H17.81Zm0,10A2,2,0,0,0,18,41H52a2,2,0,0,0,.06-4H17.81ZM50,52a8,8,0,1,1-8,8,8,8,0,0,1,8-8ZM10.81,54A2,2,0,0,0,11,58H31a2,2,0,0,0,0-4H10.81Zm0,8A2,2,0,0,0,11,66H31a2,2,0,0,0,.06-4H10.81ZM45,70.89a11.67,11.67,0,0,0,10,0V82.54l-4-2.28a2,2,0,0,0-2,0l-4,2.28Z"/></g></g></svg>