<svg xmlns="http://www.w3.org/2000/svg" viewBox="0 0 80.62 87.98"><defs><style>.cls-1{fill:#ce4e4e;}</style></defs><title>метла</title><g id="Слой_2" data-name="Слой 2"><g id="Слой_1-2" data-name="Слой 1"><path class="cls-1" d="M80.38,86.12s0-.07,0-.1a2.37,2.37,0,0,0,0-.37h0c0-.07,0-.15,0-.22a2.26,2.26,0,0,0,0-.23v0h0c-.52-2.64-1.57-7.71-2.69-13h.58A2.34,2.34,0,0,0,80.5,69.1l-1.72-7.57a2.34,2.34,0,0,0-2.28-1.82H75.07l-.4-1.9c-2.48-12-9.32-13.63-16.34-13.63H53v-3a4.47,4.47,0,0,0-4.42-4.51h-.69V7.11A7.17,7.17,0,0,0,40.38,0a7.34,7.34,0,0,0-7.53,7.11V36.63h-1.1a4.47,4.47,0,0,0-4.42,4.51v3H22.09c-7,0-13.86,1.65-16.34,13.63l-.4,1.9H4a2.34,2.34,0,0,0-2.3,1.89L.19,69.39a2.34,2.34,0,0,0,2.3,2.78h.25C1.63,77.45.57,82.52,0,85.17H0v0a2.29,2.29,0,0,0,0,.23c0,.07,0,.14,0,.21H0A2.21,2.21,0,0,0,0,86s0,.07,0,.1a2.45,2.45,0,0,0,.09.29,2.35,2.35,0,0,0,1,1.25,2.21,2.21,0,0,0,.27.14l.11,0a2.29,2.29,0,0,0,.34.1h0a2.39,2.39,0,0,0,.45,0H78.09a2.39,2.39,0,0,0,.45,0h0a2.45,2.45,0,0,0,.35-.1l.1,0a2.43,2.43,0,0,0,.28-.15,2.36,2.36,0,0,0,1-1.23A2.57,2.57,0,0,0,80.38,86.12ZM5.32,67.5l.6-3.11H74.63l.71,3.11ZM37.52,7.11a2.63,2.63,0,0,1,2.85-2.43c2.25,0,2.85,1.53,2.85,2.43V36.63H37.52ZM32,41.31H48.33v2.87H32ZM10.33,58.76c1.74-8.42,5.18-9.9,11.76-9.9H58.34c6.58,0,10,1.48,11.76,9.9l.2,1H10.13ZM72.91,72.18c.86,4.11,1.71,8.16,2.32,11.13H68.5l-1.39-7.86a2.34,2.34,0,0,0-4.61.81l1.25,7H56.2L56,78.85a2.34,2.34,0,0,0-4.67.24l.22,4.21h-9V75.85a2.34,2.34,0,1,0-4.67,0V83.3h-8l.22-4.21a2.34,2.34,0,1,0-4.67-.24l-.23,4.46H17.66l1.25-7a2.34,2.34,0,1,0-4.61-.81l-1.39,7.86H5.19c.61-3,1.46-7,2.32-11.13Z"/></g></g></svg>