<svg xmlns="http://www.w3.org/2000/svg" viewBox="0 0 84.33 45"><defs><style>.cls-1{fill:#ce4e4e;}</style></defs><title>Ресурс 1</title><g id="Слой_2" data-name="Слой 2"><g id="Слой_1-2" data-name="Слой 1"><path class="cls-1" d="M82.83,42h-4V11.42a1.49,1.49,0,0,0-.05-.38l0-.09a1.49,1.49,0,0,0-.13-.29l0,0a1.5,1.5,0,0,0-.24-.28l-.07-.06a1.49,1.49,0,0,0-.27-.18l0,0L56.6.14A1.51,1.51,0,0,0,56,0H30.13l-.28,0-.08,0-.22.08h0L8.2,10.06a1.5,1.5,0,0,0-.87,1.36V42H1.5a1.5,1.5,0,0,0,0,3H82.83a1.5,1.5,0,0,0,0-3ZM70.51,9.92H51.82L47.78,8H66.47ZM53,12.92H75.8V42H53ZM60,5H41.33L36.94,3H55.63ZM10.33,12.37,30.16,3.15,50,12.37V42H10.33Z"/></g></g></svg>