<svg xmlns="http://www.w3.org/2000/svg" xmlns:xlink="http://www.w3.org/1999/xlink" width="57" height="66" viewBox="0 0 57 66"><defs><path id="qtgva" d="M453 801.28c0 24.85-10.23 43.67-28.05 51.62a1.1 1.1 0 0 1-.9 0c-17.82-7.95-28.05-26.77-28.05-51.62 0-.43.24-.81.62-1l27.4-13.2c.3-.14.65-.14.95 0l27.4 13.2c.39.19.63.57.63 1zm-2.2.69l-26.3-12.68-26.3 12.68c.18 23.4 9.74 41.1 26.3 48.72 16.56-7.63 26.12-25.33 26.3-48.72zm-8.76 18.02l-.01.14a17.59 17.59 0 0 1-5.13 12.3 17.44 17.44 0 0 1-12.55 5.15 17.59 17.59 0 0 1-17.38-17.74 17.58 17.58 0 0 1 17.62-17.45 17.58 17.58 0 0 1 17.44 17.6zm-2.24 1.1h-5.16c-.14 2.6-.78 5.12-1.87 7.46 1.51.32 2.8.67 3.78.98a15.38 15.38 0 0 0 3.25-8.44zm-30.6 0c.21 3 1.3 5.95 3.25 8.44.98-.31 2.26-.66 3.78-.98a20.23 20.23 0 0 1-1.87-7.46zm4.91 10.24a15.4 15.4 0 0 0 6.73 3.61l-.4-.38a21.47 21.47 0 0 1-3.12-3.98c-1.22.23-2.3.5-3.2.75zm20.77 0a38.2 38.2 0 0 0-3.2-.75 21.46 21.46 0 0 1-3.52 4.36c2.44-.6 4.76-1.8 6.72-3.61zm0-22.69a15.23 15.23 0 0 0-6.72-3.61l.4.38a21.47 21.47 0 0 1 3.12 3.98c1.22-.23 2.3-.5 3.2-.75zm-20.77 0c.9.26 1.99.52 3.2.75a21.45 21.45 0 0 1 3.53-4.36c-2.44.6-4.76 1.8-6.73 3.61zm12.9-1.67c-.5-.5-.96-.93-1.41-1.31v4.4a38.3 38.3 0 0 0 3.72-.29 19.37 19.37 0 0 0-2.32-2.8zm0 26.03c.86-.87 1.63-1.8 2.3-2.8-1.15-.15-2.4-.25-3.71-.3v4.41c.44-.38.9-.81 1.4-1.3zm5.43-11.91h-6.84v6.61c1.77.05 3.43.22 4.92.45 1.12-2.2 1.77-4.6 1.92-7.06zM422 806.97c-.87.87-1.64 1.81-2.32 2.8 1.16.15 2.4.26 3.72.3v-4.41c-.45.38-.9.81-1.4 1.3zm0 26.03c.5.5.95.93 1.4 1.31v-4.4c-1.31.04-2.56.14-3.72.29.68 1 1.45 1.93 2.32 2.8zm-3.52-4.85c1.5-.23 3.15-.4 4.92-.45v-6.61h-6.84c.15 2.47.8 4.86 1.92 7.06z"/></defs><g><g transform="translate(-396 -787)"><use fill="#ed4d4d" xlink:href="#qtgva"/></g></g></svg>