<svg xmlns="http://www.w3.org/2000/svg" xmlns:xlink="http://www.w3.org/1999/xlink" width="69" height="69" viewBox="0 0 69 69"><defs><path id="z5u7a" d="M753 6842.66v4c0 .74-.6 1.34-1.35 1.34h-66.3c-.75 0-1.35-.6-1.35-1.35v-3.99a8.8 8.8 0 0 1 7.37-8.67 6.18 6.18 0 0 1-1.18-3.63v-4.4a5.06 5.06 0 0 1 5.05-5.05h6.02c.74 0 1.35.6 1.35 1.35v8.1c0 1.35-.44 2.6-1.18 3.63.92.15 1.81.44 2.64.87a11.47 11.47 0 0 1 8.46-5.04l.04-.01a7.92 7.92 0 0 1-2.03-5.3v-5.98a6.39 6.39 0 0 1 6.38-6.38h8.19c.74 0 1.35.6 1.35 1.35v11c0 2.04-.77 3.9-2.03 5.3l.04.02c3.52.32 6.59 2.25 8.46 5.04a8.68 8.68 0 0 1 2.64-.87 6.18 6.18 0 0 1-1.18-3.63v-4.4a5.06 5.06 0 0 1 5.05-5.05h6.02c.75 0 1.35.6 1.35 1.35v8.1c0 1.35-.44 2.6-1.18 3.63a8.8 8.8 0 0 1 7.37 8.67zm-60.12-15.95h5.57c.8 0 1.46-.66 1.46-1.46v-1.64h-4.67a2.36 2.36 0 0 0-2.36 2.35zm0 3.65a3.52 3.52 0 0 0 7.03 0v-1.22c-.45.17-.94.26-1.46.26h-5.57zm2.65 6.2l.87.88.87-.87zm7.31.7c-.58-.3-1.2-.5-1.84-.61l-3.65 3.64a1.35 1.35 0 0 1-1.9 0l-3.65-3.64a6.1 6.1 0 0 0-5.1 6.01v2.64h15.43v-4.07c0-1.4.25-2.73.71-3.97zm20.92-12.75v-2.41c-.73.4-1.57.62-2.47.62h-8.05v1.79a5.27 5.27 0 0 0 10.52 0zm-7.6 7.95l2.34 2.35 2.35-2.35zm-2.92-13.93v1.5h8.05c1.36 0 2.47-1.1 2.47-2.47v-2.71h-6.84a3.69 3.69 0 0 0-3.68 3.68zm18.93 26.77v-4.07c0-4.44-3.31-8.11-7.59-8.69l-5.13 5.13a1.35 1.35 0 0 1-1.9 0l-5.13-5.13a8.78 8.78 0 0 0-7.5 7.37h8.68a1.35 1.35 0 1 1 0 2.7h-8.77v2.7zm4.92-18.6h5.57c.8 0 1.46-.65 1.46-1.45v-1.64h-4.68a2.36 2.36 0 0 0-2.35 2.35zm0 2.7v.96a3.52 3.52 0 0 0 7.03 0v-1.22c-.46.17-.95.26-1.46.26zm2.64 7.17l.87.87.87-.87zm10.57 8.73v-2.64a6.1 6.1 0 0 0-5.1-6.01l-3.65 3.64a1.35 1.35 0 0 1-1.9 0l-3.65-3.64c-.64.1-1.26.31-1.84.61.46 1.24.7 2.57.7 3.97v4.07zm-25.16-55.59l-7.56 7.57a1.35 1.35 0 0 1-1.91 0l-3.81-3.81a1.35 1.35 0 0 1 1.9-1.91l2.86 2.86 6.62-6.62a1.35 1.35 0 0 1 1.9 1.91zm6.9 2.83c0 7.47-6.07 13.54-13.54 13.54a13.56 13.56 0 0 1-5.57-25.89 1.35 1.35 0 1 1 1.11 2.46 10.86 10.86 0 1 0 15.3 9.9c0-4.29-2.52-8.18-6.43-9.92a1.35 1.35 0 1 1 1.1-2.46 13.56 13.56 0 0 1 8.03 12.37zm-12.15-12.19c0 .75-.6 1.35-1.35 1.35h-.04a1.35 1.35 0 0 1 0-2.7h.05c.74 0 1.34.6 1.34 1.35zm-.04 60.91a1.36 1.36 0 0 1-1.35 1.35 1.35 1.35 0 0 1-1.35-1.35 1.36 1.36 0 0 1 1.35-1.35 1.36 1.36 0 0 1 1.35 1.35z"/></defs><g><g transform="translate(-684 -6779)"><use fill="#ce4e4e" xlink:href="#z5u7a"/></g></g></svg>